<svg width="24" height="24" viewBox="0 0 24 24" fill="none" xmlns="http://www.w3.org/2000/svg">
<path d="M1 3C1 1.89543 1.89543 1 3 1H21C22.1046 1 23 1.89543 23 3V21C23 22.1046 22.1046 23 21 23H3C1.89543 23 1 22.1046 1 21V3Z" fill="#6F7F8A"/>
<path d="M10.1494 3.32628C10.5022 3.03278 11.0314 2.92408 11.49 3.05452C11.6664 3.10887 11.8193 3.2067 11.9839 3.30454C12.1133 3.38063 12.2661 3.41324 12.3837 3.5002C12.4425 3.54368 12.3955 3.61977 12.3955 3.67412C12.5484 4.0111 12.6307 4.38069 12.5013 4.73941C12.3955 4.85898 12.2074 4.89159 12.0545 4.94594C12.031 5.09813 12.0898 5.23944 12.1133 5.39162C12.078 5.41336 12.0545 5.4351 12.0192 5.45685C12.2426 5.44597 12.4661 5.40249 12.6895 5.35901C12.7718 5.28292 12.9012 5.3264 13.007 5.31553C13.0188 5.16335 13.0776 5.02204 13.0776 4.86985C13.1011 4.86985 13.1481 4.85898 13.1716 4.84811C13.1834 4.95681 13.1716 5.06552 13.2069 5.17422C13.2657 5.2177 13.3598 5.19596 13.4304 5.20683C13.4304 5.25031 13.4304 5.29379 13.4421 5.33727C14.8062 5.3264 16.1821 5.33727 17.5463 5.33727C17.5463 5.40249 17.5463 5.46772 17.5463 5.52207C17.5815 5.52207 17.6286 5.52207 17.6756 5.52207C17.6756 5.28292 17.6756 5.05465 17.6756 4.8155C17.7109 4.8155 17.7932 4.8155 17.8285 4.8155C17.8285 5.01116 17.8167 5.19596 17.8285 5.39162C17.8402 5.40249 17.8638 5.41336 17.8873 5.41336C17.8873 5.4351 17.899 5.47859 17.899 5.50033C17.9461 5.45685 18.0049 5.42423 18.0754 5.44597C18.0872 5.47859 18.099 5.5112 18.1107 5.55468C18.0637 5.59816 18.0402 5.65251 18.0637 5.71773C18.44 5.7286 18.8163 5.71773 19.2044 5.71773C19.2397 5.67425 19.2985 5.65251 19.3572 5.63077C19.3808 5.64164 19.416 5.66338 19.4278 5.67425C19.616 5.67425 19.7924 5.67425 19.9805 5.67425C20.004 5.76121 20.004 5.84817 19.9923 5.92427C19.8041 5.92427 19.616 5.92427 19.4278 5.92427C19.416 5.93514 19.3808 5.96775 19.3572 5.97862C19.2985 5.94601 19.2514 5.92427 19.1926 5.89165C18.8516 5.89165 18.5106 5.89165 18.1695 5.89165C17.9696 5.94601 17.7579 5.93514 17.558 5.90253C17.558 5.96775 17.558 6.04384 17.558 6.10906C16.9935 6.10906 16.4408 6.10906 15.8764 6.10906C15.8058 6.16341 15.7353 6.19602 15.6412 6.20689C15.6765 6.36995 15.4765 6.41343 15.406 6.533C15.359 6.59822 15.2884 6.6417 15.2178 6.66344C15.159 7.00042 15.2884 7.31566 15.3825 7.63089C15.2766 7.65264 15.159 7.68525 15.0532 7.70699C14.9944 7.92439 14.9356 8.15267 14.8886 8.37007C14.8415 8.56574 14.6769 8.72879 14.477 8.80488C14.3359 8.95707 14.1477 9.10925 13.9243 9.12012C13.8419 9.14186 13.7831 9.08751 13.7244 9.04403C13.4304 9.06577 13.1599 8.93532 12.9012 8.82662C12.6189 8.70705 12.3602 8.55487 12.0898 8.41355C12.1133 8.56574 12.031 8.69618 11.9722 8.82662C12.1015 8.88097 12.2779 8.92445 12.3485 9.0549C12.3955 9.15273 12.4425 9.26143 12.4425 9.381C12.4308 9.77233 12.3837 10.1637 12.3602 10.555C12.372 10.8376 12.2191 11.1202 12.0074 11.3268C11.8663 11.3159 11.7487 11.2616 11.6194 11.2072C11.5723 11.305 11.4665 11.4029 11.5253 11.5224C11.5723 11.6638 11.5723 11.8159 11.6429 11.9464C12.0427 12.3377 12.3837 12.7725 12.6307 13.2617C12.8777 13.7291 13.0658 14.2183 13.2657 14.7074C13.301 14.7074 13.3716 14.6966 13.4068 14.6966C13.4539 14.8379 13.4068 15.0009 13.5009 15.1314C13.5832 15.2509 13.5597 15.3923 13.5597 15.5336C13.5362 15.8597 13.5127 16.1858 13.4774 16.5119C13.4539 16.7402 13.3951 16.9684 13.3598 17.1967C13.3716 17.3706 13.4539 17.5446 13.4421 17.7185C13.4304 17.8815 13.4304 18.0555 13.2892 18.175C13.301 18.5446 13.1952 18.9142 13.3363 19.2729C13.5244 19.5121 13.7361 19.7404 13.9595 19.9469C14.2065 20.0556 14.5005 20.0773 14.7122 20.273C14.7945 20.3926 14.7474 20.5339 14.7239 20.6643C14.2183 20.7295 13.7126 20.7295 13.2069 20.6643C13.007 20.6208 12.8189 20.5448 12.6189 20.523C12.3485 20.5339 12.031 20.6317 11.784 20.4578C11.7605 20.1643 11.8781 19.8817 11.9369 19.599C11.9604 19.5012 12.0662 19.436 12.0545 19.3382C12.031 19.0012 12.0074 18.6533 11.9839 18.3163C11.9369 18.2946 11.8546 18.2729 11.8663 18.2076C11.8663 18.0446 11.8075 17.8815 11.7605 17.7294C11.6782 17.3163 11.6429 16.8923 11.6311 16.4684C11.6194 16.3488 11.7017 16.2619 11.7958 16.1858C11.8193 16.001 11.8428 15.8053 11.8546 15.6205C11.8193 15.5227 11.737 15.4466 11.6899 15.3596C11.4782 15.3814 11.1725 15.4249 11.0431 15.2183C10.7374 14.7944 10.4199 14.3596 10.1141 13.9356C9.98477 13.9248 9.83189 13.9356 9.71429 13.8595C9.58493 13.7291 9.50262 13.5552 9.4203 13.3921C9.38502 13.5226 9.3615 13.6639 9.27918 13.7726C9.20863 13.8813 9.09103 13.9574 9.00871 14.0552C8.92639 14.2291 8.85583 14.4031 8.78527 14.577C8.70296 14.7944 8.58536 15.0118 8.56184 15.2509C8.55008 15.3705 8.52656 15.4792 8.47952 15.5879C8.42072 15.6749 8.31489 15.7075 8.22081 15.751C8.15025 15.8923 8.10321 16.0336 7.99738 16.1532C7.92682 16.2293 7.80922 16.251 7.76218 16.3488C7.71514 16.4793 7.64459 16.5988 7.58579 16.7184C7.56227 16.8489 7.65634 16.9902 7.6093 17.1206C7.52699 17.4467 7.35059 17.7511 7.18595 18.0446C7.10364 18.262 7.04484 18.4903 6.92724 18.6968C6.8802 18.7838 6.76261 18.8055 6.66853 18.8164C6.56269 19.0555 6.44509 19.2838 6.37454 19.5338C6.33926 19.773 6.33926 20.023 6.35102 20.2621C6.35102 20.3708 6.42158 20.4578 6.46861 20.5556C6.51565 20.6861 6.48037 20.8165 6.45685 20.9469C5.99823 21.0013 5.52784 21.0448 5.08097 20.9143C5.03393 20.8817 5.04569 20.8274 5.03393 20.7839C4.99865 20.5882 4.97513 20.3817 5.04569 20.1969C5.19857 19.686 5.32792 19.1751 5.4808 18.6642C5.422 18.6098 5.33968 18.5664 5.33968 18.4794C5.32792 18.3381 5.33968 18.1859 5.37496 18.0446C5.44552 17.8054 5.63367 17.6207 5.72775 17.3924C5.76303 17.2945 5.75127 17.1967 5.76303 17.0989C5.76303 16.8706 5.90415 16.6858 6.00998 16.4901C6.11582 16.3271 6.19814 16.1532 6.33926 16.0119C6.43334 15.9358 6.43333 15.8162 6.50389 15.7184C6.57445 15.5988 6.69205 15.501 6.69205 15.3596C6.71557 15.1857 6.64501 15.0118 6.66853 14.8379C6.71557 14.327 6.8214 13.8269 6.91548 13.316C6.86844 13.2617 6.79788 13.2073 6.77436 13.1312C6.78612 13.0769 6.79789 13.0334 6.80965 12.9791C6.77437 12.9247 6.73909 12.8704 6.70381 12.816C6.75085 12.7508 6.79788 12.6747 6.84492 12.6095C6.79788 12.5769 6.73909 12.5334 6.69205 12.5008C6.75085 12.3377 6.72733 12.0986 6.939 12.0225C6.96252 12.0333 7.02132 12.0442 7.04484 12.0551C7.00956 11.7725 7.00956 11.479 6.97428 11.1963C6.89196 10.892 6.8802 10.5767 6.91548 10.2724C7.03308 10.1093 7.25651 10.0441 7.45643 10.0332C7.19772 9.97887 6.939 9.95713 6.69205 9.88104C6.68029 9.68537 6.71557 9.48971 6.75085 9.29404C6.85668 8.91358 6.80965 8.52225 6.86844 8.13093C6.92724 8.02222 7.08012 8.00048 7.20948 8.02222C7.36235 8.04396 7.51523 8.00048 7.6681 7.957C7.6681 7.90265 7.67986 7.83743 7.6681 7.78308C7.57403 7.40262 7.59754 7.01129 7.6681 6.6417C7.76218 6.16341 7.97385 5.69599 8.36192 5.35901C8.62064 5.13074 8.99695 5.02204 9.34974 5.03291C9.46734 5.03291 9.5379 5.14161 9.63198 5.20683C9.67901 5.16335 9.72605 5.11987 9.76133 5.07639C9.70253 4.89159 9.60845 4.69593 9.62021 4.50026C9.64373 4.06545 9.79661 3.61977 10.1494 3.32628ZM13.8184 6.40256C13.8419 6.4243 13.8419 6.4243 13.8184 6.40256V6.40256ZM13.9831 6.4243C13.9948 6.50039 14.0183 6.57648 13.9713 6.6417C13.9125 6.66344 13.8419 6.66344 13.7831 6.69605C13.9478 6.69605 14.1124 6.70692 14.2771 6.69605C14.4064 6.66344 14.3594 6.51126 14.3594 6.4243C14.2771 6.33734 14.1007 6.39169 13.9831 6.4243ZM13.5715 6.88085C13.6891 7.00042 13.7479 7.18521 13.8537 7.30479C14.0066 7.11999 14.1242 6.92433 14.3006 6.76127C14.0889 6.7504 13.8772 6.77215 13.6656 6.7504C13.6303 6.79389 13.6068 6.83737 13.5715 6.88085Z" fill="black"/>
</svg>
