<svg width="24" height="24" viewBox="0 0 24 24" fill="none" xmlns="http://www.w3.org/2000/svg">
<path d="M1 3C1 1.89543 1.89543 1 3 1H21C22.1046 1 23 1.89543 23 3V21C23 22.1046 22.1046 23 21 23H3C1.89543 23 1 22.1046 1 21V3Z" fill="#EF2900"/>
<path fill-rule="evenodd" clip-rule="evenodd" d="M14.521 3.03313L9.72176 3.0574L9.68536 3.11387C10.5035 5.3581 10.6155 7.57329 10.6155 7.57329L13.5363 7.55885C13.5665 5.7745 14.521 3.03313 14.521 3.03313ZM16.6406 20.5671L20.0084 17.0798L19.9946 17.0134C17.8576 16.0224 16.2384 14.5411 16.2384 14.5411L14.1887 16.6634C15.4081 17.9437 16.6406 20.5671 16.6406 20.5671ZM8.28474 10.8001L9.69528 10.7712L9.7236 13.9657H8.34111L8.28474 10.8001ZM11.9805 11.4186L11.0697 12.4097L12.0391 13.4124L12.9365 12.3749L11.9805 11.4186ZM10.598 8.45276L13.6277 8.43832L13.656 9.93308H10.6402L10.598 8.45276ZM14.5437 12.8361L12.3875 15.0206L13.4444 16.0697L15.4735 13.9657L14.5437 12.8361ZM3.0947 14.7623L3.07104 9.86765C3.07104 9.86765 5.63211 10.7981 7.38197 10.8289L7.41029 13.9657C7.41029 13.9657 5.35085 13.965 3.15035 14.7994L3.0947 14.7623Z" fill="black"/>
</svg>
