<svg width="24" height="24" viewBox="0 0 24 24" fill="none" xmlns="http://www.w3.org/2000/svg">
<path d="M14.4832 2.3132C18.8065 3.41499 22 7.33557 22 12C22 12.1063 22 12.2125 21.9944 12.3188L15.2662 11.3624C15.0705 10.3501 14.4105 9.5 13.5213 9.04139L14.4832 2.3132ZM9.04139 10.4732C9.5 9.58389 10.3501 8.92394 11.3624 8.72819L12.3188 2.00559C12.2125 2 12.1063 2 12 2C7.33557 2 3.41499 5.19351 2.3132 9.51678L9.04139 10.4732ZM10.4787 14.9586C9.58949 14.5 8.92953 13.6499 8.73378 12.6376L2.00559 11.6812C2 11.7875 2 11.8937 2 12C2 16.6644 5.19351 20.585 9.51678 21.6868L10.4787 14.9586ZM14.9642 13.5268C14.5056 14.4161 13.6555 15.0761 12.6432 15.2718L11.6812 21.9944C11.7875 22 11.8937 22 12 22C16.6644 22 20.585 18.8065 21.6868 14.4832L14.9642 13.5268Z" fill="#6F7F8A"/>
</svg>
