<svg width="24" height="24" viewBox="0 0 24 24" fill="none" xmlns="http://www.w3.org/2000/svg">
<g clip-path="url(#clip0_21461_23613)">
<path fill-rule="evenodd" clip-rule="evenodd" d="M7.78516 0.386601C13.3636 -0.784774 17.3639 0.837524 20.148 3.47952L19.6114 4.00423L18.3118 5.26784C15.5504 2.39013 11.3218 0.478835 7.78516 0.386601ZM22.0757 5.73106C24.024 8.55651 24.4578 11.6197 23.5397 15.1349L18.0445 9.85188L21.209 10.7363C21.209 10.1706 21.2296 10.7261 21.1062 10.1809C20.9042 9.28242 20.567 8.41964 20.1059 7.62186L21.612 6.18301L22.0757 5.73106Z" fill="url(#paint0_linear_21461_23613)"/>
<path fill-rule="evenodd" clip-rule="evenodd" d="M16.1567 23.6243C11.4151 24.601 7.53715 23.5936 4.77466 21.508L7.03236 20.0272C9.70335 22.2469 13.1043 23.5321 16.1567 23.6243ZM2.68248 19.484C0.104009 16.265 -0.721553 11.8255 0.670491 7.83789L5.8264 13.0379L2.65986 12.1545C2.65986 14.0248 3.25821 15.6799 4.3408 17.1904C3.7263 17.9086 3.17135 18.6753 2.68145 19.483" fill="url(#paint1_linear_21461_23613)"/>
<path fill-rule="evenodd" clip-rule="evenodd" d="M2.64121 1.43442L8.95065 7.57005L10.4568 6.01846L11.3842 6.94285L10.3838 8.022L7.67272 10.8075V10.8177L6.19843 12.2771L5.27006 11.4039C5.27006 11.4039 6.94072 9.63507 6.89959 9.62585L0.568571 3.56196C0.166567 3.17496 0.152799 2.53723 0.537728 2.13335L1.19777 1.45492C1.39311 1.2602 1.6306 1.14747 1.91949 1.14747C2.19708 1.14644 2.43457 1.2397 2.64121 1.43442ZM21.2313 1.43442L19.5709 3.03725L17.5291 5.03156L14.9208 7.57005L13.4054 6.01846L12.477 6.94285L13.6943 8.25873L16.2306 10.8485L17.6638 12.2771L18.5911 11.4039C18.5911 11.4039 16.9215 9.63507 16.9729 9.62585L19.3848 7.31282L21.5705 5.21602L23.2926 3.56093C23.6946 3.17393 23.7084 2.53621 23.3234 2.13233L22.6644 1.45492C22.4793 1.25998 22.2223 1.14891 21.953 1.14747C21.6754 1.14747 21.4276 1.2397 21.2313 1.43442ZM13.4876 8.47497L12.0041 9.86053L11.9321 9.87078L11.8602 9.86053L10.3962 8.48419L8.45819 11.5874L8.86943 12.0096L5.54045 14.8975C0.951023 19.3678 1.29132 22.7907 1.29132 22.7907C4.16794 20.8989 7.03427 19.0091 9.90061 17.1173L15.4071 11.5874L13.4876 8.47497ZM8.45716 16.9011L7.8074 17.3643C7.51413 17.5686 7.11022 17.4973 6.90525 17.2049C6.70027 16.9126 6.77185 16.51 7.06512 16.3057L7.70459 15.8537C8.00274 15.6487 8.40576 15.7205 8.61137 16.0074C8.81802 16.2944 8.74503 16.6961 8.45716 16.9011ZM15.695 12.605L18.3248 14.8965C22.9122 19.3678 22.5729 22.7907 22.5729 22.7907C19.7066 20.8989 16.83 19.0091 13.9636 17.1173L12.5819 15.7297L15.695 12.605ZM15.3454 16.9523L15.9839 17.4043C16.2743 17.6114 16.6782 17.5447 16.886 17.2552C17.0938 16.9656 17.0269 16.563 16.7364 16.3559L16.0867 15.8947C15.7963 15.6912 15.3956 15.7599 15.1902 16.0484C14.9867 16.3414 15.0562 16.7428 15.3454 16.9523Z" fill="url(#paint2_linear_21461_23613)"/>
</g>
<defs>
<linearGradient id="paint0_linear_21461_23613" x1="13.9794" y1="1.73117" x2="20.7609" y2="15.4943" gradientUnits="userSpaceOnUse">
<stop stop-color="white"/>
<stop offset="1" stop-color="#D6D6D6"/>
</linearGradient>
<linearGradient id="paint1_linear_21461_23613" x1="6.17184" y1="9.68668" x2="13.7133" y2="23.9691" gradientUnits="userSpaceOnUse">
<stop stop-color="white"/>
<stop offset="1" stop-color="#D6D6D6"/>
</linearGradient>
<linearGradient id="paint2_linear_21461_23613" x1="11.9362" y1="22.9137" x2="12.9333" y2="2.54092" gradientUnits="userSpaceOnUse">
<stop stop-color="#006FBF"/>
<stop offset="1" stop-color="#00FFFF"/>
</linearGradient>
<clipPath id="clip0_21461_23613">
<rect width="24" height="24" fill="white"/>
</clipPath>
</defs>
</svg>
