<svg width="24" height="24" viewBox="0 0 24 24" fill="none" xmlns="http://www.w3.org/2000/svg">
<path fill-rule="evenodd" clip-rule="evenodd" d="M5.625 6H18.375V13.2372L11.9989 15.75L5.625 13.2372V6Z" fill="#FFCC02"/>
<path fill-rule="evenodd" clip-rule="evenodd" d="M14.9418 13.125H9.06671L8.89769 12.4091H15.1087L14.9397 13.125H14.9418ZM8.80141 11.9955L7.875 8.06132L9.62941 9.75971C9.59732 9.84368 9.5802 9.93606 9.5802 10.0305C9.5802 10.4672 9.94178 10.822 10.3868 10.822C10.5259 10.822 10.6564 10.7884 10.7698 10.7275C10.7698 10.7275 10.789 10.717 10.7997 10.7107C11.0351 10.5722 11.1934 10.3181 11.1934 10.0305C11.1934 9.7786 11.0736 9.55397 10.8853 9.40702L12 7.125L13.1147 9.40702C12.9264 9.55187 12.8066 9.7765 12.8066 10.0305C12.8066 10.3202 12.9649 10.5722 13.2003 10.7107C13.2003 10.7107 13.2195 10.7233 13.2302 10.7275C13.3436 10.7884 13.4741 10.822 13.6132 10.822C14.0582 10.822 14.4198 10.4672 14.4198 10.0305C14.4198 9.93606 14.4027 9.84368 14.3706 9.75971L16.125 8.06132L15.1986 11.9955H8.79286H8.80141Z" fill="black"/>
<path fill-rule="evenodd" clip-rule="evenodd" d="M5.25 8.76489L2.43813 7.53673C2.35898 7.72154 1.96325 7.99992 1.58511 7.82213L0 7.125C0.0329774 8.57775 1.05967 9.00117 1.82695 9.36611L5.25 10.875V8.76489Z" fill="white"/>
<path fill-rule="evenodd" clip-rule="evenodd" d="M5.24783 11.0919L3.90173 10.5217C3.8237 10.6998 3.43353 10.968 3.06069 10.7967L1.5 10.125C1.53251 11.5247 2.5448 11.9349 3.3013 12.2843L5.25 13.125V11.0942L5.24783 11.0919Z" fill="white"/>
<path fill-rule="evenodd" clip-rule="evenodd" d="M18.75 8.76489L21.5619 7.53673C21.641 7.72154 22.0367 7.99992 22.4149 7.82213L24 7.125C23.967 8.57775 22.9403 9.00117 22.1731 9.36611L18.75 10.875V8.76489Z" fill="white"/>
<path fill-rule="evenodd" clip-rule="evenodd" d="M18.7522 11.0919L20.0983 10.5217C20.1763 10.6998 20.5665 10.968 20.9393 10.7967L22.5 10.125C22.4675 11.5247 21.4552 11.9349 20.6987 12.2843L18.75 13.125V11.0942L18.7522 11.0919Z" fill="white"/>
<path fill-rule="evenodd" clip-rule="evenodd" d="M12 16.3833L18.9218 13.5163C19.0014 13.6909 19.3996 13.9539 19.7801 13.7837L21.375 13.125C21.3418 14.4977 20.3088 14.9001 19.5367 15.2427L12 18.375L4.46328 15.2427C3.69346 14.8978 2.65818 14.4977 2.625 13.125L4.21994 13.7837C4.60043 13.9517 4.99861 13.6887 5.07825 13.5163L12 16.3833Z" fill="white"/>
</svg>
