<svg width="20" height="18" viewBox="0 0 20 18" fill="none" xmlns="http://www.w3.org/2000/svg">
<path d="M0.273109 17.9988V14.8446H13.764C14.6064 14.8446 15.2545 14.6305 15.7085 14.2026C15.936 13.9817 16.1142 13.7154 16.2316 13.4208C16.3489 13.1263 16.4027 12.8104 16.3895 12.4937C16.3895 11.7181 16.1625 11.1361 15.7085 10.7477C15.2545 10.3593 14.6064 10.1664 13.764 10.1689H5.49617C4.71689 10.1835 3.94132 10.0578 3.20657 9.79772C2.56131 9.56672 1.97116 9.20402 1.47358 8.73271C1.00005 8.27516 0.628859 7.72247 0.384436 7.11105C0.122707 6.45633 -0.00779192 5.75656 0.000359623 5.05151C-0.00629766 4.36224 0.115128 3.67772 0.35846 3.0328C0.589538 2.42787 0.953497 1.88257 1.42348 1.43712C1.92785 0.971327 2.52197 0.613348 3.16945 0.385077C3.93271 0.1172 4.7375 -0.0128495 5.54628 0.00100044H18.4676V3.15525H5.54628C4.81894 3.15525 4.25737 3.34884 3.86154 3.736C3.46571 4.12318 3.26779 4.6594 3.26779 5.34468C3.26779 6.0386 3.47004 6.57483 3.87452 6.95334C4.27901 7.33185 4.82761 7.52172 5.5203 7.52296H13.764C15.5972 7.52296 16.9882 7.95219 17.937 8.81064C18.8856 9.66905 19.36 10.9728 19.36 12.7219C19.3666 13.438 19.2492 14.1499 19.013 14.8259C18.7916 15.4512 18.4371 16.0209 17.974 16.4959C17.4793 16.9856 16.8834 17.3612 16.2281 17.5962C15.4377 17.8779 14.6029 18.0143 13.764 17.9988H0.273109Z" fill="#7F9CFC"/>
</svg>
