<svg width="25" height="24" viewBox="0 0 25 24" fill="none" xmlns="http://www.w3.org/2000/svg">
<path d="M19.5677 8.30821C18.4977 7.98288 17.6095 8.00532 16.807 8.54378C15.9296 9.13833 15.9831 10.0806 16.914 10.5406C17.4918 10.8322 18.1124 10.9893 18.7117 11.2249C19.2788 11.4492 19.8566 11.6512 20.3809 11.9653C22.093 12.9637 22.3605 14.938 21.023 16.4412C20.2204 17.3387 19.1825 17.7537 18.0482 17.9444C16.7963 18.1576 15.5658 18.1015 14.3459 17.6976C14.2175 17.6528 13.9714 17.7425 13.8644 17.8547C13.4899 18.281 13.1582 18.7409 12.7087 19.3354C12.7087 18.9204 12.7087 18.6848 12.7087 18.438C12.7087 17.5294 12.698 16.6095 12.7301 15.7008C12.7408 15.5326 12.88 15.2409 13.0084 15.2185C14.1105 14.938 15.234 14.7137 16.4967 14.4332C16.1008 14.9604 15.7905 15.3643 15.4801 15.7794C16.272 16.4637 18.2302 16.2842 18.8722 15.4877C19.4072 14.8371 19.2788 14.0518 18.5298 13.6816C17.9091 13.3787 17.2243 13.1768 16.5823 12.9076C15.9938 12.6608 15.3731 12.4364 14.8274 12.0887C13.308 11.1351 13.0726 9.46365 14.2282 8.03898C15.127 6.93962 16.3362 6.4909 17.6523 6.28897C18.7652 6.10949 19.8459 6.1768 20.9267 6.54699C21.0658 6.59186 21.2905 6.50212 21.4189 6.38994C21.7613 6.09827 22.0609 5.76173 22.4996 5.33545C22.3177 6.69282 22.1679 7.89314 21.986 9.09346C21.9646 9.20564 21.7934 9.37391 21.6864 9.38513C20.5521 9.49731 19.4179 9.57583 18.1981 9.54218C18.6261 9.18321 19.0434 8.79058 19.5677 8.30821Z" fill="#F2C007"/>
<path d="M13.2441 10.3051C12.3774 10.3051 11.5428 10.3051 10.7188 10.3051C10.6011 8.59994 9.86281 8.01661 8.25775 8.25218C7.14491 8.42045 6.37448 9.02622 5.93577 10.0807C5.37935 11.4156 5.10114 12.8179 5.14394 14.2762C5.17604 15.2971 5.60405 15.8131 6.57779 15.9926C7.79764 16.2169 9.3813 15.858 9.86281 14.2987C9.89492 14.1865 10.0768 14.0519 10.1945 14.0406C10.9543 14.0182 11.7247 14.0294 12.5486 14.0294C12.2597 15.1624 11.7033 16.0487 10.858 16.7105C9.07098 18.1015 7.07001 18.3932 4.97273 17.7874C3.46397 17.3612 2.51164 15.9701 2.50094 14.3211C2.47954 12.4813 2.82195 10.7201 3.77429 9.1384C5.48635 6.31148 8.74997 5.68327 11.1576 6.55827C12.7198 7.13039 13.4796 8.54385 13.2441 10.3051Z" fill="white"/>
</svg>
