<svg width="24" height="24" viewBox="0 0 24 24" fill="none" xmlns="http://www.w3.org/2000/svg">
  <path fill-rule="evenodd" clip-rule="evenodd" d="M19.6595 5.04742C19.6595 5.04742 15.7917 3.31934 11.9267 3.31934C8.0618 3.31934 4.34033 5.04742 4.34033 5.04742V8.82347H5.54656V5.87393C5.99682 5.69937 6.49521 5.52517 7.0305 5.36155C8.69374 4.85318 10.3677 4.54928 11.9343 4.54928C13.4937 4.55029 15.1956 4.85493 16.9041 5.36398C17.4615 5.53003 17.982 5.70696 18.4532 5.88426V8.82344H19.6595V5.04742ZM19.6595 13.3129V17.2549L12.0102 20.681L4.34033 17.2549V13.3129H5.54656V16.4509L12.0096 19.3379L18.4532 16.4518V13.3129H19.6595ZM8.59388 7.93075C11.4742 7.30514 12.8287 8.25607 13.2274 8.55636C12.9885 10.7585 11.7016 11.5507 11.7016 11.5092C11.4512 11.0088 11.0755 10.7585 11.0755 10.7585C9.69796 12.0097 9.84618 14.1869 9.84618 14.1869C12.2255 15.6883 14.3544 14.312 14.3544 14.312C13.9558 14.1869 13.4778 13.6864 13.4778 13.6864C13.4778 13.6864 14.3544 13.5226 15.1058 11.988C15.8572 10.4534 15.1058 7.93075 15.1058 7.93075C15.3563 8.181 16.4604 9.68246 16.4604 11.6844C16.4604 13.5285 15.1735 14.7185 14.5819 15.1378C13.7594 15.7208 11.7755 16.1355 10.1744 15.543C8.57327 14.9505 7.59205 13.5285 7.59205 11.8095C7.59205 9.49946 9.22003 8.43124 9.22003 8.43124C9.0948 8.181 8.59388 7.93075 8.59388 7.93075Z" fill="white"/>
</svg>
