<svg width="25" height="20" viewBox="0 0 25 20" fill="none" xmlns="http://www.w3.org/2000/svg">
  <path d="M4.9 10C3.3 8.4 1.6 6.8 0 5.1C0.1 5.1 0.1 5.1 0.2 5.1C1.3 5.1 2.3 5.1 3.4 5.1C3.5 5.1 3.6 5.1 3.6 5C5.1 2.5 7.3 0.9 10.2 0.2C11 0.0999999 11.9 -1.52737e-07 12.8 0.0999998C14.4 0.2 15.9 0.6 17.2 1.4C19.6 2.8 21.2 4.9 21.9 7.7C22.1 8.4 22.2 9.1 22.2 9.8V9.9C22.2 9.8 22.1 9.8 22.1 9.8C20.5 8.2 19 6.5 17.4 5C16.2 3.7 14.6 3 12.9 2.8C9.2 2.4 5.7 5 5 8.7C4.9 9.1 4.9 9.5 4.9 9.9V10Z" fill="#615DFC"/>
  <path d="M19.4992 10.1C21.0992 11.7 22.6992 13.3 24.2992 14.9H24.1992C23.1992 14.9 22.0992 14.9 21.0992 14.9C20.9992 14.9 20.8992 14.9 20.7992 15C19.3992 17.3 17.4992 18.8 14.8992 19.6C14.2992 19.8 13.6992 19.9 13.0992 19.9C12.4992 20 11.8992 20 11.3992 19.9C9.79922 19.8 8.29922 19.3 6.99922 18.5C5.49922 17.6 4.29922 16.4 3.49922 14.8C2.99922 13.8 2.59922 12.8 2.39922 11.7C2.29922 11.2 2.29922 10.7 2.19922 10.1L2.29922 10.2C3.79922 11.8 5.39922 13.4 6.89922 14.9C7.99922 16 9.29922 16.7 10.7992 17C11.3992 17.1 11.9992 17.2 12.6992 17.1C14.0992 17 15.3992 16.5 16.4992 15.7C17.9992 14.5 18.9992 13 19.3992 11.1C19.4992 11 19.4992 10.6 19.4992 10.1Z" fill="#615DFC"/>
  <path d="M12.2992 13.9C12.3992 13.8 12.3992 13.8 12.4992 13.7C12.8992 13.2 12.6992 12.4 11.9992 12.2C11.8992 12.2 11.7992 12.1 11.7992 12C11.5992 11.7 11.3992 11.5 10.9992 11.5C10.8992 11.5 10.7992 11.4 10.7992 11.4C10.5992 11.1 10.2992 11 9.99922 11C9.89922 11 9.89922 11 9.79922 10.9C9.59922 10.7 9.39922 10.5 9.09922 10.5C8.89922 10.5 8.69922 10.5 8.59922 10.6C8.49922 10.6 8.39922 10.7 8.29922 10.8H8.19922V10.7C8.29922 10.4 8.39922 10.1 8.49922 9.9C8.69922 9.3 8.99922 8.6 9.19922 8C9.19922 7.9 9.29922 7.9 9.39922 7.9C9.89922 7.8 10.3992 7.7 10.9992 7.7H11.0992C10.9992 7.7 10.9992 7.8 10.9992 7.8C10.6992 8 10.4992 8.2 10.1992 8.4C9.89922 8.4 9.79922 8.5 9.69922 8.7C9.59922 8.8 9.59922 8.9 9.49922 9C9.39922 9.2 9.49922 9.3 9.59922 9.5C9.79922 9.8 10.0992 10 10.4992 10C10.6992 10 10.9992 10 11.1992 9.9C11.4992 9.8 11.7992 9.6 12.0992 9.5C12.4992 9.3 12.3992 9.3 12.6992 9.6C13.1992 10 13.6992 10.4 14.2992 10.8C14.5992 11.1 14.9992 11.3 15.3992 11.6C15.4992 11.7 15.5992 11.7 15.6992 11.8C15.8992 12 15.7992 12.2 15.6992 12.3C15.5992 12.4 15.4992 12.4 15.3992 12.3C15.2992 12.3 15.2992 12.2 15.1992 12.2C15.0992 12.2 15.0992 12.2 14.9992 12.2C14.8992 12.2 14.8992 12.3 14.9992 12.3C14.9992 12.4 15.0992 12.5 14.9992 12.6C14.9992 12.8 14.7992 12.9 14.5992 12.9C14.4992 12.9 14.3992 12.8 14.2992 12.7C14.2992 12.7 14.2992 12.7 14.1992 12.6H14.0992C13.9992 12.6 13.9992 12.7 14.0992 12.7V12.8C14.1992 12.9 14.1992 13.1 14.0992 13.2C13.9992 13.4 13.7992 13.4 13.6992 13.4C13.5992 13.4 13.4992 13.3 13.3992 13.2C13.3992 13.2 13.3992 13.2 13.2992 13.1C13.1992 13.1 13.1992 13.1 13.0992 13.1C13.0992 13.1 13.0992 13.2 13.0992 13.3C13.0992 13.4 13.1992 13.4 13.1992 13.5C13.2992 13.8 13.0992 14 12.7992 14C12.4992 14.1 12.3992 14 12.2992 13.9Z" fill="#615DFC"/>
  <path d="M15.8984 10.9C15.7984 10.9 15.6984 11 15.5984 11.1C15.4984 11 15.2984 10.9 15.1984 10.8C14.4984 10.3 13.6984 9.69999 12.9984 9.19999C12.9984 8.99999 12.8984 8.99999 12.7984 8.89999C12.5984 8.79999 12.3984 8.79999 12.1984 8.89999C12.0984 8.89999 11.8984 8.99999 11.7984 9.09999C11.4984 9.19999 11.2984 9.29999 10.9984 9.39999C10.7984 9.49999 10.5984 9.49999 10.4984 9.49999C10.3984 9.49999 10.1984 9.39999 10.0984 9.29999C9.99844 9.19999 9.99844 9.19999 10.0984 9.09999C10.1984 8.99999 10.1984 8.89999 10.2984 8.79999C10.4984 8.59999 10.7984 8.39999 10.9984 8.19999C11.1984 8.09999 11.3984 7.89999 11.5984 7.79999C11.6984 7.69999 11.7984 7.69999 11.8984 7.59999C12.0984 7.49999 12.2984 7.49999 12.4984 7.59999C13.2984 7.89999 14.0984 8.09999 14.8984 8.39999C14.9984 8.39999 14.9984 8.39999 14.9984 8.49999C15.2984 9.29999 15.5984 10.1 15.8984 10.9C15.8984 10.9 15.8984 10.8 15.8984 10.9Z" fill="#8986FD"/>
  <path d="M10.7008 13.1C10.5008 13.1 10.4008 13.2 10.2008 13.2C10.0008 13.2 9.90078 13.2 9.80078 13.1C9.60078 13 9.60078 12.8 9.70078 12.7C9.60078 12.7 9.50078 12.8 9.40078 12.8C9.10078 12.8 8.80078 12.7 8.70078 12.5C8.60078 12.4 8.60078 12.3 8.80078 12.1H8.70078C8.60078 12.1 8.50078 12.1 8.40078 12C8.30078 12 8.20078 11.9 8.20078 11.9C8.00078 11.7 8.00078 11.5 8.20078 11.4C8.40078 11 8.60078 11 8.80078 10.9C8.90078 10.9 9.00078 10.9 9.20078 10.9C9.40078 11 9.50078 11.1 9.50078 11.3C9.50078 11.4 9.50078 11.4 9.50078 11.5C9.60078 11.5 9.80078 11.4 9.90078 11.4C10.2008 11.3 10.4008 11.5 10.5008 11.7C10.6008 11.8 10.5008 12 10.4008 12.1H10.5008C10.6008 12.1 10.7008 12 10.8008 12C11.0008 12 11.2008 12.1 11.3008 12.3C11.4008 12.4 11.3008 12.5 11.3008 12.7C11.4008 12.7 11.5008 12.7 11.5008 12.6C11.7008 12.6 11.8008 12.6 12.0008 12.7C12.1008 12.8 12.2008 12.9 12.1008 13.1C12.1008 13.2 12.0008 13.2 12.0008 13.3C11.8008 13.5 11.5008 13.6 11.2008 13.6C10.8008 13.7 10.6008 13.5 10.7008 13.1Z" fill="#8986FD"/>
  <path d="M7.60078 7C8.00078 7.1 8.30078 7.2 8.70078 7.3C8.30078 8.4 7.90078 9.5 7.50078 10.6C7.30078 10.5 7.00078 10.4 6.80078 10.4C7.00078 9.3 7.30078 8.1 7.60078 7Z" fill="#615DFC"/>
  <path d="M16.6984 11.1C16.2984 10 15.8984 8.9 15.3984 7.8C15.7984 7.7 16.0984 7.6 16.3984 7.5C16.6984 8.6 16.9984 9.7 17.2984 10.8C17.1984 10.9 16.9984 11 16.6984 11.1Z" fill="#8986FD"/>
</svg>
