<svg width="800" height="111" viewBox="0 0 800 111" fill="none" xmlns="http://www.w3.org/2000/svg">
<g clip-path="url(#clip0_17284_23739)">
<path fill-rule="evenodd" clip-rule="evenodd" d="M98.1269 0H73.9352L10 111H34.1917L98.1269 0Z" fill="url(#paint0_linear_17284_23739)"/>
<path fill-rule="evenodd" clip-rule="evenodd" d="M310.127 0H285.935L222 111H246.192L310.127 0Z" fill="url(#paint1_linear_17284_23739)"/>
<path fill-rule="evenodd" clip-rule="evenodd" d="M522.127 0H497.935L434 111H458.192L522.127 0Z" fill="url(#paint2_linear_17284_23739)"/>
<path fill-rule="evenodd" clip-rule="evenodd" d="M734.127 0H709.935L646 111H670.192L734.127 0Z" fill="url(#paint3_linear_17284_23739)"/>
<path fill-rule="evenodd" clip-rule="evenodd" d="M151.127 0H126.935L63 111H87.1917L151.127 0Z" fill="url(#paint4_linear_17284_23739)"/>
<path fill-rule="evenodd" clip-rule="evenodd" d="M363.127 0H338.935L275 111H299.192L363.127 0Z" fill="url(#paint5_linear_17284_23739)"/>
<path fill-rule="evenodd" clip-rule="evenodd" d="M575.127 0H550.935L487 111H511.192L575.127 0Z" fill="url(#paint6_linear_17284_23739)"/>
<path fill-rule="evenodd" clip-rule="evenodd" d="M787.127 0H762.935L699 111H723.192L787.127 0Z" fill="url(#paint7_linear_17284_23739)"/>
<path fill-rule="evenodd" clip-rule="evenodd" d="M204.127 0H179.935L116 111H140.192L204.127 0Z" fill="url(#paint8_linear_17284_23739)"/>
<path fill-rule="evenodd" clip-rule="evenodd" d="M416.127 0H391.935L328 111H352.192L416.127 0Z" fill="url(#paint9_linear_17284_23739)"/>
<path fill-rule="evenodd" clip-rule="evenodd" d="M628.127 0H603.935L540 111H564.192L628.127 0Z" fill="url(#paint10_linear_17284_23739)"/>
<path fill-rule="evenodd" clip-rule="evenodd" d="M840.127 0H815.935L752 111H776.192L840.127 0Z" fill="url(#paint11_linear_17284_23739)"/>
<path fill-rule="evenodd" clip-rule="evenodd" d="M45.1269 0H20.9352L-43 111H-18.8083L45.1269 0Z" fill="url(#paint12_linear_17284_23739)"/>
<path fill-rule="evenodd" clip-rule="evenodd" d="M257.127 0H232.935L169 111H193.192L257.127 0Z" fill="url(#paint13_linear_17284_23739)"/>
<path fill-rule="evenodd" clip-rule="evenodd" d="M469.127 0H444.935L381 111H405.192L469.127 0Z" fill="url(#paint14_linear_17284_23739)"/>
<path fill-rule="evenodd" clip-rule="evenodd" d="M681.127 0H656.935L593 111H617.192L681.127 0Z" fill="url(#paint15_linear_17284_23739)"/>
<path fill-rule="evenodd" clip-rule="evenodd" d="M97.9355 0L34 111H63.6816L127.617 0H97.9355Z" fill="#141A1D"/>
<path fill-rule="evenodd" clip-rule="evenodd" d="M309.936 0L246 111H275.682L339.617 0H309.936Z" fill="#141A1D"/>
<path fill-rule="evenodd" clip-rule="evenodd" d="M521.936 0L458 111H487.682L551.617 0H521.936Z" fill="#141A1D"/>
<path fill-rule="evenodd" clip-rule="evenodd" d="M733.936 0L670 111H699.682L763.617 0H733.936Z" fill="#141A1D"/>
<path fill-rule="evenodd" clip-rule="evenodd" d="M150.936 0L87 111H116.682L180.617 0H150.936Z" fill="#141A1D"/>
<path fill-rule="evenodd" clip-rule="evenodd" d="M362.936 0L299 111H328.682L392.617 0H362.936Z" fill="#141A1D"/>
<path fill-rule="evenodd" clip-rule="evenodd" d="M574.936 0L511 111H540.682L604.617 0H574.936Z" fill="#141A1D"/>
<path fill-rule="evenodd" clip-rule="evenodd" d="M786.936 0L723 111H752.682L816.617 0H786.936Z" fill="#141A1D"/>
<path fill-rule="evenodd" clip-rule="evenodd" d="M44.9355 0L-19 111H10.6816L74.6172 0H44.9355Z" fill="#141A1D"/>
<path fill-rule="evenodd" clip-rule="evenodd" d="M256.936 0L193 111H222.682L286.617 0H256.936Z" fill="#141A1D"/>
<path fill-rule="evenodd" clip-rule="evenodd" d="M468.936 0L405 111H434.682L498.617 0H468.936Z" fill="#141A1D"/>
<path fill-rule="evenodd" clip-rule="evenodd" d="M680.936 0L617 111H646.682L710.617 0H680.936Z" fill="#141A1D"/>
<path fill-rule="evenodd" clip-rule="evenodd" d="M-8.06445 0L-72 111H-42.3184L21.6172 0H-8.06445Z" fill="#141A1D"/>
<path fill-rule="evenodd" clip-rule="evenodd" d="M203.936 0L140 111H169.682L233.617 0H203.936Z" fill="#141A1D"/>
<path fill-rule="evenodd" clip-rule="evenodd" d="M415.936 0L352 111H381.682L445.617 0H415.936Z" fill="#141A1D"/>
<path fill-rule="evenodd" clip-rule="evenodd" d="M627.936 0L564 111H593.682L657.617 0H627.936Z" fill="#141A1D"/>
<path fill-rule="evenodd" clip-rule="evenodd" d="M839.936 0L776 111H805.682L869.617 0H839.936Z" fill="#141A1D"/>
</g>
<defs>
<linearGradient id="paint0_linear_17284_23739" x1="87" y1="-5.39584e-07" x2="22.5" y2="111" gradientUnits="userSpaceOnUse">
<stop stop-color="#1F191E"/>
<stop offset="1" stop-color="#141A1D"/>
</linearGradient>
<linearGradient id="paint1_linear_17284_23739" x1="299" y1="-5.39584e-07" x2="234.5" y2="111" gradientUnits="userSpaceOnUse">
<stop stop-color="#1F191E"/>
<stop offset="1" stop-color="#141A1D"/>
</linearGradient>
<linearGradient id="paint2_linear_17284_23739" x1="511" y1="-5.39584e-07" x2="446.5" y2="111" gradientUnits="userSpaceOnUse">
<stop stop-color="#1F191E"/>
<stop offset="1" stop-color="#141A1D"/>
</linearGradient>
<linearGradient id="paint3_linear_17284_23739" x1="723" y1="-5.39584e-07" x2="658.5" y2="111" gradientUnits="userSpaceOnUse">
<stop stop-color="#1F191E"/>
<stop offset="1" stop-color="#141A1D"/>
</linearGradient>
<linearGradient id="paint4_linear_17284_23739" x1="140" y1="-5.39584e-07" x2="75.5" y2="111" gradientUnits="userSpaceOnUse">
<stop stop-color="#1F191E"/>
<stop offset="1" stop-color="#141A1D"/>
</linearGradient>
<linearGradient id="paint5_linear_17284_23739" x1="352" y1="-5.39584e-07" x2="287.5" y2="111" gradientUnits="userSpaceOnUse">
<stop stop-color="#1F191E"/>
<stop offset="1" stop-color="#141A1D"/>
</linearGradient>
<linearGradient id="paint6_linear_17284_23739" x1="564" y1="-5.39584e-07" x2="499.5" y2="111" gradientUnits="userSpaceOnUse">
<stop stop-color="#1F191E"/>
<stop offset="1" stop-color="#141A1D"/>
</linearGradient>
<linearGradient id="paint7_linear_17284_23739" x1="776" y1="-5.39584e-07" x2="711.5" y2="111" gradientUnits="userSpaceOnUse">
<stop stop-color="#1F191E"/>
<stop offset="1" stop-color="#141A1D"/>
</linearGradient>
<linearGradient id="paint8_linear_17284_23739" x1="193" y1="-5.39584e-07" x2="128.5" y2="111" gradientUnits="userSpaceOnUse">
<stop stop-color="#1F191E"/>
<stop offset="1" stop-color="#141A1D"/>
</linearGradient>
<linearGradient id="paint9_linear_17284_23739" x1="405" y1="-5.39584e-07" x2="340.5" y2="111" gradientUnits="userSpaceOnUse">
<stop stop-color="#1F191E"/>
<stop offset="1" stop-color="#141A1D"/>
</linearGradient>
<linearGradient id="paint10_linear_17284_23739" x1="617" y1="-5.39584e-07" x2="552.5" y2="111" gradientUnits="userSpaceOnUse">
<stop stop-color="#1F191E"/>
<stop offset="1" stop-color="#141A1D"/>
</linearGradient>
<linearGradient id="paint11_linear_17284_23739" x1="829" y1="-5.39584e-07" x2="764.5" y2="111" gradientUnits="userSpaceOnUse">
<stop stop-color="#1F191E"/>
<stop offset="1" stop-color="#141A1D"/>
</linearGradient>
<linearGradient id="paint12_linear_17284_23739" x1="34" y1="-5.39584e-07" x2="-30.5" y2="111" gradientUnits="userSpaceOnUse">
<stop stop-color="#1F191E"/>
<stop offset="1" stop-color="#141A1D"/>
</linearGradient>
<linearGradient id="paint13_linear_17284_23739" x1="246" y1="-5.39584e-07" x2="181.5" y2="111" gradientUnits="userSpaceOnUse">
<stop stop-color="#1F191E"/>
<stop offset="1" stop-color="#141A1D"/>
</linearGradient>
<linearGradient id="paint14_linear_17284_23739" x1="458" y1="-5.39584e-07" x2="393.5" y2="111" gradientUnits="userSpaceOnUse">
<stop stop-color="#1F191E"/>
<stop offset="1" stop-color="#141A1D"/>
</linearGradient>
<linearGradient id="paint15_linear_17284_23739" x1="670" y1="-5.39584e-07" x2="605.5" y2="111" gradientUnits="userSpaceOnUse">
<stop stop-color="#1F191E"/>
<stop offset="1" stop-color="#141A1D"/>
</linearGradient>
<clipPath id="clip0_17284_23739">
<rect width="800" height="111" fill="white"/>
</clipPath>
</defs>
</svg>
