<svg width="24" height="24" viewBox="0 0 24 24" fill="none" xmlns="http://www.w3.org/2000/svg">
<path fill-rule="evenodd" clip-rule="evenodd" d="M3.01556 12.5288C2.90055 10.575 3.42561 8.63689 4.51116 7.00828C5.5967 5.37968 7.18357 4.14934 9.03126 3.50373C10.8789 2.85812 12.8867 2.83242 14.7503 3.43055C16.3533 3.94501 17.7744 4.89687 18.8577 6.17142L20.4642 4.58856L21.045 9.08852L16.5451 8.44992L18.1032 6.91481C16.6465 5.16926 14.4546 4.05858 12.0033 4.05858C7.61748 4.05858 4.0621 7.61396 4.0621 11.9997C4.0621 12.1564 4.06663 12.312 4.07558 12.4664L3.01556 12.5288Z" fill="white"/>
<path fill-rule="evenodd" clip-rule="evenodd" d="M20.9509 11.5086C21.0347 13.4267 20.5029 15.3213 19.4332 16.9157C18.3636 18.5101 16.8121 19.7206 15.0054 20.3703C13.1988 21.0201 11.2317 21.0751 9.39158 20.5273C7.78816 20.05 6.35437 19.1368 5.24648 17.8961L3.79147 19.4606L3.01485 14.9903L7.53832 15.4318L5.96904 17.1192C7.5023 18.8764 9.79184 19.9452 12.3029 19.8354C16.6845 19.644 20.0813 15.9368 19.8898 11.5552L19.8898 11.555L20.9509 11.5086Z" fill="white"/>
<path d="M10 9V15H9.00781V10H8V9H9H10Z" fill="white"/>
<path d="M12 10.4766V10.1758C12 9.95964 12.0469 9.76302 12.1406 9.58594C12.2344 9.40885 12.3724 9.26693 12.5547 9.16016C12.737 9.05339 12.9609 9 13.2266 9C13.5 9 13.7279 9.05339 13.9102 9.16016C14.0951 9.26693 14.2331 9.40885 14.3242 9.58594C14.418 9.76302 14.4648 9.95964 14.4648 10.1758V10.4766C14.4648 10.6875 14.418 10.8815 14.3242 11.0586C14.2331 11.2357 14.0964 11.3776 13.9141 11.4844C13.7318 11.5911 13.5065 11.6445 13.2383 11.6445C12.9674 11.6445 12.7396 11.5911 12.5547 11.4844C12.3724 11.3776 12.2344 11.2357 12.1406 11.0586C12.0469 10.8815 12 10.6875 12 10.4766ZM12.7461 10.1758V10.4766C12.7461 10.5677 12.763 10.6549 12.7969 10.7383C12.8333 10.819 12.888 10.8854 12.9609 10.9375C13.0365 10.987 13.1276 11.0117 13.2344 11.0117C13.3464 11.0117 13.4375 10.987 13.5078 10.9375C13.5781 10.8854 13.6302 10.819 13.6641 10.7383C13.6979 10.6549 13.7148 10.5677 13.7148 10.4766V10.1758C13.7148 10.0794 13.6966 9.99089 13.6602 9.91016C13.6263 9.82682 13.5729 9.76042 13.5 9.71094C13.4297 9.65885 13.3385 9.63281 13.2266 9.63281C13.1224 9.63281 13.0339 9.65885 12.9609 9.71094C12.888 9.76042 12.8333 9.82682 12.7969 9.91016C12.763 9.99089 12.7461 10.0794 12.7461 10.1758ZM14.6875 13.9062V13.6055C14.6875 13.3919 14.7344 13.1966 14.8281 13.0195C14.9245 12.8424 15.0638 12.7005 15.2461 12.5938C15.431 12.487 15.6576 12.4336 15.9258 12.4336C16.1966 12.4336 16.4232 12.487 16.6055 12.5938C16.7878 12.7005 16.9258 12.8424 17.0195 13.0195C17.1133 13.1966 17.1602 13.3919 17.1602 13.6055V13.9062C17.1602 14.1198 17.1133 14.3151 17.0195 14.4922C16.9284 14.6693 16.7917 14.8112 16.6094 14.918C16.4271 15.0247 16.2018 15.0781 15.9336 15.0781C15.6628 15.0781 15.4349 15.0247 15.25 14.918C15.0651 14.8112 14.9245 14.6693 14.8281 14.4922C14.7344 14.3151 14.6875 14.1198 14.6875 13.9062ZM15.4375 13.6055V13.9062C15.4375 14 15.4583 14.0885 15.5 14.1719C15.5417 14.2552 15.599 14.3216 15.6719 14.3711C15.7474 14.4206 15.8346 14.4453 15.9336 14.4453C16.0586 14.4453 16.1562 14.4206 16.2266 14.3711C16.2969 14.3216 16.3451 14.2552 16.3711 14.1719C16.3997 14.0885 16.4141 14 16.4141 13.9062V13.6055C16.4141 13.5117 16.3958 13.4245 16.3594 13.3438C16.3229 13.2604 16.2682 13.194 16.1953 13.1445C16.125 13.0924 16.0352 13.0664 15.9258 13.0664C15.8164 13.0664 15.7253 13.0924 15.6523 13.1445C15.582 13.194 15.5286 13.2604 15.4922 13.3438C15.4557 13.4245 15.4375 13.5117 15.4375 13.6055ZM16.2031 10.125L13.4258 14.5703L12.8789 14.2812L15.6562 9.83594L16.2031 10.125Z" fill="white"/>
</svg>
