<svg width="24" height="24" viewBox="0 0 24 24" fill="none" xmlns="http://www.w3.org/2000/svg">
<path fill-rule="evenodd" clip-rule="evenodd" d="M19.4332 16.9157C20.5029 15.3213 21.0347 13.4267 20.9509 11.5086L19.8898 11.555L19.8898 11.5552C20.0813 15.9368 16.6845 19.644 12.3029 19.8354C9.79184 19.9452 7.5023 18.8764 5.96904 17.1192L7.53832 15.4318L3.01485 14.9903L3.79147 19.4606L5.24648 17.8961C6.35437 19.1368 7.78816 20.05 9.39158 20.5273C11.2317 21.0751 13.1988 21.0201 15.0054 20.3703C16.8121 19.7206 18.3636 18.5101 19.4332 16.9157ZM12.0012 4.05876L12.0012 3.00018C10.9966 3.00008 9.99242 3.16817 9.03157 3.50391C7.18388 4.14952 5.59701 5.37986 4.51146 7.00846C3.42591 8.63707 2.90086 10.5752 3.01587 12.529L4.07589 12.4666C4.06694 12.3122 4.0624 12.1566 4.06241 11.9999C4.0624 7.61493 7.61651 4.06004 12.0012 4.05876Z" fill="white"/>
<path d="M18.8375 7.24552C19.0542 7.02888 19.0542 6.66782 18.8375 6.4623L17.5377 5.16248C17.3322 4.94584 16.9711 4.94584 16.7545 5.16248L15.7324 6.179L17.8154 8.26205L18.8375 7.24552ZM9 12.917V15H11.083L17.2266 8.85085L15.1436 6.76781L9 12.917Z" fill="white"/>
</svg>
