<svg width="22" height="20" viewBox="0 0 22 20" fill="none" xmlns="http://www.w3.org/2000/svg">
<path d="M0 4.4C0.857143 2.9 1.61905 1.5 2.38095 0C8.19048 0 14 0 19.7143 0C20.4762 1.4 21.2381 2.8 22 4.2C19.1429 9.5 16.1905 14.7 13.3333 20C11.7143 20 10.0952 20 8.47619 20C5.71429 14.8 2.85714 9.6 0 4.4ZM14.5714 9.2C13.3333 11.4 12.1905 13.5 11.0476 15.6C10.7619 15.1 10.5714 14.7 10.2857 14.3C10.1905 14.1 10.1905 14 10.2857 13.8C10.9524 12.6 11.7143 11.3 12.381 10.1C12.381 10.1 12.4762 10 12.381 10C11.2381 10 10.0952 10 8.95238 10C8.7619 10.3 8.57143 10.6 8.47619 10.9C8.38095 10.8 8.38095 10.8 8.38095 10.7C7.42857 9.2 6.66667 7.6 5.80952 6.1C5.71429 6 5.71429 6 5.61905 6C4.47619 6 3.42857 6 2.38095 6C2.38095 6 2.28571 6 2.19048 6C4.57143 10.3 6.85714 14.5 9.2381 18.8C9.33333 18.8 9.33333 18.8 9.42857 18.8C10.381 18.8 11.4286 18.8 12.381 18.8C12.6667 18.8 12.7619 18.7 12.9524 18.5C14.6667 15.3 16.381 12.1 18.1905 9C18.6667 8.1 19.1429 7.2 19.7143 6.3C19.8095 6.2 19.8095 6.1 19.9048 6C16.9524 6 14.0952 6 11.2381 6C11.0476 5.7 10.9524 5.5 10.8571 5.2C9.71429 5.2 8.57143 5.2 7.33333 5.2C8.09524 6.5 8.7619 7.8 9.52381 9.1C11.0476 9.2 12.7619 9.2 14.5714 9.2ZM17.1429 1.3C17.0476 1.3 17.0476 1.3 17.0476 1.3C12.4762 1.3 7.80952 1.3 3.2381 1.3C3.14286 1.3 3.04762 1.3 3.04762 1.4C2.47619 2.4 2 3.4 1.42857 4.3C1.42857 4.3 1.33333 4.4 1.42857 4.5C4.95238 4.5 8.38095 4.5 12 4.5C11.8095 4.8 11.7143 5 11.619 5.3C12.7619 5.3 14 5.3 15.1429 5.3C15.8095 3.9 16.4762 2.6 17.1429 1.3ZM20.8571 4.4C20.2857 3.3 19.7143 2.3 19.1429 1.3C19.1429 1.2 19.0476 1.2 18.9524 1.2C18.6667 1.2 18.381 1.2 18.0952 1.2C18 1.2 18 1.2 17.9048 1.3C17.3333 2.3 16.7619 3.3 16.2857 4.3C16.2857 4.3 16.1905 4.4 16.2857 4.4C17.8095 4.4 19.3333 4.4 20.8571 4.4Z" fill="black"/>
<path d="M14.5724 9.2002C12.8581 9.2002 11.1438 9.2002 9.4295 9.2002C8.6676 7.8002 7.90569 6.5002 7.14379 5.2002C8.38188 5.2002 9.52474 5.2002 10.6676 5.2002C10.7628 5.4002 10.9533 5.7002 11.0486 6.0002C13.9057 6.0002 16.8581 6.0002 19.7152 6.0002C19.62 6.1002 19.62 6.2002 19.5247 6.3002C19.0486 7.2002 18.5724 8.1002 18.0009 9.0002C16.1914 12.2002 14.4771 15.3002 12.7628 18.5002C12.6676 18.7002 12.4771 18.8002 12.1914 18.8002C11.239 18.8002 10.1914 18.8002 9.23903 18.8002C9.14379 18.8002 9.14379 18.8002 9.04855 18.8002C6.85807 14.5002 4.57236 10.2002 2.19141 6.0002C2.28664 5.9002 2.28664 6.0002 2.38188 6.0002C3.4295 6.0002 4.47712 6.0002 5.52474 6.0002C5.71522 6.0002 5.71522 6.0002 5.81045 6.1002C6.6676 7.6002 7.52474 9.1002 8.28664 10.7002C8.28664 10.8002 8.38188 10.8002 8.38188 10.9002C8.57236 10.6002 8.76284 10.3002 8.85807 10.0002C10.0009 10.0002 11.1438 10.0002 12.2866 10.0002C12.2866 10.1002 12.2866 10.1002 12.2866 10.1002C11.62 11.4002 10.9533 12.6002 10.1914 13.8002C10.0962 14.0002 10.0962 14.1002 10.1914 14.3002C10.4771 14.7002 10.6676 15.1002 10.9533 15.6002C12.1914 13.4002 13.3343 11.3002 14.5724 9.2002Z" fill="#E11C2A"/>
<path d="M17.143 1.29971C16.3811 2.59971 15.7145 3.89971 14.9526 5.19971C13.8097 5.19971 12.6669 5.19971 11.4288 5.19971C11.524 4.99971 11.7145 4.69971 11.8097 4.39971C8.2859 4.39971 4.76209 4.39971 1.23828 4.39971C1.23828 4.29971 1.23828 4.29971 1.23828 4.19971C1.80971 3.19971 2.2859 2.19971 2.85733 1.29971C2.95257 1.19971 2.95257 1.19971 3.04781 1.19971C7.61923 1.19971 12.2859 1.19971 16.8573 1.19971C17.143 1.19971 17.143 1.19971 17.143 1.29971Z" fill="#E01C2A"/>
<path d="M20.8551 4.39971C19.3313 4.39971 17.8075 4.39971 16.3789 4.39971V4.29971C16.9503 3.29971 17.5218 2.29971 17.998 1.29971C17.998 1.19971 18.0932 1.19971 18.1884 1.19971C18.4741 1.19971 18.7599 1.19971 19.0456 1.19971C19.1408 1.19971 19.1408 1.19971 19.2361 1.29971C19.7122 2.29971 20.2837 3.29971 20.8551 4.39971C20.8551 4.39971 20.8551 4.29971 20.8551 4.39971Z" fill="#DF1C2A"/>
</svg>
