<svg width="19" height="14" viewBox="0 0 19 14" fill="none" xmlns="http://www.w3.org/2000/svg">
<path d="M3.6875 7.53398H6.22883V8.75202H3.6875V10.1956H7.55965V6.30091H4.98824V5.15806H7.55965V3.80469H3.6875V7.53398Z" fill="#DCDEDF"/>
<path d="M10.0313 3.80469H8.63281V10.1956H10.0313V3.80469Z" fill="#DCDEDF"/>
<path d="M13.761 3.80469V6.30091H12.5504V3.80469H11.2422V10.1956H12.5279V7.44376H13.791V10.1956H15.0918V3.80469H13.761Z" fill="#DCDEDF"/>
<path d="M2.59396 6.30078H0V7.69927H2.59396V6.30078Z" fill="#DCDEDF"/>
<path d="M18.7815 6.30029H16.1875V7.69878H18.7815V6.30029Z" fill="#DCDEDF"/>
<path d="M10.0313 0H8.63281V2.59396H10.0313V0Z" fill="#DCDEDF"/>
<path d="M10.0313 11.4062H8.63281V14.0002H10.0313V11.4062Z" fill="#DCDEDF"/>
<path d="M2.59396 6.30078H0V7.69927H2.59396V6.30078Z" fill="#DCDEDF"/>
<path d="M2.59396 6.30078H0V7.69927H2.59396V6.30078Z" fill="#DCDEDF"/>
<path d="M18.7815 6.30029H16.1875V7.69878H18.7815V6.30029Z" fill="#DCDEDF"/>
<path d="M18.7815 6.30029H16.1875V7.69878H18.7815V6.30029Z" fill="#DCDEDF"/>
<path d="M10.0313 0H8.63281V2.59396H10.0313V0Z" fill="#DCDEDF"/>
<path d="M10.0313 0H8.63281V2.59396H10.0313V0Z" fill="#DCDEDF"/>
<path d="M10.0313 11.4062H8.63281V14.0002H10.0313V11.4062Z" fill="#DCDEDF"/>
<path d="M10.0313 11.4062H8.63281V14.0002H10.0313V11.4062Z" fill="#DCDEDF"/>
<path d="M14.8301 1.28613H11.2812V2.59439H14.8301C15.5744 2.59439 16.1835 3.20341 16.1835 3.94777V5.10565H17.4917V3.94777C17.4842 2.48161 16.2962 1.28613 14.8301 1.28613Z" fill="#DCDEDF"/>
<path d="M1.28906 3.69213V5.10565H2.59732V3.69213C2.59732 3.09063 3.08604 2.59439 3.69506 2.59439H7.49954V1.28613H3.69506C2.37176 1.28613 1.28906 2.36883 1.28906 3.69213Z" fill="#DCDEDF"/>
<path d="M16.1835 10.0378C16.1835 10.7821 15.5744 11.3911 14.8301 11.3911H11.2812V12.6994H14.8301C16.2962 12.6994 17.4917 11.5039 17.4917 10.0378V8.87988H16.1835V10.0378Z" fill="#DCDEDF"/>
<path d="M2.59732 10.0378V8.87988H1.28906V10.0378C1.28906 11.5039 2.48454 12.6994 3.95069 12.6994H7.49954V11.3911H3.95069C3.20634 11.3911 2.59732 10.7896 2.59732 10.0378Z" fill="#DCDEDF"/>
</svg>
