<svg width="7" height="10" viewBox="0 0 6 10" fill="none" xmlns="http://www.w3.org/2000/svg">
<path d="M1.78942 0.672491L5.78991 4.53326C5.93389 4.66516 6.00073 4.82243 6.00073 5C6.00073 5.17756 5.92874 5.33991 5.78991 5.47182L1.78942 9.32751C1.67629 9.43912 1.53232 9.5 1.36263 9.5C1.01812 9.5 0.750731 9.23619 0.750731 8.90135C0.750731 8.73901 0.812435 8.58173 0.935844 8.46505L4.5404 5.00507L0.935845 1.53495C0.817578 1.42334 0.750732 1.26606 0.750732 1.09865C0.750732 0.76381 1.01812 0.499999 1.36263 0.499999C1.52718 0.499999 1.6763 0.560879 1.78942 0.672491Z" fill="#6F7F8A"/>
</svg>
