<svg width="14" height="15" viewBox="0 0 14 15" fill="none" xmlns="http://www.w3.org/2000/svg">
<path d="M7.40078 6.40078V4.20078H5.20078V3.00078H7.40078V0.800781H8.60078V3.00078H10.8008V4.20078H8.60078V6.40078H7.40078ZM4.39728 14.4008C4.06628 14.4008 3.78411 14.2829 3.55078 14.0473C3.31745 13.8116 3.20078 13.5283 3.20078 13.1973C3.20078 12.8663 3.31861 12.5841 3.55428 12.3508C3.78995 12.1174 4.07328 12.0008 4.40428 12.0008C4.73528 12.0008 5.01745 12.1186 5.25078 12.3543C5.48411 12.5899 5.60078 12.8733 5.60078 13.2043C5.60078 13.5353 5.48295 13.8174 5.24728 14.0508C5.01161 14.2841 4.72828 14.4008 4.39728 14.4008ZM11.5973 14.4008C11.2663 14.4008 10.9841 14.2829 10.7508 14.0473C10.5174 13.8116 10.4008 13.5283 10.4008 13.1973C10.4008 12.8663 10.5186 12.5841 10.7543 12.3508C10.9899 12.1174 11.2733 12.0008 11.6043 12.0008C11.9353 12.0008 12.2174 12.1186 12.4508 12.3543C12.6841 12.5899 12.8008 12.8733 12.8008 13.2043C12.8008 13.5353 12.6829 13.8174 12.4473 14.0508C12.2116 14.2841 11.9283 14.4008 11.5973 14.4008ZM0.800781 2.80078V1.60078H3.01745L5.60078 7.60078H10.6174L12.5008 3.20078H13.8008L11.7174 8.06745C11.6174 8.28967 11.4702 8.46745 11.2758 8.60078C11.0813 8.73412 10.8619 8.80078 10.6174 8.80078H5.28411L4.58411 10.0008H12.8008V11.2008H4.60078C4.13411 11.2008 3.78411 10.998 3.55078 10.5924C3.31745 10.1869 3.31745 9.78967 3.55078 9.40078L4.41745 7.90078L2.23411 2.80078H0.800781Z" fill="white" fill-opacity="0.5"/>
</svg>
