<svg width="24" height="24" viewBox="0 0 24 24" fill="none" xmlns="http://www.w3.org/2000/svg">
<path d="M2 17.4286C2 18.0714 2.25 18.7143 2.75 19.2286C3.25 19.7429 3.875 20 4.5 20V6C3.875 6 3.25 6.25714 2.75 6.77143C2.25 7.28571 2 7.92857 2 8.57143V17.4286ZM13.875 6H10.125C10.125 5.48571 10.25 4.82857 10.625 4.44286C11 4.05714 11.375 3.92857 12 3.92857C12.5 3.92857 13 4.05714 13.375 4.44286C13.625 4.82857 13.875 5.48571 13.875 6ZM5.75 6V20H18.25V6H15.75C15.75 4.97143 15.375 3.92857 14.625 3.15714C13.875 2.38571 13 2 12 2C11 2 10.125 2.38571 9.375 3.15714C8.625 3.92857 8.25 4.97143 8.25 6H5.75ZM19.5 20C20.125 20 20.75 19.7429 21.25 19.2286C21.75 18.7143 22 18.0714 22 17.4286V8.57143C22 7.92857 21.75 7.28571 21.25 6.77143C20.75 6.25714 20.125 6 19.5 6V20Z" fill="white"/>
</svg>
