<svg width="79" height="11" viewBox="0 0 79 11" fill="none" xmlns="http://www.w3.org/2000/svg">
<path fill-rule="evenodd" clip-rule="evenodd" d="M60.8301 4.45L75.1701 4.45L72.1401 1.41L73.5501 0L79.0001 5.45L73.5501 10.9L72.1401 9.49L75.1701 6.45L63 6.45V6.45312H61V6.45H60.8301V4.45ZM53.1562 4.45313H57.0938V6.45313H53.1562V4.45313ZM49.2188 4.45313V6.45313L45.2812 6.45313V4.45313L49.2188 4.45313ZM41.3438 4.45313V6.45313L37.4062 6.45313V4.45313L41.3438 4.45313ZM33.4688 4.45313V6.45313L29.5312 6.45313V4.45313L33.4688 4.45313ZM25.5938 4.45313V6.45313L21.6562 6.45313V4.45313L25.5938 4.45313ZM17.7188 4.45313V6.45313L13.7813 6.45313L13.7812 4.45313L17.7188 4.45313ZM9.84375 4.45313L9.84375 6.45313L5.90625 6.45313V4.45313L9.84375 4.45313ZM2 5.95313V6.45313H0L0 4.45313H2L2 4.95313H1.96875L1.96875 5.95313H2Z" fill="#6F7F8A"/>
</svg>
