<svg width="102" height="17" viewBox="0 0 102 17" fill="none" xmlns="http://www.w3.org/2000/svg">
<rect x="1" y="8" width="79" height="2" fill="#0D91EC"/>
<rect x="82" y="8" width="3" height="2" fill="#0D91EC"/>
<rect x="99" y="8" width="3" height="2" fill="#0D91EC"/>
<path fill-rule="evenodd" clip-rule="evenodd" d="M85.9258 9.60882H88.6318V11.0009H85.9258V12.6507H90.0488V8.19956H87.3108V6.89342H90.0488V5.34668H85.9258V9.60882ZM92.6843 5.34668H91.1952V12.6507H92.6843V5.34668ZM96.6545 8.19956V5.34668H98.0715V12.6507H96.6865V9.5057H95.3415V12.6507H93.9725V5.34668H95.3655V8.19956H96.6545Z" fill="white"/>
<path fill-rule="evenodd" clip-rule="evenodd" d="M82 8.20094H84.762V9.79924H82V8.20094ZM99.238 8.19997H102V9.79827H99.238V8.19997ZM91.1912 1H92.6803V3.96459H91.1912V1ZM91.1912 14.0351H92.6803V16.9997H91.1912V14.0351Z" fill="#0D91EC"/>
<path fill-rule="evenodd" clip-rule="evenodd" d="M83.3711 6.83498V5.21949C83.3711 3.70712 84.5239 2.46973 85.933 2.46973H89.984V3.96491H85.933C85.2845 3.96491 84.7641 4.53205 84.7641 5.21949V6.83498H83.3711ZM94.0115 2.46973H97.7903C99.3515 2.46973 100.616 3.83602 100.624 5.51166V6.83498H99.2314V5.51166C99.2314 4.66095 98.5829 3.96491 97.7903 3.96491H94.0115V2.46973ZM99.2314 12.4707C99.2314 13.3214 98.5829 14.0174 97.7903 14.0174H94.0115V15.5126H97.7903C99.3515 15.5126 100.624 14.1463 100.624 12.4707V11.1474H99.2314V12.4707ZM84.7641 11.1474V12.4707C84.7641 13.33 85.4126 14.0174 86.2052 14.0174H89.984V15.5126H86.2052C84.644 15.5126 83.3711 14.1463 83.3711 12.4707V11.1474H84.7641Z" fill="white"/>
<path d="M4.08398 9.95898H1.91016V8.58789H4.08398C4.41992 8.58789 4.69336 8.5332 4.9043 8.42383C5.11523 8.31055 5.26953 8.1543 5.36719 7.95508C5.46484 7.75586 5.51367 7.53125 5.51367 7.28125C5.51367 7.02734 5.46484 6.79102 5.36719 6.57227C5.26953 6.35352 5.11523 6.17773 4.9043 6.04492C4.69336 5.91211 4.41992 5.8457 4.08398 5.8457H2.51953V13H0.761719V4.46875H4.08398C4.75195 4.46875 5.32422 4.58984 5.80078 4.83203C6.28125 5.07031 6.64844 5.40039 6.90234 5.82227C7.15625 6.24414 7.2832 6.72656 7.2832 7.26953C7.2832 7.82031 7.15625 8.29688 6.90234 8.69922C6.64844 9.10156 6.28125 9.41211 5.80078 9.63086C5.32422 9.84961 4.75195 9.95898 4.08398 9.95898ZM15.7028 8.53516V8.93945C15.7028 9.58789 15.6149 10.1699 15.4391 10.6855C15.2633 11.2012 15.0153 11.6406 14.695 12.0039C14.3747 12.3633 13.9918 12.6387 13.5465 12.8301C13.1051 13.0215 12.6149 13.1172 12.0758 13.1172C11.5407 13.1172 11.0504 13.0215 10.6051 12.8301C10.1637 12.6387 9.7809 12.3633 9.45668 12.0039C9.13247 11.6406 8.88051 11.2012 8.70082 10.6855C8.52504 10.1699 8.43715 9.58789 8.43715 8.93945V8.53516C8.43715 7.88281 8.52504 7.30078 8.70082 6.78906C8.87661 6.27344 9.12465 5.83398 9.44497 5.4707C9.76918 5.10742 10.152 4.83008 10.5934 4.63867C11.0387 4.44727 11.5289 4.35156 12.0641 4.35156C12.6032 4.35156 13.0934 4.44727 13.5348 4.63867C13.9801 4.83008 14.3629 5.10742 14.6832 5.4707C15.0075 5.83398 15.2575 6.27344 15.4332 6.78906C15.6129 7.30078 15.7028 7.88281 15.7028 8.53516ZM13.9274 8.93945V8.52344C13.9274 8.07031 13.8864 7.67188 13.8043 7.32812C13.7223 6.98438 13.6012 6.69531 13.4411 6.46094C13.2809 6.22656 13.0856 6.05078 12.8551 5.93359C12.6247 5.8125 12.361 5.75195 12.0641 5.75195C11.7672 5.75195 11.5036 5.8125 11.2731 5.93359C11.0465 6.05078 10.8532 6.22656 10.693 6.46094C10.5368 6.69531 10.4176 6.98438 10.3356 7.32812C10.2536 7.67188 10.2125 8.07031 10.2125 8.52344V8.93945C10.2125 9.38867 10.2536 9.78711 10.3356 10.1348C10.4176 10.4785 10.5387 10.7695 10.6989 11.0078C10.859 11.2422 11.0543 11.4199 11.2848 11.541C11.5153 11.6621 11.7789 11.7227 12.0758 11.7227C12.3727 11.7227 12.6364 11.6621 12.8668 11.541C13.0973 11.4199 13.2907 11.2422 13.4469 11.0078C13.6032 10.7695 13.7223 10.4785 13.8043 10.1348C13.8864 9.78711 13.9274 9.38867 13.9274 8.93945ZM19.2239 11.6465L20.9231 4.46875H21.8724L22.0891 5.66406L20.2786 13H19.2591L19.2239 11.6465ZM18.3509 4.46875L19.7571 11.6465L19.6399 13H18.5032L16.6106 4.46875H18.3509ZM23.5833 11.6172L24.972 4.46875H26.7122L24.8255 13H23.6888L23.5833 11.6172ZM22.4056 4.46875L24.1165 11.6758L24.0696 13H23.0501L21.2278 5.6582L21.4622 4.46875H22.4056ZM33.5908 11.6289V13H29.0497V11.6289H33.5908ZM29.624 4.46875V13H27.8661V4.46875H29.624ZM32.999 7.94336V9.2793H29.0497V7.94336H32.999ZM33.5849 4.46875V5.8457H29.0497V4.46875H33.5849ZM34.815 4.46875H37.9967C38.649 4.46875 39.2095 4.56641 39.6783 4.76172C40.151 4.95703 40.5142 5.24609 40.7681 5.62891C41.022 6.01172 41.149 6.48242 41.149 7.04102C41.149 7.49805 41.0709 7.89062 40.9146 8.21875C40.7623 8.54297 40.5455 8.81445 40.2642 9.0332C39.9869 9.24805 39.6607 9.41992 39.2857 9.54883L38.7291 9.8418H35.9635L35.9517 8.4707H38.0084C38.317 8.4707 38.5728 8.41602 38.776 8.30664C38.9791 8.19727 39.1314 8.04492 39.233 7.84961C39.3385 7.6543 39.3912 7.42773 39.3912 7.16992C39.3912 6.89648 39.3404 6.66016 39.2388 6.46094C39.1373 6.26172 38.983 6.10938 38.776 6.00391C38.5689 5.89844 38.3092 5.8457 37.9967 5.8457H36.5728V13H34.815V4.46875ZM39.5845 13L37.6392 9.19727L39.4967 9.18555L41.4654 12.918V13H39.5845ZM48.426 11.6289V13H43.885V11.6289H48.426ZM44.4592 4.46875V13H42.7014V4.46875H44.4592ZM47.8342 7.94336V9.2793H43.885V7.94336H47.8342ZM48.4201 4.46875V5.8457H43.885V4.46875H48.4201ZM52.2694 13H50.412L50.4237 11.6289H52.2694C52.7303 11.6289 53.119 11.5254 53.4354 11.3184C53.7518 11.1074 53.9901 10.8008 54.1503 10.3984C54.3143 9.99609 54.3964 9.50977 54.3964 8.93945V8.52344C54.3964 8.08594 54.3495 7.70117 54.2557 7.36914C54.1659 7.03711 54.0311 6.75781 53.8514 6.53125C53.6717 6.30469 53.451 6.13477 53.1893 6.02148C52.9276 5.9043 52.6268 5.8457 52.287 5.8457H50.3768V4.46875H52.287C52.8573 4.46875 53.3788 4.56641 53.8514 4.76172C54.328 4.95312 54.7401 5.22852 55.0878 5.58789C55.4354 5.94727 55.703 6.37695 55.8905 6.87695C56.0819 7.37305 56.1776 7.92578 56.1776 8.53516V8.93945C56.1776 9.54492 56.0819 10.0977 55.8905 10.5977C55.703 11.0977 55.4354 11.5273 55.0878 11.8867C54.744 12.2422 54.3319 12.5176 53.8514 12.7129C53.3749 12.9043 52.8475 13 52.2694 13ZM51.4081 4.46875V13H49.6503V4.46875H51.4081ZM64.1808 9.25586H61.9894L61.9777 8.04883H63.8175C64.1418 8.04883 64.4074 8.00781 64.6144 7.92578C64.8214 7.83984 64.9757 7.7168 65.0773 7.55664C65.1828 7.39258 65.2355 7.19336 65.2355 6.95898C65.2355 6.69336 65.1847 6.47852 65.0832 6.31445C64.9855 6.15039 64.8312 6.03125 64.6203 5.95703C64.4132 5.88281 64.1457 5.8457 63.8175 5.8457H62.5988V13H60.841V4.46875H63.8175C64.3136 4.46875 64.757 4.51562 65.1476 4.60938C65.5421 4.70312 65.8761 4.8457 66.1496 5.03711C66.423 5.22852 66.632 5.4707 66.7765 5.76367C66.9211 6.05273 66.9933 6.39648 66.9933 6.79492C66.9933 7.14648 66.9132 7.4707 66.7531 7.76758C66.5968 8.06445 66.3488 8.30664 66.0089 8.49414C65.673 8.68164 65.2336 8.78516 64.6906 8.80469L64.1808 9.25586ZM64.1046 13H61.5089L62.1945 11.6289H64.1046C64.4132 11.6289 64.6652 11.5801 64.8605 11.4824C65.0558 11.3809 65.2003 11.2441 65.2941 11.0723C65.3878 10.9004 65.4347 10.7031 65.4347 10.4805C65.4347 10.2305 65.3918 10.0137 65.3058 9.83008C65.2238 9.64648 65.091 9.50586 64.9074 9.4082C64.7238 9.30664 64.4816 9.25586 64.1808 9.25586H62.4875L62.4992 8.04883H64.6086L65.0128 8.52344C65.5324 8.51562 65.9503 8.60742 66.2668 8.79883C66.5871 8.98633 66.8195 9.23047 66.964 9.53125C67.1125 9.83203 67.1867 10.1543 67.1867 10.498C67.1867 11.0449 67.0675 11.5059 66.8293 11.8809C66.591 12.252 66.2414 12.5312 65.7804 12.7188C65.3234 12.9062 64.7648 13 64.1046 13ZM69.5477 4.46875L71.3289 8.35938L73.1102 4.46875H75.0262L72.2195 9.89453V13H70.4383V9.89453L67.6258 4.46875H69.5477Z" fill="white"/>
<rect x="13" y="8" width="3" height="2" fill="#0D91EC"/>
<rect x="54" y="8" width="3" height="2" fill="#0D91EC"/>
</svg>
