<svg width="14" height="14" viewBox="0 0 14 14" fill="none" xmlns="http://www.w3.org/2000/svg">
<path fill-rule="evenodd" clip-rule="evenodd" d="M13.6654 7.64594H10.5392V6.19862H13.6487C13.2732 3.05747 10.7173 0.584913 7.53535 0.333008V2.71898C7.79502 2.77089 8.03807 2.84986 8.2645 2.95588C8.70318 3.15944 9.06677 3.45257 9.35527 3.83527C9.64772 4.21797 9.8552 4.67802 9.97772 5.21542L8.51348 5.49023C8.45815 5.20117 8.34947 4.94672 8.18744 4.72687C8.0254 4.50702 7.82187 4.33603 7.57685 4.21389C7.33182 4.09176 7.05913 4.02662 6.75877 4.01848C6.47027 4.0144 6.21141 4.06122 5.9822 4.15893C5.75298 4.25257 5.57118 4.38692 5.43681 4.56199C5.30244 4.73298 5.23526 4.92636 5.23526 5.14214C5.23526 5.38234 5.32813 5.58794 5.51388 5.75893C5.70358 5.92992 6.00196 6.07648 6.40902 6.19862L7.94439 6.65663C8.68342 6.87648 9.21497 7.17572 9.53904 7.55434C9.86706 7.9289 10.0311 8.42762 10.0311 9.05052C10.0311 9.59607 9.89868 10.0744 9.63389 10.4856C9.3691 10.8968 8.99761 11.2185 8.51941 11.4505C8.22133 11.5926 7.89331 11.6904 7.53535 11.744V13.6663C10.7694 13.4103 13.3567 10.8603 13.6654 7.64594ZM6.10669 13.6287V11.728C5.79795 11.672 5.50945 11.5795 5.24119 11.4505C4.76694 11.2225 4.37766 10.9009 4.07336 10.4856C3.773 10.0704 3.58133 9.57775 3.49833 9.00777L4.90921 8.77571C5.01987 9.27647 5.25699 9.67546 5.62058 9.97266C5.98812 10.2658 6.4268 10.4123 6.93661 10.4123C7.42667 10.4123 7.82978 10.2943 8.14594 10.0582C8.46211 9.81795 8.62019 9.51464 8.62019 9.14823C8.62019 8.89174 8.5451 8.68411 8.39492 8.52533C8.24474 8.36248 8.00367 8.22813 7.6717 8.12228L5.61465 7.46274C4.41718 7.08004 3.81845 6.33094 3.81845 5.21542C3.81845 4.6943 3.93899 4.24036 4.18006 3.85359C4.42509 3.46275 4.76892 3.16352 5.21155 2.95588C5.4807 2.82715 5.77908 2.73831 6.10669 2.68936V0.370649C3.0914 0.771354 0.710116 3.1753 0.348711 6.19862H3.02612V7.64594H0.332031C0.629302 10.7417 3.04011 13.2212 6.10669 13.6287Z" fill="white"/>
</svg>
