<svg width="707" height="28" viewBox="0 0 707 28" fill="none" xmlns="http://www.w3.org/2000/svg">
<rect width="707" height="28" fill="url(#paint0_linear_21425_23320)"/>
<path d="M10.5795 10.2102V9.27273H17.125V10.2102H14.3807V18H13.3239V10.2102H10.5795ZM17.94 18V11.4545H18.9116V12.4432H18.9798C19.0991 12.1193 19.315 11.8565 19.6275 11.6548C19.94 11.4531 20.2923 11.3523 20.6843 11.3523C20.7582 11.3523 20.8505 11.3537 20.9613 11.3565C21.0721 11.3594 21.1559 11.3636 21.2127 11.3693V12.392C21.1786 12.3835 21.1005 12.3707 20.9783 12.3537C20.859 12.3338 20.7326 12.3239 20.5991 12.3239C20.2809 12.3239 19.9968 12.3906 19.7468 12.5241C19.4996 12.6548 19.3036 12.8366 19.1587 13.0696C19.0167 13.2997 18.9457 13.5625 18.9457 13.858V18H17.94ZM24.331 18.1534C23.9162 18.1534 23.5398 18.0753 23.2017 17.919C22.8636 17.7599 22.5952 17.5312 22.3963 17.233C22.1974 16.9318 22.098 16.5682 22.098 16.142C22.098 15.767 22.1719 15.4631 22.3196 15.2301C22.4673 14.9943 22.6648 14.8097 22.9119 14.6761C23.1591 14.5426 23.4318 14.4432 23.7301 14.3778C24.0313 14.3097 24.3338 14.2557 24.6378 14.2159C25.0355 14.1648 25.358 14.1264 25.6051 14.1009C25.8551 14.0724 26.0369 14.0256 26.1506 13.9602C26.267 13.8949 26.3253 13.7812 26.3253 13.6193V13.5852C26.3253 13.1648 26.2102 12.8381 25.9801 12.6051C25.7528 12.3722 25.4077 12.2557 24.9446 12.2557C24.4645 12.2557 24.0881 12.3608 23.8153 12.571C23.5426 12.7812 23.3509 13.0057 23.2401 13.2443L22.2855 12.9034C22.456 12.5057 22.6832 12.196 22.9673 11.9744C23.2543 11.75 23.5668 11.5937 23.9048 11.5057C24.2457 11.4148 24.581 11.3693 24.9105 11.3693C25.1207 11.3693 25.3622 11.3949 25.6349 11.446C25.9105 11.4943 26.1761 11.5952 26.4318 11.7486C26.6903 11.902 26.9048 12.1335 27.0753 12.4432C27.2457 12.7528 27.331 13.1676 27.331 13.6875V18H26.3253V17.1136H26.2741C26.206 17.2557 26.0923 17.4077 25.9332 17.5696C25.7741 17.7315 25.5625 17.8693 25.2983 17.983C25.0341 18.0966 24.7116 18.1534 24.331 18.1534ZM24.4844 17.25C24.8821 17.25 25.2173 17.1719 25.4901 17.0156C25.7656 16.8594 25.973 16.6577 26.1122 16.4105C26.2543 16.1634 26.3253 15.9034 26.3253 15.6307V14.7102C26.2827 14.7614 26.1889 14.8082 26.044 14.8509C25.902 14.8906 25.7372 14.9261 25.5497 14.9574C25.3651 14.9858 25.1847 15.0114 25.0085 15.0341C24.8352 15.054 24.6946 15.071 24.5866 15.0852C24.3253 15.1193 24.081 15.1747 23.8537 15.2514C23.6293 15.3253 23.4474 15.4375 23.3082 15.5881C23.1719 15.7358 23.1037 15.9375 23.1037 16.1932C23.1037 16.5426 23.233 16.8068 23.4915 16.9858C23.7528 17.1619 24.0838 17.25 24.4844 17.25ZM31.6381 18.1364C31.0927 18.1364 30.6112 17.9986 30.1935 17.723C29.7759 17.4446 29.4492 17.0526 29.2134 16.5469C28.9776 16.0384 28.8597 15.4375 28.8597 14.7443C28.8597 14.0568 28.9776 13.4602 29.2134 12.9545C29.4492 12.4489 29.7773 12.0582 30.1978 11.7827C30.6183 11.5071 31.104 11.3693 31.6552 11.3693C32.0813 11.3693 32.418 11.4403 32.6651 11.5824C32.9151 11.7216 33.1055 11.8807 33.2362 12.0597C33.3697 12.2358 33.4734 12.3807 33.5472 12.4943H33.6325V9.27273H34.6381V18H33.6665V16.9943H33.5472C33.4734 17.1136 33.3683 17.2642 33.2319 17.446C33.0955 17.625 32.9009 17.7855 32.6481 17.9276C32.3952 18.0668 32.0586 18.1364 31.6381 18.1364ZM31.7745 17.233C32.1779 17.233 32.5188 17.1278 32.7972 16.9176C33.0756 16.7045 33.2873 16.4105 33.4322 16.0355C33.5771 15.6577 33.6495 15.2216 33.6495 14.7273C33.6495 14.2386 33.5785 13.8111 33.4364 13.4446C33.2944 13.0753 33.0842 12.7884 32.8058 12.5838C32.5273 12.3764 32.1836 12.2727 31.7745 12.2727C31.3484 12.2727 30.9933 12.3821 30.7092 12.6009C30.4279 12.8168 30.2163 13.1108 30.0742 13.483C29.935 13.8523 29.8654 14.267 29.8654 14.7273C29.8654 15.1932 29.9364 15.6165 30.0785 15.9972C30.2234 16.375 30.4364 16.6761 30.7177 16.9006C31.0018 17.1222 31.354 17.233 31.7745 17.233ZM39.364 18.1364C38.7333 18.1364 38.1893 17.9972 37.7319 17.7188C37.2773 17.4375 36.9265 17.0455 36.6793 16.5426C36.435 16.0369 36.3129 15.4489 36.3129 14.7784C36.3129 14.108 36.435 13.517 36.6793 13.0057C36.9265 12.4915 37.2702 12.0909 37.7106 11.804C38.1538 11.5142 38.6708 11.3693 39.2617 11.3693C39.6026 11.3693 39.9393 11.4261 40.2717 11.5398C40.604 11.6534 40.9066 11.8381 41.1793 12.0938C41.4521 12.3466 41.6694 12.6818 41.8313 13.0994C41.9933 13.517 42.0742 14.0312 42.0742 14.642V15.0682H37.0288V14.1989H41.0515C41.0515 13.8295 40.9776 13.5 40.8299 13.2102C40.685 12.9205 40.4776 12.6918 40.2077 12.5241C39.9407 12.3565 39.6254 12.2727 39.2617 12.2727C38.8612 12.2727 38.5146 12.3722 38.2219 12.571C37.9322 12.767 37.7092 13.0227 37.5529 13.3381C37.3967 13.6534 37.3185 13.9915 37.3185 14.3523V14.9318C37.3185 15.4261 37.4038 15.8452 37.5742 16.1889C37.7475 16.5298 37.9876 16.7898 38.2944 16.9688C38.6012 17.1449 38.9577 17.233 39.364 17.233C39.6282 17.233 39.8668 17.196 40.0799 17.1222C40.2958 17.0455 40.4819 16.9318 40.6381 16.7812C40.7944 16.6278 40.9151 16.4375 41.0004 16.2102L41.9719 16.483C41.8697 16.8125 41.6978 17.1023 41.4563 17.3523C41.2148 17.5994 40.9165 17.7926 40.5614 17.9318C40.2063 18.0682 39.8072 18.1364 39.364 18.1364ZM47.9847 14.0625V18H46.979V11.4545H47.9506V12.4773H48.0359C48.1893 12.1449 48.4222 11.8778 48.7347 11.6761C49.0472 11.4716 49.4506 11.3693 49.945 11.3693C50.3881 11.3693 50.7759 11.4602 51.1083 11.642C51.4407 11.821 51.6992 12.0938 51.8839 12.4602C52.0685 12.8239 52.1609 13.2841 52.1609 13.8409V18H51.1552V13.9091C51.1552 13.3949 51.0217 12.9943 50.7546 12.7074C50.4876 12.4176 50.1211 12.2727 49.6552 12.2727C49.3342 12.2727 49.0472 12.3423 48.7944 12.4815C48.5444 12.6207 48.3469 12.8239 48.2021 13.0909C48.0572 13.358 47.9847 13.6818 47.9847 14.0625ZM56.6577 18.1364C56.0668 18.1364 55.5483 17.9957 55.1023 17.7145C54.6591 17.4332 54.3125 17.0398 54.0625 16.5341C53.8153 16.0284 53.6918 15.4375 53.6918 14.7614C53.6918 14.0795 53.8153 13.4844 54.0625 12.9759C54.3125 12.4673 54.6591 12.0724 55.1023 11.7912C55.5483 11.5099 56.0668 11.3693 56.6577 11.3693C57.2486 11.3693 57.7656 11.5099 58.2088 11.7912C58.6548 12.0724 59.0014 12.4673 59.2486 12.9759C59.4986 13.4844 59.6236 14.0795 59.6236 14.7614C59.6236 15.4375 59.4986 16.0284 59.2486 16.5341C59.0014 17.0398 58.6548 17.4332 58.2088 17.7145C57.7656 17.9957 57.2486 18.1364 56.6577 18.1364ZM56.6577 17.233C57.1065 17.233 57.4759 17.1179 57.7656 16.8878C58.0554 16.6577 58.2699 16.3551 58.4091 15.9801C58.5483 15.6051 58.6179 15.1989 58.6179 14.7614C58.6179 14.3239 58.5483 13.9162 58.4091 13.5384C58.2699 13.1605 58.0554 12.8551 57.7656 12.6222C57.4759 12.3892 57.1065 12.2727 56.6577 12.2727C56.2088 12.2727 55.8395 12.3892 55.5497 12.6222C55.2599 12.8551 55.0455 13.1605 54.9062 13.5384C54.767 13.9162 54.6974 14.3239 54.6974 14.7614C54.6974 15.1989 54.767 15.6051 54.9062 15.9801C55.0455 16.3551 55.2599 16.6577 55.5497 16.8878C55.8395 17.1179 56.2088 17.233 56.6577 17.233ZM62.419 18L60.4247 11.4545H61.4815L62.8963 16.4659H62.9645L64.3622 11.4545H65.4361L66.8168 16.4489H66.8849L68.2997 11.4545H69.3565L67.3622 18H66.3736L64.9418 12.9716H64.8395L63.4077 18H62.419ZM76.9759 11.4545V12.3068H73.4474V11.4545H76.9759ZM74.5043 18V10.5511C74.5043 10.1761 74.5923 9.86364 74.7685 9.61364C74.9446 9.36364 75.1733 9.17614 75.4545 9.05114C75.7358 8.92614 76.0327 8.86364 76.3452 8.86364C76.5923 8.86364 76.794 8.88352 76.9503 8.9233C77.1065 8.96307 77.223 9 77.2997 9.03409L77.0099 9.90341C76.9588 9.88636 76.8878 9.86506 76.7969 9.83949C76.7088 9.81392 76.5923 9.80114 76.4474 9.80114C76.1151 9.80114 75.875 9.88494 75.7273 10.0526C75.5824 10.2202 75.5099 10.4659 75.5099 10.7898V18H74.5043ZM80.7749 18.1364C80.1839 18.1364 79.6655 17.9957 79.2195 17.7145C78.7763 17.4332 78.4297 17.0398 78.1797 16.5341C77.9325 16.0284 77.8089 15.4375 77.8089 14.7614C77.8089 14.0795 77.9325 13.4844 78.1797 12.9759C78.4297 12.4673 78.7763 12.0724 79.2195 11.7912C79.6655 11.5099 80.1839 11.3693 80.7749 11.3693C81.3658 11.3693 81.8828 11.5099 82.326 11.7912C82.772 12.0724 83.1186 12.4673 83.3658 12.9759C83.6158 13.4844 83.7408 14.0795 83.7408 14.7614C83.7408 15.4375 83.6158 16.0284 83.3658 16.5341C83.1186 17.0398 82.772 17.4332 82.326 17.7145C81.8828 17.9957 81.3658 18.1364 80.7749 18.1364ZM80.7749 17.233C81.2237 17.233 81.593 17.1179 81.8828 16.8878C82.1726 16.6577 82.3871 16.3551 82.5263 15.9801C82.6655 15.6051 82.7351 15.1989 82.7351 14.7614C82.7351 14.3239 82.6655 13.9162 82.5263 13.5384C82.3871 13.1605 82.1726 12.8551 81.8828 12.6222C81.593 12.3892 81.2237 12.2727 80.7749 12.2727C80.326 12.2727 79.9567 12.3892 79.6669 12.6222C79.3771 12.8551 79.1626 13.1605 79.0234 13.5384C78.8842 13.9162 78.8146 14.3239 78.8146 14.7614C78.8146 15.1989 78.8842 15.6051 79.0234 15.9801C79.1626 16.3551 79.3771 16.6577 79.6669 16.8878C79.9567 17.1179 80.326 17.233 80.7749 17.233ZM85.2759 18V11.4545H86.2475V12.4432H86.3157C86.435 12.1193 86.6509 11.8565 86.9634 11.6548C87.2759 11.4531 87.6282 11.3523 88.0202 11.3523C88.0941 11.3523 88.1864 11.3537 88.2972 11.3565C88.408 11.3594 88.4918 11.3636 88.5487 11.3693V12.392C88.5146 12.3835 88.4364 12.3707 88.3143 12.3537C88.195 12.3338 88.0685 12.3239 87.935 12.3239C87.6168 12.3239 87.3327 12.3906 87.0827 12.5241C86.8356 12.6548 86.6396 12.8366 86.4947 13.0696C86.3526 13.2997 86.2816 13.5625 86.2816 13.858V18H85.2759ZM95.0419 18.1534C94.6271 18.1534 94.2507 18.0753 93.9126 17.919C93.5746 17.7599 93.3061 17.5312 93.1072 17.233C92.9084 16.9318 92.8089 16.5682 92.8089 16.142C92.8089 15.767 92.8828 15.4631 93.0305 15.2301C93.1783 14.9943 93.3757 14.8097 93.6229 14.6761C93.87 14.5426 94.1428 14.4432 94.4411 14.3778C94.7422 14.3097 95.0447 14.2557 95.3487 14.2159C95.7464 14.1648 96.0689 14.1264 96.3161 14.1009C96.5661 14.0724 96.7479 14.0256 96.8615 13.9602C96.978 13.8949 97.0362 13.7812 97.0362 13.6193V13.5852C97.0362 13.1648 96.9212 12.8381 96.6911 12.6051C96.4638 12.3722 96.1186 12.2557 95.6555 12.2557C95.1754 12.2557 94.799 12.3608 94.5263 12.571C94.2536 12.7812 94.0618 13.0057 93.951 13.2443L92.9964 12.9034C93.1669 12.5057 93.3942 12.196 93.6783 11.9744C93.9652 11.75 94.2777 11.5937 94.6158 11.5057C94.9567 11.4148 95.2919 11.3693 95.6214 11.3693C95.8317 11.3693 96.0732 11.3949 96.3459 11.446C96.6214 11.4943 96.8871 11.5952 97.1428 11.7486C97.4013 11.902 97.6158 12.1335 97.7862 12.4432C97.9567 12.7528 98.0419 13.1676 98.0419 13.6875V18H97.0362V17.1136H96.9851C96.9169 17.2557 96.8033 17.4077 96.6442 17.5696C96.4851 17.7315 96.2734 17.8693 96.0092 17.983C95.745 18.0966 95.4226 18.1534 95.0419 18.1534ZM95.1953 17.25C95.593 17.25 95.9283 17.1719 96.201 17.0156C96.4766 16.8594 96.6839 16.6577 96.8232 16.4105C96.9652 16.1634 97.0362 15.9034 97.0362 15.6307V14.7102C96.9936 14.7614 96.8999 14.8082 96.755 14.8509C96.6129 14.8906 96.4482 14.9261 96.2607 14.9574C96.076 14.9858 95.8956 15.0114 95.7195 15.0341C95.5462 15.054 95.4055 15.071 95.2976 15.0852C95.0362 15.1193 94.7919 15.1747 94.5646 15.2514C94.3402 15.3253 94.1584 15.4375 94.0192 15.5881C93.8828 15.7358 93.8146 15.9375 93.8146 16.1932C93.8146 16.5426 93.9439 16.8068 94.2024 16.9858C94.4638 17.1619 94.7947 17.25 95.1953 17.25ZM176.256 18V9.27273H179.307C179.915 9.27273 180.417 9.37784 180.811 9.58807C181.206 9.79545 181.5 10.0753 181.694 10.4276C181.887 10.777 181.983 11.1648 181.983 11.5909C181.983 11.9659 181.917 12.2756 181.783 12.5199C181.652 12.7642 181.479 12.9574 181.263 13.0994C181.05 13.2415 180.819 13.3466 180.569 13.4148V13.5C180.836 13.517 181.104 13.6108 181.374 13.7812C181.644 13.9517 181.87 14.196 182.051 14.5142C182.233 14.8324 182.324 15.2216 182.324 15.6818C182.324 16.1193 182.225 16.5128 182.026 16.8622C181.827 17.2116 181.513 17.4886 181.084 17.6932C180.655 17.8977 180.097 18 179.409 18H176.256ZM177.313 17.0625H179.409C180.1 17.0625 180.59 16.929 180.88 16.6619C181.172 16.392 181.319 16.0653 181.319 15.6818C181.319 15.3864 181.243 15.1136 181.093 14.8636C180.942 14.6108 180.728 14.4091 180.449 14.2585C180.171 14.1051 179.841 14.0284 179.461 14.0284H177.313V17.0625ZM177.313 13.108H179.273C179.591 13.108 179.878 13.0455 180.134 12.9205C180.392 12.7955 180.597 12.6193 180.748 12.392C180.901 12.1648 180.978 11.8977 180.978 11.5909C180.978 11.2074 180.844 10.8821 180.577 10.6151C180.31 10.3452 179.887 10.2102 179.307 10.2102H177.313V13.108ZM186.669 18.1364C186.038 18.1364 185.494 17.9972 185.037 17.7188C184.582 17.4375 184.231 17.0455 183.984 16.5426C183.74 16.0369 183.618 15.4489 183.618 14.7784C183.618 14.108 183.74 13.517 183.984 13.0057C184.231 12.4915 184.575 12.0909 185.015 11.804C185.458 11.5142 185.975 11.3693 186.566 11.3693C186.907 11.3693 187.244 11.4261 187.576 11.5398C187.909 11.6534 188.211 11.8381 188.484 12.0938C188.757 12.3466 188.974 12.6818 189.136 13.0994C189.298 13.517 189.379 14.0312 189.379 14.642V15.0682H184.333V14.1989H188.356C188.356 13.8295 188.282 13.5 188.135 13.2102C187.99 12.9205 187.782 12.6918 187.512 12.5241C187.245 12.3565 186.93 12.2727 186.566 12.2727C186.166 12.2727 185.819 12.3722 185.527 12.571C185.237 12.767 185.014 13.0227 184.858 13.3381C184.701 13.6534 184.623 13.9915 184.623 14.3523V14.9318C184.623 15.4261 184.708 15.8452 184.879 16.1889C185.052 16.5298 185.292 16.7898 185.599 16.9688C185.906 17.1449 186.262 17.233 186.669 17.233C186.933 17.233 187.172 17.196 187.385 17.1222C187.6 17.0455 187.787 16.9318 187.943 16.7812C188.099 16.6278 188.22 16.4375 188.305 16.2102L189.277 16.483C189.174 16.8125 189.002 17.1023 188.761 17.3523C188.52 17.5994 188.221 17.7926 187.866 17.9318C187.511 18.0682 187.112 18.1364 186.669 18.1364ZM195.545 12.9205L194.642 13.1761C194.585 13.0256 194.501 12.8793 194.39 12.7372C194.282 12.5923 194.135 12.473 193.947 12.3793C193.76 12.2855 193.52 12.2386 193.227 12.2386C192.826 12.2386 192.493 12.331 192.225 12.5156C191.961 12.6974 191.829 12.929 191.829 13.2102C191.829 13.4602 191.92 13.6577 192.102 13.8026C192.284 13.9474 192.568 14.0682 192.954 14.1648L193.926 14.4034C194.511 14.5455 194.947 14.7628 195.234 15.0554C195.521 15.3452 195.664 15.7187 195.664 16.1761C195.664 16.5511 195.556 16.8864 195.341 17.1818C195.127 17.4773 194.829 17.7102 194.446 17.8807C194.062 18.0511 193.616 18.1364 193.108 18.1364C192.44 18.1364 191.887 17.9915 191.45 17.7017C191.012 17.4119 190.735 16.9886 190.619 16.4318L191.574 16.1932C191.664 16.5455 191.836 16.8097 192.089 16.9858C192.345 17.1619 192.679 17.25 193.091 17.25C193.559 17.25 193.931 17.1506 194.207 16.9517C194.485 16.75 194.625 16.5085 194.625 16.2273C194.625 16 194.545 15.8097 194.386 15.6562C194.227 15.5 193.983 15.3835 193.653 15.3068L192.562 15.0511C191.963 14.9091 191.522 14.6889 191.241 14.3906C190.963 14.0895 190.824 13.7131 190.824 13.2614C190.824 12.892 190.927 12.5653 191.135 12.2812C191.345 11.9972 191.63 11.7741 191.991 11.6122C192.355 11.4503 192.767 11.3693 193.227 11.3693C193.875 11.3693 194.383 11.5114 194.752 11.7955C195.125 12.0795 195.389 12.4545 195.545 12.9205ZM200.025 11.4545V12.3068H196.633V11.4545H200.025ZM197.621 9.88636H198.627V16.125C198.627 16.4091 198.668 16.6222 198.751 16.7642C198.836 16.9034 198.944 16.9972 199.075 17.0455C199.208 17.0909 199.349 17.1136 199.496 17.1136C199.607 17.1136 199.698 17.108 199.769 17.0966C199.84 17.0824 199.897 17.071 199.94 17.0625L200.144 17.9659C200.076 17.9915 199.981 18.017 199.859 18.0426C199.737 18.071 199.582 18.0852 199.394 18.0852C199.11 18.0852 198.832 18.0241 198.559 17.902C198.289 17.7798 198.065 17.5938 197.886 17.3438C197.71 17.0938 197.621 16.7784 197.621 16.3977V9.88636ZM209.549 12.9205L208.646 13.1761C208.589 13.0256 208.505 12.8793 208.394 12.7372C208.286 12.5923 208.138 12.473 207.951 12.3793C207.763 12.2855 207.523 12.2386 207.231 12.2386C206.83 12.2386 206.496 12.331 206.229 12.5156C205.965 12.6974 205.833 12.929 205.833 13.2102C205.833 13.4602 205.924 13.6577 206.106 13.8026C206.288 13.9474 206.572 14.0682 206.958 14.1648L207.93 14.4034C208.515 14.5455 208.951 14.7628 209.238 15.0554C209.525 15.3452 209.668 15.7187 209.668 16.1761C209.668 16.5511 209.56 16.8864 209.344 17.1818C209.131 17.4773 208.833 17.7102 208.45 17.8807C208.066 18.0511 207.62 18.1364 207.112 18.1364C206.444 18.1364 205.891 17.9915 205.454 17.7017C205.016 17.4119 204.739 16.9886 204.623 16.4318L205.577 16.1932C205.668 16.5455 205.84 16.8097 206.093 16.9858C206.349 17.1619 206.683 17.25 207.094 17.25C207.563 17.25 207.935 17.1506 208.211 16.9517C208.489 16.75 208.629 16.5085 208.629 16.2273C208.629 16 208.549 15.8097 208.39 15.6562C208.231 15.5 207.987 15.3835 207.657 15.3068L206.566 15.0511C205.967 14.9091 205.526 14.6889 205.245 14.3906C204.967 14.0895 204.827 13.7131 204.827 13.2614C204.827 12.892 204.931 12.5653 205.138 12.2812C205.349 11.9972 205.634 11.7741 205.995 11.6122C206.359 11.4503 206.771 11.3693 207.231 11.3693C207.879 11.3693 208.387 11.5114 208.756 11.7955C209.129 12.0795 209.393 12.4545 209.549 12.9205ZM212.12 15.6136L212.103 14.3693H212.307L215.171 11.4545H216.415L213.364 14.5398H213.279L212.12 15.6136ZM211.182 18V9.27273H212.188V18H211.182ZM215.341 18L212.784 14.7614L213.5 14.0625L216.62 18H215.341ZM217.71 18V11.4545H218.715V18H217.71ZM218.221 10.3636C218.025 10.3636 217.856 10.2969 217.714 10.1634C217.575 10.0298 217.505 9.86932 217.505 9.68182C217.505 9.49432 217.575 9.33381 217.714 9.20028C217.856 9.06676 218.025 9 218.221 9C218.417 9 218.585 9.06676 218.724 9.20028C218.866 9.33381 218.937 9.49432 218.937 9.68182C218.937 9.86932 218.866 10.0298 218.724 10.1634C218.585 10.2969 218.417 10.3636 218.221 10.3636ZM221.563 14.0625V18H220.557V11.4545H221.529V12.4773H221.614C221.767 12.1449 222 11.8778 222.313 11.6761C222.625 11.4716 223.029 11.3693 223.523 11.3693C223.966 11.3693 224.354 11.4602 224.686 11.642C225.019 11.821 225.277 12.0938 225.462 12.4602C225.647 12.8239 225.739 13.2841 225.739 13.8409V18H224.733V13.9091C224.733 13.3949 224.6 12.9943 224.333 12.7074C224.066 12.4176 223.699 12.2727 223.233 12.2727C222.912 12.2727 222.625 12.3423 222.373 12.4815C222.123 12.6207 221.925 12.8239 221.78 13.0909C221.635 13.358 221.563 13.6818 221.563 14.0625ZM233.798 11.4545V12.3068H230.406V11.4545H233.798ZM231.395 9.88636H232.401V16.125C232.401 16.4091 232.442 16.6222 232.524 16.7642C232.609 16.9034 232.717 16.9972 232.848 17.0455C232.982 17.0909 233.122 17.1136 233.27 17.1136C233.381 17.1136 233.472 17.108 233.543 17.0966C233.614 17.0824 233.67 17.071 233.713 17.0625L233.918 17.9659C233.849 17.9915 233.754 18.017 233.632 18.0426C233.51 18.071 233.355 18.0852 233.168 18.0852C232.884 18.0852 232.605 18.0241 232.332 17.902C232.063 17.7798 231.838 17.5938 231.659 17.3438C231.483 17.0938 231.395 16.7784 231.395 16.3977V9.88636ZM235.311 18V11.4545H236.283V12.4432H236.351C236.47 12.1193 236.686 11.8565 236.999 11.6548C237.311 11.4531 237.663 11.3523 238.055 11.3523C238.129 11.3523 238.222 11.3537 238.332 11.3565C238.443 11.3594 238.527 11.3636 238.584 11.3693V12.392C238.55 12.3835 238.472 12.3707 238.349 12.3537C238.23 12.3338 238.104 12.3239 237.97 12.3239C237.652 12.3239 237.368 12.3906 237.118 12.5241C236.871 12.6548 236.675 12.8366 236.53 13.0696C236.388 13.2997 236.317 13.5625 236.317 13.858V18H235.311ZM241.702 18.1534C241.287 18.1534 240.911 18.0753 240.573 17.919C240.235 17.7599 239.966 17.5312 239.767 17.233C239.569 16.9318 239.469 16.5682 239.469 16.142C239.469 15.767 239.543 15.4631 239.691 15.2301C239.838 14.9943 240.036 14.8097 240.283 14.6761C240.53 14.5426 240.803 14.4432 241.101 14.3778C241.402 14.3097 241.705 14.2557 242.009 14.2159C242.407 14.1648 242.729 14.1264 242.976 14.1009C243.226 14.0724 243.408 14.0256 243.522 13.9602C243.638 13.8949 243.696 13.7812 243.696 13.6193V13.5852C243.696 13.1648 243.581 12.8381 243.351 12.6051C243.124 12.3722 242.779 12.2557 242.316 12.2557C241.836 12.2557 241.459 12.3608 241.186 12.571C240.914 12.7812 240.722 13.0057 240.611 13.2443L239.657 12.9034C239.827 12.5057 240.054 12.196 240.338 11.9744C240.625 11.75 240.938 11.5937 241.276 11.5057C241.617 11.4148 241.952 11.3693 242.282 11.3693C242.492 11.3693 242.733 11.3949 243.006 11.446C243.282 11.4943 243.547 11.5952 243.803 11.7486C244.061 11.902 244.276 12.1335 244.446 12.4432C244.617 12.7528 244.702 13.1676 244.702 13.6875V18H243.696V17.1136H243.645C243.577 17.2557 243.463 17.4077 243.304 17.5696C243.145 17.7315 242.934 17.8693 242.669 17.983C242.405 18.0966 242.083 18.1534 241.702 18.1534ZM241.855 17.25C242.253 17.25 242.588 17.1719 242.861 17.0156C243.137 16.8594 243.344 16.6577 243.483 16.4105C243.625 16.1634 243.696 15.9034 243.696 15.6307V14.7102C243.654 14.7614 243.56 14.8082 243.415 14.8509C243.273 14.8906 243.108 14.9261 242.921 14.9574C242.736 14.9858 242.556 15.0114 242.38 15.0341C242.206 15.054 242.066 15.071 241.958 15.0852C241.696 15.1193 241.452 15.1747 241.225 15.2514C241 15.3253 240.819 15.4375 240.679 15.5881C240.543 15.7358 240.475 15.9375 240.475 16.1932C240.475 16.5426 240.604 16.8068 240.863 16.9858C241.124 17.1619 241.455 17.25 241.855 17.25ZM249.009 18.1364C248.464 18.1364 247.982 17.9986 247.565 17.723C247.147 17.4446 246.82 17.0526 246.585 16.5469C246.349 16.0384 246.231 15.4375 246.231 14.7443C246.231 14.0568 246.349 13.4602 246.585 12.9545C246.82 12.4489 247.148 12.0582 247.569 11.7827C247.989 11.5071 248.475 11.3693 249.026 11.3693C249.452 11.3693 249.789 11.4403 250.036 11.5824C250.286 11.7216 250.477 11.8807 250.607 12.0597C250.741 12.2358 250.844 12.3807 250.918 12.4943H251.004V9.27273H252.009V18H251.038V16.9943H250.918C250.844 17.1136 250.739 17.2642 250.603 17.446C250.467 17.625 250.272 17.7855 250.019 17.9276C249.766 18.0668 249.43 18.1364 249.009 18.1364ZM249.146 17.233C249.549 17.233 249.89 17.1278 250.168 16.9176C250.447 16.7045 250.658 16.4105 250.803 16.0355C250.948 15.6577 251.021 15.2216 251.021 14.7273C251.021 14.2386 250.95 13.8111 250.808 13.4446C250.665 13.0753 250.455 12.7884 250.177 12.5838C249.898 12.3764 249.555 12.2727 249.146 12.2727C248.719 12.2727 248.364 12.3821 248.08 12.6009C247.799 12.8168 247.587 13.1108 247.445 13.483C247.306 13.8523 247.237 14.267 247.237 14.7273C247.237 15.1932 247.308 15.6165 247.45 15.9972C247.594 16.375 247.808 16.6761 248.089 16.9006C248.373 17.1222 248.725 17.233 249.146 17.233ZM253.991 18V11.4545H254.996V18H253.991ZM254.502 10.3636C254.306 10.3636 254.137 10.2969 253.995 10.1634C253.856 10.0298 253.786 9.86932 253.786 9.68182C253.786 9.49432 253.856 9.33381 253.995 9.20028C254.137 9.06676 254.306 9 254.502 9C254.698 9 254.866 9.06676 255.005 9.20028C255.147 9.33381 255.218 9.49432 255.218 9.68182C255.218 9.86932 255.147 10.0298 255.005 10.1634C254.866 10.2969 254.698 10.3636 254.502 10.3636ZM257.844 14.0625V18H256.838V11.4545H257.81V12.4773H257.895C258.049 12.1449 258.282 11.8778 258.594 11.6761C258.907 11.4716 259.31 11.3693 259.804 11.3693C260.248 11.3693 260.635 11.4602 260.968 11.642C261.3 11.821 261.559 12.0938 261.743 12.4602C261.928 12.8239 262.02 13.2841 262.02 13.8409V18H261.015V13.9091C261.015 13.3949 260.881 12.9943 260.614 12.7074C260.347 12.4176 259.98 12.2727 259.515 12.2727C259.194 12.2727 258.907 12.3423 258.654 12.4815C258.404 12.6207 258.206 12.8239 258.061 13.0909C257.917 13.358 257.844 13.6818 257.844 14.0625ZM266.5 20.5909C266.014 20.5909 265.597 20.5284 265.247 20.4034C264.898 20.2812 264.607 20.1193 264.374 19.9176C264.143 19.7188 263.96 19.5057 263.824 19.2784L264.625 18.7159C264.716 18.8352 264.831 18.9716 264.97 19.125C265.109 19.2812 265.3 19.4162 265.541 19.5298C265.786 19.6463 266.105 19.7045 266.5 19.7045C267.028 19.7045 267.464 19.5767 267.808 19.321C268.152 19.0653 268.324 18.6648 268.324 18.1193V16.7898H268.239C268.165 16.9091 268.06 17.0568 267.923 17.233C267.79 17.4062 267.597 17.5611 267.344 17.6974C267.094 17.831 266.756 17.8977 266.33 17.8977C265.801 17.8977 265.327 17.7727 264.906 17.5227C264.489 17.2727 264.158 16.9091 263.913 16.4318C263.672 15.9545 263.551 15.375 263.551 14.6932C263.551 14.0227 263.669 13.4389 263.905 12.9418C264.141 12.4418 264.469 12.0554 264.889 11.7827C265.31 11.5071 265.795 11.3693 266.347 11.3693C266.773 11.3693 267.111 11.4403 267.361 11.5824C267.614 11.7216 267.807 11.8807 267.94 12.0597C268.077 12.2358 268.182 12.3807 268.256 12.4943H268.358V11.4545H269.33V18.1875C269.33 18.75 269.202 19.2074 268.946 19.5597C268.693 19.9148 268.352 20.1747 267.923 20.3395C267.497 20.5071 267.023 20.5909 266.5 20.5909ZM266.466 16.9943C266.869 16.9943 267.21 16.902 267.489 16.7173C267.767 16.5327 267.979 16.267 268.124 15.9205C268.268 15.5739 268.341 15.1591 268.341 14.6761C268.341 14.2045 268.27 13.7884 268.128 13.4276C267.986 13.0668 267.776 12.7841 267.497 12.5795C267.219 12.375 266.875 12.2727 266.466 12.2727C266.04 12.2727 265.685 12.3807 265.401 12.5966C265.119 12.8125 264.908 13.1023 264.766 13.4659C264.626 13.8295 264.557 14.233 264.557 14.6761C264.557 15.1307 264.628 15.5327 264.77 15.8821C264.915 16.2287 265.128 16.5014 265.409 16.7003C265.693 16.8963 266.045 16.9943 266.466 16.9943ZM279.182 12.9205L278.278 13.1761C278.222 13.0256 278.138 12.8793 278.027 12.7372C277.919 12.5923 277.771 12.473 277.584 12.3793C277.396 12.2855 277.156 12.2386 276.864 12.2386C276.463 12.2386 276.129 12.331 275.862 12.5156C275.598 12.6974 275.466 12.929 275.466 13.2102C275.466 13.4602 275.557 13.6577 275.739 13.8026C275.92 13.9474 276.205 14.0682 276.591 14.1648L277.562 14.4034C278.148 14.5455 278.584 14.7628 278.871 15.0554C279.158 15.3452 279.301 15.7187 279.301 16.1761C279.301 16.5511 279.193 16.8864 278.977 17.1818C278.764 17.4773 278.466 17.7102 278.082 17.8807C277.699 18.0511 277.253 18.1364 276.744 18.1364C276.077 18.1364 275.524 17.9915 275.087 17.7017C274.649 17.4119 274.372 16.9886 274.256 16.4318L275.21 16.1932C275.301 16.5455 275.473 16.8097 275.726 16.9858C275.982 17.1619 276.315 17.25 276.727 17.25C277.196 17.25 277.568 17.1506 277.844 16.9517C278.122 16.75 278.261 16.5085 278.261 16.2273C278.261 16 278.182 15.8097 278.023 15.6562C277.864 15.5 277.619 15.3835 277.29 15.3068L276.199 15.0511C275.599 14.9091 275.159 14.6889 274.878 14.3906C274.599 14.0895 274.46 13.7131 274.46 13.2614C274.46 12.892 274.564 12.5653 274.771 12.2812C274.982 11.9972 275.267 11.7741 275.628 11.6122C275.991 11.4503 276.403 11.3693 276.864 11.3693C277.511 11.3693 278.02 11.5114 278.389 11.7955C278.761 12.0795 279.026 12.4545 279.182 12.9205ZM280.815 18V11.4545H281.821V18H280.815ZM281.326 10.3636C281.13 10.3636 280.961 10.2969 280.819 10.1634C280.68 10.0298 280.61 9.86932 280.61 9.68182C280.61 9.49432 280.68 9.33381 280.819 9.20028C280.961 9.06676 281.13 9 281.326 9C281.522 9 281.69 9.06676 281.829 9.20028C281.971 9.33381 282.042 9.49432 282.042 9.68182C282.042 9.86932 281.971 10.0298 281.829 10.1634C281.69 10.2969 281.522 10.3636 281.326 10.3636ZM286.509 11.4545V12.3068H283.117V11.4545H286.509ZM284.106 9.88636H285.112V16.125C285.112 16.4091 285.153 16.6222 285.235 16.7642C285.32 16.9034 285.428 16.9972 285.559 17.0455C285.692 17.0909 285.833 17.1136 285.981 17.1136C286.092 17.1136 286.183 17.108 286.254 17.0966C286.325 17.0824 286.381 17.071 286.424 17.0625L286.629 17.9659C286.56 17.9915 286.465 18.017 286.343 18.0426C286.221 18.071 286.066 18.0852 285.879 18.0852C285.594 18.0852 285.316 18.0241 285.043 17.902C284.773 17.7798 284.549 17.5938 284.37 17.3438C284.194 17.0938 284.106 16.7784 284.106 16.3977V9.88636ZM290.696 18.1364C290.065 18.1364 289.521 17.9972 289.064 17.7188C288.609 17.4375 288.259 17.0455 288.011 16.5426C287.767 16.0369 287.645 15.4489 287.645 14.7784C287.645 14.108 287.767 13.517 288.011 13.0057C288.259 12.4915 288.602 12.0909 289.043 11.804C289.486 11.5142 290.003 11.3693 290.594 11.3693C290.935 11.3693 291.271 11.4261 291.604 11.5398C291.936 11.6534 292.239 11.8381 292.511 12.0938C292.784 12.3466 293.001 12.6818 293.163 13.0994C293.325 13.517 293.406 14.0312 293.406 14.642V15.0682H288.361V14.1989H292.384C292.384 13.8295 292.31 13.5 292.162 13.2102C292.017 12.9205 291.81 12.6918 291.54 12.5241C291.273 12.3565 290.957 12.2727 290.594 12.2727C290.193 12.2727 289.847 12.3722 289.554 12.571C289.264 12.767 289.041 13.0227 288.885 13.3381C288.729 13.6534 288.651 13.9915 288.651 14.3523V14.9318C288.651 15.4261 288.736 15.8452 288.906 16.1889C289.08 16.5298 289.32 16.7898 289.626 16.9688C289.933 17.1449 290.29 17.233 290.696 17.233C290.96 17.233 291.199 17.196 291.412 17.1222C291.628 17.0455 291.814 16.9318 291.97 16.7812C292.126 16.6278 292.247 16.4375 292.332 16.2102L293.304 16.483C293.202 16.8125 293.03 17.1023 292.788 17.3523C292.547 17.5994 292.249 17.7926 291.893 17.9318C291.538 18.0682 291.139 18.1364 290.696 18.1364ZM299.794 18L297.8 11.4545H298.857L300.271 16.4659H300.339L301.737 11.4545H302.811L304.192 16.4489H304.26L305.675 11.4545H306.732L304.737 18H303.749L302.317 12.9716H302.214L300.783 18H299.794ZM308.061 18V11.4545H309.067V18H308.061ZM308.572 10.3636C308.376 10.3636 308.207 10.2969 308.065 10.1634C307.926 10.0298 307.857 9.86932 307.857 9.68182C307.857 9.49432 307.926 9.33381 308.065 9.20028C308.207 9.06676 308.376 9 308.572 9C308.768 9 308.936 9.06676 309.075 9.20028C309.217 9.33381 309.288 9.49432 309.288 9.68182C309.288 9.86932 309.217 10.0298 309.075 10.1634C308.936 10.2969 308.768 10.3636 308.572 10.3636ZM313.755 11.4545V12.3068H310.363V11.4545H313.755ZM311.352 9.88636H312.358V16.125C312.358 16.4091 312.399 16.6222 312.481 16.7642C312.566 16.9034 312.674 16.9972 312.805 17.0455C312.939 17.0909 313.079 17.1136 313.227 17.1136C313.338 17.1136 313.429 17.108 313.5 17.0966C313.571 17.0824 313.627 17.071 313.67 17.0625L313.875 17.9659C313.806 17.9915 313.711 18.017 313.589 18.0426C313.467 18.071 313.312 18.0852 313.125 18.0852C312.841 18.0852 312.562 18.0241 312.289 17.902C312.02 17.7798 311.795 17.5938 311.616 17.3438C311.44 17.0938 311.352 16.7784 311.352 16.3977V9.88636ZM316.414 14.0625V18H315.409V9.27273H316.414V12.4773H316.5C316.653 12.1392 316.883 11.8707 317.19 11.6719C317.5 11.4702 317.912 11.3693 318.426 11.3693C318.872 11.3693 319.262 11.4588 319.598 11.6378C319.933 11.8139 320.193 12.0852 320.377 12.4517C320.565 12.8153 320.659 13.2784 320.659 13.8409V18H319.653V13.9091C319.653 13.3892 319.518 12.9872 319.248 12.7031C318.981 12.4162 318.61 12.2727 318.136 12.2727C317.806 12.2727 317.511 12.3423 317.25 12.4815C316.991 12.6207 316.787 12.8239 316.636 13.0909C316.488 13.358 316.414 13.6818 316.414 14.0625ZM401.839 9.27273H402.896V15.0511C402.896 15.6477 402.755 16.1804 402.474 16.6491C402.195 17.1151 401.802 17.483 401.293 17.7528C400.785 18.0199 400.188 18.1534 399.504 18.1534C398.819 18.1534 398.222 18.0199 397.714 17.7528C397.205 17.483 396.81 17.1151 396.529 16.6491C396.251 16.1804 396.112 15.6477 396.112 15.0511V9.27273H397.168V14.9659C397.168 15.392 397.262 15.7713 397.45 16.1037C397.637 16.4332 397.904 16.6932 398.251 16.8835C398.6 17.071 399.018 17.1648 399.504 17.1648C399.989 17.1648 400.407 17.071 400.756 16.8835C401.106 16.6932 401.373 16.4332 401.558 16.1037C401.745 15.7713 401.839 15.392 401.839 14.9659V9.27273ZM404.87 20.4545V11.4545H405.841V12.4943H405.961C406.034 12.3807 406.137 12.2358 406.267 12.0597C406.401 11.8807 406.591 11.7216 406.838 11.5824C407.088 11.4403 407.426 11.3693 407.853 11.3693C408.404 11.3693 408.89 11.5071 409.31 11.7827C409.73 12.0582 410.059 12.4489 410.294 12.9545C410.53 13.4602 410.648 14.0568 410.648 14.7443C410.648 15.4375 410.53 16.0384 410.294 16.5469C410.059 17.0526 409.732 17.4446 409.314 17.723C408.897 17.9986 408.415 18.1364 407.87 18.1364C407.449 18.1364 407.113 18.0668 406.86 17.9276C406.607 17.7855 406.412 17.625 406.276 17.446C406.14 17.2642 406.034 17.1136 405.961 16.9943H405.875V20.4545H404.87ZM405.858 14.7273C405.858 15.2216 405.931 15.6577 406.076 16.0355C406.221 16.4105 406.432 16.7045 406.711 16.9176C406.989 17.1278 407.33 17.233 407.733 17.233C408.154 17.233 408.505 17.1222 408.786 16.9006C409.07 16.6761 409.283 16.375 409.425 15.9972C409.57 15.6165 409.642 15.1932 409.642 14.7273C409.642 14.267 409.571 13.8523 409.429 13.483C409.29 13.1108 409.078 12.8168 408.794 12.6009C408.513 12.3821 408.159 12.2727 407.733 12.2727C407.324 12.2727 406.98 12.3764 406.702 12.5838C406.424 12.7884 406.213 13.0753 406.071 13.4446C405.929 13.8111 405.858 14.2386 405.858 14.7273ZM418.404 11.4545V12.3068H415.012V11.4545H418.404ZM416 9.88636H417.006V16.125C417.006 16.4091 417.047 16.6222 417.13 16.7642C417.215 16.9034 417.323 16.9972 417.453 17.0455C417.587 17.0909 417.728 17.1136 417.875 17.1136C417.986 17.1136 418.077 17.108 418.148 17.0966C418.219 17.0824 418.276 17.071 418.319 17.0625L418.523 17.9659C418.455 17.9915 418.36 18.017 418.238 18.0426C418.115 18.071 417.961 18.0852 417.773 18.0852C417.489 18.0852 417.211 18.0241 416.938 17.902C416.668 17.7798 416.444 17.5938 416.265 17.3438C416.088 17.0938 416 16.7784 416 16.3977V9.88636ZM422.505 18.1364C421.914 18.1364 421.396 17.9957 420.95 17.7145C420.507 17.4332 420.16 17.0398 419.91 16.5341C419.663 16.0284 419.539 15.4375 419.539 14.7614C419.539 14.0795 419.663 13.4844 419.91 12.9759C420.16 12.4673 420.507 12.0724 420.95 11.7912C421.396 11.5099 421.914 11.3693 422.505 11.3693C423.096 11.3693 423.613 11.5099 424.056 11.7912C424.502 12.0724 424.849 12.4673 425.096 12.9759C425.346 13.4844 425.471 14.0795 425.471 14.7614C425.471 15.4375 425.346 16.0284 425.096 16.5341C424.849 17.0398 424.502 17.4332 424.056 17.7145C423.613 17.9957 423.096 18.1364 422.505 18.1364ZM422.505 17.233C422.954 17.233 423.324 17.1179 423.613 16.8878C423.903 16.6577 424.118 16.3551 424.257 15.9801C424.396 15.6051 424.466 15.1989 424.466 14.7614C424.466 14.3239 424.396 13.9162 424.257 13.5384C424.118 13.1605 423.903 12.8551 423.613 12.6222C423.324 12.3892 422.954 12.2727 422.505 12.2727C422.056 12.2727 421.687 12.3892 421.397 12.6222C421.108 12.8551 420.893 13.1605 420.754 13.5384C420.615 13.9162 420.545 14.3239 420.545 14.7614C420.545 15.1989 420.615 15.6051 420.754 15.9801C420.893 16.3551 421.108 16.6577 421.397 16.8878C421.687 17.1179 422.056 17.233 422.505 17.233ZM463.123 18.1364C462.577 18.1364 462.096 17.9986 461.678 17.723C461.26 17.4446 460.934 17.0526 460.698 16.5469C460.462 16.0384 460.344 15.4375 460.344 14.7443C460.344 14.0568 460.462 13.4602 460.698 12.9545C460.934 12.4489 461.262 12.0582 461.682 11.7827C462.103 11.5071 462.588 11.3693 463.14 11.3693C463.566 11.3693 463.902 11.4403 464.15 11.5824C464.4 11.7216 464.59 11.8807 464.721 12.0597C464.854 12.2358 464.958 12.3807 465.032 12.4943H465.117V9.27273H466.123V18H465.151V16.9943H465.032C464.958 17.1136 464.853 17.2642 464.716 17.446C464.58 17.625 464.385 17.7855 464.132 17.9276C463.88 18.0668 463.543 18.1364 463.123 18.1364ZM463.259 17.233C463.662 17.233 464.003 17.1278 464.282 16.9176C464.56 16.7045 464.772 16.4105 464.917 16.0355C465.061 15.6577 465.134 15.2216 465.134 14.7273C465.134 14.2386 465.063 13.8111 464.921 13.4446C464.779 13.0753 464.569 12.7884 464.29 12.5838C464.012 12.3764 463.668 12.2727 463.259 12.2727C462.833 12.2727 462.478 12.3821 462.194 12.6009C461.912 12.8168 461.701 13.1108 461.559 13.483C461.419 13.8523 461.35 14.267 461.35 14.7273C461.35 15.1932 461.421 15.6165 461.563 15.9972C461.708 16.375 461.921 16.6761 462.202 16.9006C462.486 17.1222 462.838 17.233 463.259 17.233ZM468.104 18V11.4545H469.11V18H468.104ZM468.615 10.3636C468.419 10.3636 468.25 10.2969 468.108 10.1634C467.969 10.0298 467.9 9.86932 467.9 9.68182C467.9 9.49432 467.969 9.33381 468.108 9.20028C468.25 9.06676 468.419 9 468.615 9C468.811 9 468.979 9.06676 469.118 9.20028C469.26 9.33381 469.331 9.49432 469.331 9.68182C469.331 9.86932 469.26 10.0298 469.118 10.1634C468.979 10.2969 468.811 10.3636 468.615 10.3636ZM475.588 12.9205L474.685 13.1761C474.628 13.0256 474.544 12.8793 474.433 12.7372C474.325 12.5923 474.178 12.473 473.99 12.3793C473.803 12.2855 473.562 12.2386 473.27 12.2386C472.869 12.2386 472.536 12.331 472.268 12.5156C472.004 12.6974 471.872 12.929 471.872 13.2102C471.872 13.4602 471.963 13.6577 472.145 13.8026C472.327 13.9474 472.611 14.0682 472.997 14.1648L473.969 14.4034C474.554 14.5455 474.99 14.7628 475.277 15.0554C475.564 15.3452 475.707 15.7187 475.707 16.1761C475.707 16.5511 475.599 16.8864 475.384 17.1818C475.17 17.4773 474.872 17.7102 474.489 17.8807C474.105 18.0511 473.659 18.1364 473.151 18.1364C472.483 18.1364 471.93 17.9915 471.493 17.7017C471.055 17.4119 470.778 16.9886 470.662 16.4318L471.616 16.1932C471.707 16.5455 471.879 16.8097 472.132 16.9858C472.388 17.1619 472.722 17.25 473.134 17.25C473.602 17.25 473.974 17.1506 474.25 16.9517C474.528 16.75 474.668 16.5085 474.668 16.2273C474.668 16 474.588 15.8097 474.429 15.6562C474.27 15.5 474.026 15.3835 473.696 15.3068L472.605 15.0511C472.006 14.9091 471.565 14.6889 471.284 14.3906C471.006 14.0895 470.866 13.7131 470.866 13.2614C470.866 12.892 470.97 12.5653 471.178 12.2812C471.388 11.9972 471.673 11.7741 472.034 11.6122C472.398 11.4503 472.81 11.3693 473.27 11.3693C473.918 11.3693 474.426 11.5114 474.795 11.7955C475.168 12.0795 475.432 12.4545 475.588 12.9205ZM479.88 18.1364C479.267 18.1364 478.738 17.9915 478.295 17.7017C477.852 17.4119 477.511 17.0128 477.272 16.5043C477.034 15.9957 476.914 15.4148 476.914 14.7614C476.914 14.0966 477.037 13.5099 477.281 13.0014C477.528 12.4901 477.872 12.0909 478.312 11.804C478.755 11.5142 479.272 11.3693 479.863 11.3693C480.324 11.3693 480.738 11.4545 481.108 11.625C481.477 11.7955 481.779 12.0341 482.015 12.3409C482.251 12.6477 482.397 13.0057 482.454 13.4148H481.449C481.372 13.1165 481.201 12.8523 480.937 12.6222C480.676 12.3892 480.324 12.2727 479.88 12.2727C479.488 12.2727 479.145 12.375 478.849 12.5795C478.556 12.7812 478.328 13.0668 478.163 13.4361C478.001 13.8026 477.92 14.233 477.92 14.7273C477.92 15.233 478 15.6733 478.159 16.0483C478.321 16.4233 478.548 16.7145 478.841 16.9219C479.136 17.1293 479.483 17.233 479.88 17.233C480.142 17.233 480.379 17.1875 480.592 17.0966C480.805 17.0057 480.985 16.875 481.133 16.7045C481.281 16.5341 481.386 16.3295 481.449 16.0909H482.454C482.397 16.4773 482.257 16.8253 482.032 17.1349C481.811 17.4418 481.517 17.6861 481.15 17.8679C480.787 18.0469 480.363 18.1364 479.88 18.1364ZM486.583 18.1364C485.993 18.1364 485.474 17.9957 485.028 17.7145C484.585 17.4332 484.238 17.0398 483.988 16.5341C483.741 16.0284 483.618 15.4375 483.618 14.7614C483.618 14.0795 483.741 13.4844 483.988 12.9759C484.238 12.4673 484.585 12.0724 485.028 11.7912C485.474 11.5099 485.993 11.3693 486.583 11.3693C487.174 11.3693 487.691 11.5099 488.135 11.7912C488.581 12.0724 488.927 12.4673 489.174 12.9759C489.424 13.4844 489.549 14.0795 489.549 14.7614C489.549 15.4375 489.424 16.0284 489.174 16.5341C488.927 17.0398 488.581 17.4332 488.135 17.7145C487.691 17.9957 487.174 18.1364 486.583 18.1364ZM486.583 17.233C487.032 17.233 487.402 17.1179 487.691 16.8878C487.981 16.6577 488.196 16.3551 488.335 15.9801C488.474 15.6051 488.544 15.1989 488.544 14.7614C488.544 14.3239 488.474 13.9162 488.335 13.5384C488.196 13.1605 487.981 12.8551 487.691 12.6222C487.402 12.3892 487.032 12.2727 486.583 12.2727C486.135 12.2727 485.765 12.3892 485.475 12.6222C485.186 12.8551 484.971 13.1605 484.832 13.5384C484.693 13.9162 484.623 14.3239 484.623 14.7614C484.623 15.1989 484.693 15.6051 484.832 15.9801C484.971 16.3551 485.186 16.6577 485.475 16.8878C485.765 17.1179 486.135 17.233 486.583 17.233ZM495.21 15.3239V11.4545H496.215V18H495.21V16.892H495.141C494.988 17.2244 494.749 17.5071 494.425 17.7401C494.102 17.9702 493.692 18.0852 493.198 18.0852C492.789 18.0852 492.425 17.9957 492.107 17.8168C491.789 17.6349 491.539 17.3622 491.357 16.9986C491.175 16.6321 491.085 16.1705 491.085 15.6136V11.4545H492.09V15.5455C492.09 16.0227 492.224 16.4034 492.491 16.6875C492.761 16.9716 493.104 17.1136 493.522 17.1136C493.772 17.1136 494.026 17.0497 494.285 16.9219C494.546 16.794 494.765 16.598 494.941 16.3338C495.12 16.0696 495.21 15.733 495.21 15.3239ZM499.063 14.0625V18H498.057V11.4545H499.029V12.4773H499.114C499.267 12.1449 499.5 11.8778 499.813 11.6761C500.125 11.4716 500.529 11.3693 501.023 11.3693C501.466 11.3693 501.854 11.4602 502.186 11.642C502.519 11.821 502.777 12.0938 502.962 12.4602C503.147 12.8239 503.239 13.2841 503.239 13.8409V18H502.233V13.9091C502.233 13.3949 502.1 12.9943 501.833 12.7074C501.566 12.4176 501.199 12.2727 500.733 12.2727C500.412 12.2727 500.125 12.3423 499.873 12.4815C499.623 12.6207 499.425 12.8239 499.28 13.0909C499.135 13.358 499.063 13.6818 499.063 14.0625ZM507.923 11.4545V12.3068H504.531V11.4545H507.923ZM505.52 9.88636H506.526V16.125C506.526 16.4091 506.567 16.6222 506.649 16.7642C506.734 16.9034 506.842 16.9972 506.973 17.0455C507.107 17.0909 507.247 17.1136 507.395 17.1136C507.506 17.1136 507.597 17.108 507.668 17.0966C507.739 17.0824 507.795 17.071 507.838 17.0625L508.043 17.9659C507.974 17.9915 507.879 18.017 507.757 18.0426C507.635 18.071 507.48 18.0852 507.293 18.0852C507.009 18.0852 506.73 18.0241 506.457 17.902C506.188 17.7798 505.963 17.5938 505.784 17.3438C505.608 17.0938 505.52 16.7784 505.52 16.3977V9.88636ZM515.47 18.1364C514.879 18.1364 514.361 17.9957 513.915 17.7145C513.472 17.4332 513.125 17.0398 512.875 16.5341C512.628 16.0284 512.504 15.4375 512.504 14.7614C512.504 14.0795 512.628 13.4844 512.875 12.9759C513.125 12.4673 513.472 12.0724 513.915 11.7912C514.361 11.5099 514.879 11.3693 515.47 11.3693C516.061 11.3693 516.578 11.5099 517.021 11.7912C517.467 12.0724 517.814 12.4673 518.061 12.9759C518.311 13.4844 518.436 14.0795 518.436 14.7614C518.436 15.4375 518.311 16.0284 518.061 16.5341C517.814 17.0398 517.467 17.4332 517.021 17.7145C516.578 17.9957 516.061 18.1364 515.47 18.1364ZM515.47 17.233C515.919 17.233 516.288 17.1179 516.578 16.8878C516.868 16.6577 517.082 16.3551 517.222 15.9801C517.361 15.6051 517.43 15.1989 517.43 14.7614C517.43 14.3239 517.361 13.9162 517.222 13.5384C517.082 13.1605 516.868 12.8551 516.578 12.6222C516.288 12.3892 515.919 12.2727 515.47 12.2727C515.021 12.2727 514.652 12.3892 514.362 12.6222C514.072 12.8551 513.858 13.1605 513.719 13.5384C513.58 13.9162 513.51 14.3239 513.51 14.7614C513.51 15.1989 513.58 15.6051 513.719 15.9801C513.858 16.3551 514.072 16.6577 514.362 16.8878C514.652 17.1179 515.021 17.233 515.47 17.233ZM520.977 14.0625V18H519.971V11.4545H520.943V12.4773H521.028C521.181 12.1449 521.414 11.8778 521.727 11.6761C522.039 11.4716 522.443 11.3693 522.937 11.3693C523.38 11.3693 523.768 11.4602 524.1 11.642C524.433 11.821 524.691 12.0938 524.876 12.4602C525.061 12.8239 525.153 13.2841 525.153 13.8409V18H524.147V13.9091C524.147 13.3949 524.014 12.9943 523.747 12.7074C523.48 12.4176 523.113 12.2727 522.647 12.2727C522.326 12.2727 522.039 12.3423 521.787 12.4815C521.537 12.6207 521.339 12.8239 521.194 13.0909C521.049 13.358 520.977 13.6818 520.977 14.0625ZM532.292 18.1534C531.877 18.1534 531.501 18.0753 531.163 17.919C530.825 17.7599 530.556 17.5312 530.357 17.233C530.158 16.9318 530.059 16.5682 530.059 16.142C530.059 15.767 530.133 15.4631 530.281 15.2301C530.428 14.9943 530.626 14.8097 530.873 14.6761C531.12 14.5426 531.393 14.4432 531.691 14.3778C531.992 14.3097 532.295 14.2557 532.599 14.2159C532.996 14.1648 533.319 14.1264 533.566 14.1009C533.816 14.0724 533.998 14.0256 534.112 13.9602C534.228 13.8949 534.286 13.7812 534.286 13.6193V13.5852C534.286 13.1648 534.171 12.8381 533.941 12.6051C533.714 12.3722 533.369 12.2557 532.906 12.2557C532.425 12.2557 532.049 12.3608 531.776 12.571C531.504 12.7812 531.312 13.0057 531.201 13.2443L530.246 12.9034C530.417 12.5057 530.644 12.196 530.928 11.9744C531.215 11.75 531.528 11.5937 531.866 11.5057C532.207 11.4148 532.542 11.3693 532.871 11.3693C533.082 11.3693 533.323 11.3949 533.596 11.446C533.871 11.4943 534.137 11.5952 534.393 11.7486C534.651 11.902 534.866 12.1335 535.036 12.4432C535.207 12.7528 535.292 13.1676 535.292 13.6875V18H534.286V17.1136H534.235C534.167 17.2557 534.053 17.4077 533.894 17.5696C533.735 17.7315 533.523 17.8693 533.259 17.983C532.995 18.0966 532.673 18.1534 532.292 18.1534ZM532.445 17.25C532.843 17.25 533.178 17.1719 533.451 17.0156C533.727 16.8594 533.934 16.6577 534.073 16.4105C534.215 16.1634 534.286 15.9034 534.286 15.6307V14.7102C534.244 14.7614 534.15 14.8082 534.005 14.8509C533.863 14.8906 533.698 14.9261 533.511 14.9574C533.326 14.9858 533.146 15.0114 532.969 15.0341C532.796 15.054 532.656 15.071 532.548 15.0852C532.286 15.1193 532.042 15.1747 531.815 15.2514C531.59 15.3253 531.408 15.4375 531.269 15.5881C531.133 15.7358 531.065 15.9375 531.065 16.1932C531.065 16.5426 531.194 16.8068 531.452 16.9858C531.714 17.1619 532.045 17.25 532.445 17.25ZM538.133 9.27273V18H537.127V9.27273H538.133ZM540.981 9.27273V18H539.975V9.27273H540.981ZM550.834 12.9205L549.931 13.1761C549.874 13.0256 549.79 12.8793 549.679 12.7372C549.571 12.5923 549.424 12.473 549.236 12.3793C549.049 12.2855 548.809 12.2386 548.516 12.2386C548.115 12.2386 547.782 12.331 547.515 12.5156C547.25 12.6974 547.118 12.929 547.118 13.2102C547.118 13.4602 547.209 13.6577 547.391 13.8026C547.573 13.9474 547.857 14.0682 548.243 14.1648L549.215 14.4034C549.8 14.5455 550.236 14.7628 550.523 15.0554C550.81 15.3452 550.953 15.7187 550.953 16.1761C550.953 16.5511 550.846 16.8864 550.63 17.1818C550.417 17.4773 550.118 17.7102 549.735 17.8807C549.351 18.0511 548.905 18.1364 548.397 18.1364C547.729 18.1364 547.176 17.9915 546.739 17.7017C546.301 17.4119 546.025 16.9886 545.908 16.4318L546.863 16.1932C546.953 16.5455 547.125 16.8097 547.378 16.9858C547.634 17.1619 547.968 17.25 548.38 17.25C548.848 17.25 549.221 17.1506 549.496 16.9517C549.775 16.75 549.914 16.5085 549.914 16.2273C549.914 16 549.834 15.8097 549.675 15.6562C549.516 15.5 549.272 15.3835 548.942 15.3068L547.851 15.0511C547.252 14.9091 546.811 14.6889 546.53 14.3906C546.252 14.0895 546.113 13.7131 546.113 13.2614C546.113 12.892 546.216 12.5653 546.424 12.2812C546.634 11.9972 546.919 11.7741 547.28 11.6122C547.644 11.4503 548.056 11.3693 548.516 11.3693C549.164 11.3693 549.672 11.5114 550.042 11.7955C550.414 12.0795 550.678 12.4545 550.834 12.9205ZM553.405 15.6136L553.388 14.3693H553.592L556.456 11.4545H557.7L554.649 14.5398H554.564L553.405 15.6136ZM552.467 18V9.27273H553.473V18H552.467ZM556.626 18L554.07 14.7614L554.786 14.0625L557.905 18H556.626ZM558.995 18V11.4545H560V18H558.995ZM559.506 10.3636C559.31 10.3636 559.141 10.2969 558.999 10.1634C558.86 10.0298 558.79 9.86932 558.79 9.68182C558.79 9.49432 558.86 9.33381 558.999 9.20028C559.141 9.06676 559.31 9 559.506 9C559.702 9 559.87 9.06676 560.009 9.20028C560.151 9.33381 560.222 9.49432 560.222 9.68182C560.222 9.86932 560.151 10.0298 560.009 10.1634C559.87 10.2969 559.702 10.3636 559.506 10.3636ZM562.848 14.0625V18H561.842V11.4545H562.814V12.4773H562.899C563.053 12.1449 563.286 11.8778 563.598 11.6761C563.911 11.4716 564.314 11.3693 564.808 11.3693C565.251 11.3693 565.639 11.4602 565.972 11.642C566.304 11.821 566.563 12.0938 566.747 12.4602C566.932 12.8239 567.024 13.2841 567.024 13.8409V18H566.018V13.9091C566.018 13.3949 565.885 12.9943 565.618 12.7074C565.351 12.4176 564.984 12.2727 564.518 12.2727C564.197 12.2727 563.911 12.3423 563.658 12.4815C563.408 12.6207 563.21 12.8239 563.065 13.0909C562.92 13.358 562.848 13.6818 562.848 14.0625ZM573.498 12.9205L572.595 13.1761C572.538 13.0256 572.454 12.8793 572.343 12.7372C572.235 12.5923 572.088 12.473 571.9 12.3793C571.713 12.2855 571.473 12.2386 571.18 12.2386C570.779 12.2386 570.446 12.331 570.179 12.5156C569.914 12.6974 569.782 12.929 569.782 13.2102C569.782 13.4602 569.873 13.6577 570.055 13.8026C570.237 13.9474 570.521 14.0682 570.907 14.1648L571.879 14.4034C572.464 14.5455 572.9 14.7628 573.187 15.0554C573.474 15.3452 573.618 15.7187 573.618 16.1761C573.618 16.5511 573.51 16.8864 573.294 17.1818C573.081 17.4773 572.782 17.7102 572.399 17.8807C572.015 18.0511 571.569 18.1364 571.061 18.1364C570.393 18.1364 569.841 17.9915 569.403 17.7017C568.966 17.4119 568.689 16.9886 568.572 16.4318L569.527 16.1932C569.618 16.5455 569.789 16.8097 570.042 16.9858C570.298 17.1619 570.632 17.25 571.044 17.25C571.512 17.25 571.885 17.1506 572.16 16.9517C572.439 16.75 572.578 16.5085 572.578 16.2273C572.578 16 572.498 15.8097 572.339 15.6562C572.18 15.5 571.936 15.3835 571.606 15.3068L570.515 15.0511C569.916 14.9091 569.475 14.6889 569.194 14.3906C568.916 14.0895 568.777 13.7131 568.777 13.2614C568.777 12.892 568.88 12.5653 569.088 12.2812C569.298 11.9972 569.583 11.7741 569.944 11.6122C570.308 11.4503 570.72 11.3693 571.18 11.3693C571.828 11.3693 572.336 11.5114 572.706 11.7955C573.078 12.0795 573.342 12.4545 573.498 12.9205Z" fill="white"/>
<path d="M106.082 19.0909V8.18182H106.781V19.0909H106.082ZM107.599 12C107.576 11.7159 107.47 11.4943 107.279 11.3352C107.092 11.1761 106.806 11.0966 106.423 11.0966C106.179 11.0966 105.978 11.1264 105.822 11.1861C105.669 11.2429 105.555 11.321 105.481 11.4205C105.407 11.5199 105.369 11.6335 105.366 11.7614C105.36 11.8665 105.379 11.9616 105.422 12.0469C105.467 12.1293 105.538 12.2045 105.635 12.2727C105.731 12.3381 105.855 12.3977 106.005 12.4517C106.156 12.5057 106.335 12.554 106.542 12.5966L107.258 12.75C107.741 12.8523 108.154 12.9872 108.498 13.1548C108.842 13.3224 109.123 13.5199 109.342 13.7472C109.561 13.9716 109.721 14.2244 109.824 14.5057C109.929 14.7869 109.983 15.0937 109.985 15.4261C109.983 16 109.839 16.4858 109.555 16.8835C109.271 17.2812 108.865 17.5838 108.336 17.7912C107.811 17.9986 107.179 18.1023 106.44 18.1023C105.681 18.1023 105.02 17.9901 104.454 17.7656C103.892 17.5412 103.454 17.196 103.142 16.7301C102.832 16.2614 102.676 15.6619 102.673 14.9318H104.923C104.937 15.1989 105.004 15.4233 105.123 15.6051C105.243 15.7869 105.41 15.9247 105.626 16.0185C105.845 16.1122 106.105 16.1591 106.406 16.1591C106.659 16.1591 106.87 16.1278 107.041 16.0653C107.211 16.0028 107.341 15.9162 107.429 15.8054C107.517 15.6946 107.562 15.5682 107.565 15.4261C107.562 15.2926 107.518 15.1761 107.433 15.0767C107.35 14.9744 107.214 14.8835 107.024 14.804C106.833 14.7216 106.576 14.6449 106.252 14.5739L105.383 14.3864C104.61 14.2187 104.001 13.9389 103.555 13.5469C103.112 13.152 102.892 12.6136 102.895 11.9318C102.892 11.3778 103.039 10.8935 103.338 10.4787C103.639 10.0611 104.055 9.7358 104.586 9.50284C105.12 9.26989 105.733 9.15341 106.423 9.15341C107.127 9.15341 107.737 9.27131 108.251 9.5071C108.765 9.7429 109.162 10.0753 109.44 10.5043C109.721 10.9304 109.863 11.429 109.866 12H107.599ZM114.398 18.1193C113.728 18.1193 113.132 18.0014 112.613 17.7656C112.096 17.527 111.688 17.1989 111.39 16.7812C111.094 16.3636 110.944 15.8835 110.938 15.3409H113.239C113.248 15.642 113.364 15.8821 113.588 16.0611C113.816 16.2401 114.086 16.3295 114.398 16.3295C114.64 16.3295 114.853 16.2784 115.037 16.1761C115.222 16.071 115.367 15.9233 115.472 15.733C115.577 15.5426 115.628 15.321 115.625 15.0682C115.628 14.8125 115.577 14.5909 115.472 14.4034C115.367 14.2131 115.222 14.0668 115.037 13.9645C114.853 13.8594 114.64 13.8068 114.398 13.8068C114.148 13.8068 113.917 13.8679 113.703 13.9901C113.493 14.1094 113.338 14.2756 113.239 14.4886L111.159 14.0795L111.5 9.27273H117.364V11.1648H113.444L113.273 13.0909H113.324C113.461 12.8267 113.696 12.608 114.032 12.4347C114.367 12.2585 114.756 12.1705 115.199 12.1705C115.719 12.1705 116.182 12.2912 116.588 12.5327C116.998 12.7741 117.32 13.108 117.556 13.5341C117.794 13.9574 117.912 14.446 117.909 15C117.912 15.608 117.767 16.1477 117.475 16.6193C117.185 17.0881 116.777 17.456 116.252 17.723C115.726 17.9872 115.108 18.1193 114.398 18.1193ZM121.305 18V9.27273H123.657V12.5966H123.691C123.776 12.375 123.901 12.1719 124.066 11.9872C124.231 11.7997 124.435 11.6506 124.68 11.5398C124.924 11.4261 125.208 11.3693 125.532 11.3693C125.964 11.3693 126.374 11.4844 126.763 11.7145C127.156 11.9446 127.474 12.3068 127.718 12.8011C127.965 13.2955 128.089 13.9375 128.089 14.7273C128.089 15.483 127.971 16.1094 127.735 16.6065C127.502 17.1037 127.19 17.4744 126.798 17.7188C126.408 17.9631 125.981 18.0852 125.515 18.0852C125.208 18.0852 124.934 18.0355 124.692 17.9361C124.454 17.8338 124.249 17.696 124.079 17.5227C123.911 17.3466 123.782 17.1477 123.691 16.9261H123.64V18H121.305ZM123.606 14.7273C123.606 15.0455 123.647 15.321 123.729 15.554C123.815 15.7841 123.934 15.9631 124.087 16.0909C124.244 16.2159 124.43 16.2784 124.646 16.2784C124.862 16.2784 125.045 16.2173 125.195 16.0952C125.349 15.9702 125.465 15.7926 125.545 15.5625C125.627 15.3295 125.668 15.0511 125.668 14.7273C125.668 14.4034 125.627 14.1264 125.545 13.8963C125.465 13.6634 125.349 13.4858 125.195 13.3636C125.045 13.2386 124.862 13.1761 124.646 13.1761C124.43 13.1761 124.244 13.2386 124.087 13.3636C123.934 13.4858 123.815 13.6634 123.729 13.8963C123.647 14.1264 123.606 14.4034 123.606 14.7273ZM132.227 18.1193C131.516 18.1193 130.908 17.9787 130.403 17.6974C129.897 17.4134 129.509 17.0185 129.239 16.5128C128.969 16.0043 128.835 15.4148 128.835 14.7443C128.835 14.0739 128.969 13.4858 129.239 12.9801C129.509 12.4716 129.897 12.0767 130.403 11.7955C130.908 11.5114 131.516 11.3693 132.227 11.3693C132.937 11.3693 133.545 11.5114 134.05 11.7955C134.556 12.0767 134.944 12.4716 135.214 12.9801C135.484 13.4858 135.619 14.0739 135.619 14.7443C135.619 15.4148 135.484 16.0043 135.214 16.5128C134.944 17.0185 134.556 17.4134 134.05 17.6974C133.545 17.9787 132.937 18.1193 132.227 18.1193ZM132.244 16.3807C132.442 16.3807 132.614 16.3139 132.759 16.1804C132.904 16.0469 133.016 15.8565 133.096 15.6094C133.175 15.3622 133.215 15.0682 133.215 14.7273C133.215 14.3835 133.175 14.0895 133.096 13.8452C133.016 13.598 132.904 13.4077 132.759 13.2741C132.614 13.1406 132.442 13.0739 132.244 13.0739C132.033 13.0739 131.853 13.1406 131.702 13.2741C131.552 13.4077 131.437 13.598 131.357 13.8452C131.278 14.0895 131.238 14.3835 131.238 14.7273C131.238 15.0682 131.278 15.3622 131.357 15.6094C131.437 15.8565 131.552 16.0469 131.702 16.1804C131.853 16.3139 132.033 16.3807 132.244 16.3807ZM138.925 14.3182V18H136.573V11.4545H138.806V12.6989H138.874C139.016 12.2841 139.266 11.9588 139.624 11.723C139.985 11.4872 140.406 11.3693 140.886 11.3693C141.349 11.3693 141.751 11.4759 142.092 11.6889C142.435 11.8991 142.701 12.1889 142.888 12.5582C143.079 12.9276 143.173 13.3494 143.17 13.8239V18H140.817V14.3182C140.82 13.9943 140.738 13.7401 140.57 13.5554C140.406 13.3707 140.175 13.2784 139.88 13.2784C139.687 13.2784 139.518 13.321 139.373 13.4062C139.231 13.4886 139.121 13.608 139.045 13.7642C138.968 13.9176 138.928 14.1023 138.925 14.3182ZM148.575 15.1364V11.4545H150.928V18H148.695V16.7557H148.626C148.484 17.1733 148.236 17.5 147.881 17.7358C147.526 17.9687 147.104 18.0852 146.615 18.0852C146.158 18.0852 145.757 17.9801 145.413 17.7699C145.072 17.5597 144.807 17.2699 144.616 16.9006C144.429 16.5312 144.334 16.108 144.331 15.6307V11.4545H146.683V15.1364C146.686 15.4602 146.768 15.7145 146.93 15.8991C147.095 16.0838 147.325 16.1761 147.621 16.1761C147.817 16.1761 147.986 16.1349 148.128 16.0526C148.273 15.9673 148.384 15.848 148.46 15.6946C148.54 15.5384 148.578 15.3523 148.575 15.1364ZM158.107 13.5852H155.942C155.931 13.4517 155.884 13.3366 155.801 13.2401C155.719 13.1435 155.613 13.0696 155.482 13.0185C155.354 12.9645 155.212 12.9375 155.056 12.9375C154.854 12.9375 154.681 12.9744 154.536 13.0483C154.391 13.1222 154.32 13.2273 154.323 13.3636C154.32 13.4602 154.361 13.5497 154.446 13.6321C154.534 13.7145 154.703 13.7784 154.953 13.8239L156.283 14.0625C156.953 14.1847 157.452 14.3906 157.779 14.6804C158.108 14.9673 158.275 15.3523 158.277 15.8352C158.275 16.3011 158.135 16.706 157.86 17.0497C157.587 17.3906 157.213 17.6548 156.739 17.8423C156.267 18.027 155.729 18.1193 155.124 18.1193C154.124 18.1193 153.341 17.9148 152.776 17.5057C152.213 17.0966 151.9 16.5568 151.834 15.8864H154.169C154.201 16.0937 154.303 16.2543 154.476 16.3679C154.652 16.4787 154.874 16.5341 155.141 16.5341C155.357 16.5341 155.534 16.4972 155.674 16.4233C155.816 16.3494 155.888 16.2443 155.891 16.108C155.888 15.983 155.826 15.8835 155.703 15.8097C155.584 15.7358 155.397 15.6761 155.141 15.6307L153.982 15.4261C153.314 15.3097 152.814 15.0881 152.482 14.7614C152.15 14.4347 151.985 14.0142 151.988 13.5C151.985 13.0455 152.104 12.6605 152.346 12.3452C152.59 12.027 152.938 11.7855 153.39 11.6207C153.844 11.4531 154.382 11.3693 155.005 11.3693C155.951 11.3693 156.696 11.5653 157.242 11.9574C157.79 12.3494 158.078 12.892 158.107 13.5852ZM327.902 9.27273V18H325.55V9.27273H327.902ZM332.254 18.1193C331.544 18.1193 330.936 17.9787 330.43 17.6974C329.924 17.4134 329.537 17.0185 329.267 16.5128C328.997 16.0043 328.862 15.4148 328.862 14.7443C328.862 14.0739 328.997 13.4858 329.267 12.9801C329.537 12.4716 329.924 12.0767 330.43 11.7955C330.936 11.5114 331.544 11.3693 332.254 11.3693C332.964 11.3693 333.572 11.5114 334.078 11.7955C334.583 12.0767 334.971 12.4716 335.241 12.9801C335.511 13.4858 335.646 14.0739 335.646 14.7443C335.646 15.4148 335.511 16.0043 335.241 16.5128C334.971 17.0185 334.583 17.4134 334.078 17.6974C333.572 17.9787 332.964 18.1193 332.254 18.1193ZM332.271 16.3807C332.47 16.3807 332.642 16.3139 332.787 16.1804C332.931 16.0469 333.044 15.8565 333.123 15.6094C333.203 15.3622 333.243 15.0682 333.243 14.7273C333.243 14.3835 333.203 14.0895 333.123 13.8452C333.044 13.598 332.931 13.4077 332.787 13.2741C332.642 13.1406 332.47 13.0739 332.271 13.0739C332.061 13.0739 331.88 13.1406 331.73 13.2741C331.579 13.4077 331.464 13.598 331.385 13.8452C331.305 14.0895 331.265 14.3835 331.265 14.7273C331.265 15.0682 331.305 15.3622 331.385 15.6094C331.464 15.8565 331.579 16.0469 331.73 16.1804C331.88 16.3139 332.061 16.3807 332.271 16.3807ZM337.642 18L336.006 11.4545H338.358L339.108 15.4432H339.159L339.995 11.4545H342.279L343.148 15.4091H343.199L343.915 11.4545H346.267L344.631 18H342.091L341.171 14.4886H341.103L340.182 18H337.642ZM353.294 11.4545V13.1591H348.914V11.4545H353.294ZM349.749 18V11.267C349.749 10.7273 349.846 10.2798 350.039 9.92472C350.232 9.5696 350.505 9.30398 350.857 9.12784C351.209 8.9517 351.624 8.86364 352.101 8.86364C352.4 8.86364 352.689 8.88636 352.971 8.93182C353.255 8.97727 353.465 9.01705 353.601 9.05114L353.26 10.7386C353.175 10.7131 353.076 10.6932 352.962 10.679C352.848 10.6619 352.749 10.6534 352.664 10.6534C352.442 10.6534 352.293 10.7003 352.216 10.794C352.14 10.8878 352.101 11.0114 352.101 11.1648V18H349.749ZM357.139 18.1193C356.44 18.1193 355.838 17.9858 355.332 17.7188C354.83 17.4489 354.442 17.0625 354.169 16.5597C353.899 16.054 353.764 15.4489 353.764 14.7443C353.764 14.0682 353.901 13.4773 354.173 12.9716C354.446 12.4659 354.831 12.0724 355.328 11.7912C355.825 11.5099 356.412 11.3693 357.088 11.3693C357.582 11.3693 358.03 11.446 358.43 11.5994C358.831 11.7528 359.173 11.9759 359.457 12.2685C359.741 12.5582 359.96 12.9105 360.114 13.3253C360.267 13.7401 360.344 14.2074 360.344 14.7273V15.2727H354.497V13.9773H358.179C358.176 13.7898 358.128 13.625 358.034 13.483C357.943 13.3381 357.82 13.2259 357.663 13.1463C357.51 13.0639 357.335 13.0227 357.139 13.0227C356.949 13.0227 356.774 13.0639 356.615 13.1463C356.456 13.2259 356.328 13.3366 356.232 13.4787C356.138 13.6207 356.088 13.7869 356.082 13.9773V15.375C356.082 15.5852 356.126 15.7727 356.214 15.9375C356.303 16.1023 356.429 16.2315 356.594 16.3253C356.759 16.419 356.957 16.4659 357.19 16.4659C357.352 16.4659 357.5 16.4432 357.634 16.3977C357.77 16.3523 357.886 16.2869 357.983 16.2017C358.08 16.1136 358.151 16.0085 358.196 15.8864H360.344C360.27 16.3409 360.095 16.7358 359.82 17.071C359.544 17.4034 359.179 17.6619 358.724 17.8466C358.273 18.0284 357.744 18.1193 357.139 18.1193ZM364.44 18.1193C363.741 18.1193 363.139 17.9858 362.633 17.7188C362.13 17.4489 361.743 17.0625 361.47 16.5597C361.2 16.054 361.065 15.4489 361.065 14.7443C361.065 14.0682 361.201 13.4773 361.474 12.9716C361.747 12.4659 362.132 12.0724 362.629 11.7912C363.126 11.5099 363.713 11.3693 364.389 11.3693C364.883 11.3693 365.331 11.446 365.731 11.5994C366.132 11.7528 366.474 11.9759 366.758 12.2685C367.042 12.5582 367.261 12.9105 367.414 13.3253C367.568 13.7401 367.645 14.2074 367.645 14.7273V15.2727H361.798V13.9773H365.48C365.477 13.7898 365.429 13.625 365.335 13.483C365.244 13.3381 365.12 13.2259 364.964 13.1463C364.811 13.0639 364.636 13.0227 364.44 13.0227C364.25 13.0227 364.075 13.0639 363.916 13.1463C363.757 13.2259 363.629 13.3366 363.532 13.4787C363.439 13.6207 363.389 13.7869 363.383 13.9773V15.375C363.383 15.5852 363.427 15.7727 363.515 15.9375C363.603 16.1023 363.73 16.2315 363.895 16.3253C364.059 16.419 364.258 16.4659 364.491 16.4659C364.653 16.4659 364.801 16.4432 364.934 16.3977C365.071 16.3523 365.187 16.2869 365.284 16.2017C365.38 16.1136 365.451 16.0085 365.497 15.8864H367.645C367.571 16.3409 367.396 16.7358 367.12 17.071C366.845 17.4034 366.48 17.6619 366.025 17.8466C365.574 18.0284 365.045 18.1193 364.44 18.1193ZM374.587 13.5852H372.423C372.411 13.4517 372.364 13.3366 372.282 13.2401C372.2 13.1435 372.093 13.0696 371.962 13.0185C371.835 12.9645 371.692 12.9375 371.536 12.9375C371.335 12.9375 371.161 12.9744 371.016 13.0483C370.871 13.1222 370.8 13.2273 370.803 13.3636C370.8 13.4602 370.842 13.5497 370.927 13.6321C371.015 13.7145 371.184 13.7784 371.434 13.8239L372.763 14.0625C373.434 14.1847 373.933 14.3906 374.259 14.6804C374.589 14.9673 374.755 15.3523 374.758 15.8352C374.755 16.3011 374.616 16.706 374.34 17.0497C374.067 17.3906 373.694 17.6548 373.219 17.8423C372.748 18.027 372.21 18.1193 371.604 18.1193C370.604 18.1193 369.822 17.9148 369.256 17.5057C368.694 17.0966 368.38 16.5568 368.315 15.8864H370.65C370.681 16.0937 370.783 16.2543 370.957 16.3679C371.133 16.4787 371.354 16.5341 371.621 16.5341C371.837 16.5341 372.015 16.4972 372.154 16.4233C372.296 16.3494 372.369 16.2443 372.371 16.108C372.369 15.983 372.306 15.8835 372.184 15.8097C372.065 15.7358 371.877 15.6761 371.621 15.6307L370.462 15.4261C369.795 15.3097 369.295 15.0881 368.962 14.7614C368.63 14.4347 368.465 14.0142 368.468 13.5C368.465 13.0455 368.585 12.6605 368.826 12.3452C369.07 12.027 369.418 11.7855 369.87 11.6207C370.325 11.4531 370.863 11.3693 371.485 11.3693C372.431 11.3693 373.177 11.5653 373.722 11.9574C374.271 12.3494 374.559 12.892 374.587 13.5852ZM429.955 16.6364V14.7955L433.467 9.27273H435.137V11.7273H434.183L432.29 14.7273V14.7955H437.472V16.6364H429.955ZM434.2 18V16.0739L434.251 15.2727V9.27273H436.467V18H434.2ZM442.267 18.2386C441.475 18.2358 440.79 18.0526 440.213 17.6889C439.637 17.3253 439.192 16.8011 438.88 16.1165C438.567 15.4318 438.412 14.6108 438.415 13.6534C438.418 12.6932 438.574 11.8778 438.884 11.2074C439.196 10.5369 439.64 10.027 440.213 9.67756C440.79 9.32812 441.475 9.15341 442.267 9.15341C443.06 9.15341 443.745 9.32955 444.321 9.68182C444.898 10.0312 445.343 10.5412 445.655 11.2116C445.968 11.8821 446.123 12.696 446.12 13.6534C446.12 14.6165 445.963 15.4403 445.651 16.125C445.338 16.8097 444.894 17.3338 444.317 17.6974C443.743 18.0582 443.06 18.2386 442.267 18.2386ZM442.267 16.3125C442.676 16.3125 443.012 16.0994 443.273 15.6733C443.537 15.2443 443.668 14.571 443.665 13.6534C443.665 13.054 443.605 12.5639 443.486 12.1832C443.367 11.8026 443.202 11.5213 442.992 11.3395C442.782 11.1548 442.54 11.0625 442.267 11.0625C441.858 11.0625 441.525 11.2699 441.266 11.6847C441.007 12.0994 440.875 12.7557 440.87 13.6534C440.867 14.2642 440.925 14.767 441.044 15.1619C441.164 15.554 441.328 15.8438 441.539 16.0312C441.752 16.2188 441.995 16.3125 442.267 16.3125ZM452.226 16.3636V15.9034C452.226 15.5341 452.306 15.1932 452.465 14.8807C452.627 14.5682 452.861 14.3168 453.168 14.1264C453.475 13.9361 453.848 13.8409 454.289 13.8409C454.74 13.8409 455.12 13.9347 455.426 14.1222C455.736 14.3097 455.971 14.5597 456.13 14.8722C456.289 15.1847 456.368 15.5284 456.368 15.9034V16.3636C456.368 16.733 456.287 17.0739 456.125 17.3864C455.966 17.6989 455.732 17.9503 455.422 18.1406C455.113 18.331 454.735 18.4261 454.289 18.4261C453.843 18.4261 453.466 18.331 453.159 18.1406C452.853 17.9503 452.62 17.6989 452.461 17.3864C452.304 17.0739 452.226 16.733 452.226 16.3636ZM453.709 15.9034V16.3636C453.709 16.5256 453.749 16.6861 453.828 16.8452C453.911 17.0014 454.064 17.0795 454.289 17.0795C454.525 17.0795 454.679 17.0028 454.753 16.8494C454.83 16.696 454.868 16.5341 454.868 16.3636V15.9034C454.868 15.733 454.833 15.5682 454.762 15.4091C454.691 15.25 454.533 15.1705 454.289 15.1705C454.064 15.1705 453.911 15.25 453.828 15.4091C453.749 15.5682 453.709 15.733 453.709 15.9034ZM447.658 11.3693V10.9091C447.658 10.5341 447.739 10.1903 447.901 9.87784C448.066 9.56534 448.301 9.31534 448.608 9.12784C448.915 8.94034 449.286 8.84659 449.721 8.84659C450.172 8.84659 450.551 8.94034 450.858 9.12784C451.168 9.31534 451.402 9.56534 451.561 9.87784C451.721 10.1903 451.8 10.5341 451.8 10.9091V11.3693C451.8 11.7443 451.719 12.0866 451.557 12.3963C451.398 12.706 451.164 12.9531 450.854 13.1378C450.544 13.3224 450.167 13.4148 449.721 13.4148C449.275 13.4148 448.898 13.321 448.591 13.1335C448.284 12.946 448.051 12.6974 447.892 12.3878C447.736 12.0781 447.658 11.7386 447.658 11.3693ZM449.158 10.9091V11.3693C449.158 11.5398 449.198 11.7017 449.277 11.8551C449.357 12.0085 449.505 12.0852 449.721 12.0852C449.956 12.0852 450.111 12.0085 450.185 11.8551C450.262 11.7017 450.3 11.5398 450.3 11.3693V10.9091C450.3 10.7386 450.265 10.5739 450.194 10.4148C450.123 10.2557 449.965 10.1761 449.721 10.1761C449.496 10.1761 449.346 10.2585 449.269 10.4233C449.195 10.5852 449.158 10.7472 449.158 10.9091ZM448.382 18L454.382 9.27273H455.593L449.593 18H448.382Z" fill="url(#paint1_linear_21425_23320)"/>
<path fill-rule="evenodd" clip-rule="evenodd" d="M590.906 14.7612H594.289V16.5013H590.906V18.5637H596.06V12.9996H592.638V11.3669H596.06V9.43341H590.906V14.7612ZM599.354 9.43341H597.493V18.5637H599.354V9.43341ZM604.317 12.9996V9.43341H606.088V18.5637H604.357V14.6323H602.676V18.5637H600.965V9.43341H602.706V12.9996H604.317Z" fill="white"/>
<path fill-rule="evenodd" clip-rule="evenodd" d="M586 13.0014H589.453V14.9993H586V13.0014ZM607.547 13.0001H611V14.998H607.547V13.0001ZM597.489 4H599.35V7.70581H597.489V4ZM597.489 20.2942H599.35V24H597.489V20.2942Z" fill="#0D91EC"/>
<path fill-rule="evenodd" clip-rule="evenodd" d="M587.715 11.294V9.27455C587.715 7.38405 589.156 5.83728 590.917 5.83728H595.981V7.7063H590.917C590.107 7.7063 589.456 8.41524 589.456 9.27455V11.294H587.715ZM601.015 5.83728H605.739C607.69 5.83728 609.271 7.54518 609.281 9.63976V11.294H607.54V9.63976C607.54 8.57636 606.73 7.7063 605.739 7.7063H601.015V5.83728ZM607.54 18.3387C607.54 19.4021 606.73 20.2722 605.739 20.2722H601.015V22.1412H605.739C607.69 22.1412 609.281 20.4333 609.281 18.3387V16.6845H607.54V18.3387ZM589.456 16.6845V18.3387C589.456 19.4129 590.267 20.2722 591.257 20.2722H595.981V22.1412H591.257C589.306 22.1412 587.715 20.4333 587.715 18.3387V16.6845H589.456Z" fill="white"/>
<path d="M616.84 18V11.52H617.632V13.08L617.476 12.876C617.548 12.684 617.642 12.508 617.758 12.348C617.874 12.184 618 12.05 618.136 11.946C618.304 11.798 618.5 11.686 618.724 11.61C618.948 11.53 619.174 11.484 619.402 11.472C619.63 11.456 619.838 11.472 620.026 11.52V12.348C619.79 12.288 619.532 12.274 619.252 12.306C618.972 12.338 618.714 12.45 618.478 12.642C618.262 12.81 618.1 13.012 617.992 13.248C617.884 13.48 617.812 13.728 617.776 13.992C617.74 14.252 617.722 14.51 617.722 14.766V18H616.84ZM623.789 18.18C623.157 18.18 622.609 18.04 622.145 17.76C621.685 17.48 621.327 17.086 621.071 16.578C620.815 16.07 620.687 15.474 620.687 14.79C620.687 14.082 620.813 13.47 621.065 12.954C621.317 12.438 621.671 12.04 622.127 11.76C622.587 11.48 623.129 11.34 623.753 11.34C624.393 11.34 624.939 11.488 625.391 11.784C625.843 12.076 626.185 12.496 626.417 13.044C626.649 13.592 626.755 14.246 626.735 15.006H625.835V14.694C625.819 13.854 625.637 13.22 625.289 12.792C624.945 12.364 624.441 12.15 623.777 12.15C623.081 12.15 622.547 12.376 622.175 12.828C621.807 13.28 621.623 13.924 621.623 14.76C621.623 15.576 621.807 16.21 622.175 16.662C622.547 17.11 623.073 17.334 623.753 17.334C624.217 17.334 624.621 17.228 624.965 17.016C625.313 16.8 625.587 16.49 625.787 16.086L626.609 16.404C626.353 16.968 625.975 17.406 625.475 17.718C624.979 18.026 624.417 18.18 623.789 18.18ZM621.311 15.006V14.268H626.261V15.006H621.311ZM630.755 18.18C630.103 18.18 629.551 18.034 629.099 17.742C628.647 17.45 628.303 17.048 628.067 16.536C627.835 16.02 627.715 15.428 627.707 14.76C627.715 14.08 627.839 13.484 628.079 12.972C628.319 12.456 628.665 12.056 629.117 11.772C629.569 11.484 630.117 11.34 630.761 11.34C631.417 11.34 631.987 11.5 632.471 11.82C632.959 12.14 633.293 12.578 633.473 13.134L632.609 13.41C632.457 13.022 632.215 12.722 631.883 12.51C631.555 12.294 631.179 12.186 630.755 12.186C630.279 12.186 629.885 12.296 629.573 12.516C629.261 12.732 629.029 13.034 628.877 13.422C628.725 13.81 628.647 14.256 628.643 14.76C628.651 15.536 628.831 16.16 629.183 16.632C629.535 17.1 630.059 17.334 630.755 17.334C631.195 17.334 631.569 17.234 631.877 17.034C632.189 16.83 632.425 16.534 632.585 16.146L633.473 16.41C633.233 16.986 632.881 17.426 632.417 17.73C631.953 18.03 631.399 18.18 630.755 18.18ZM637.241 18.18C636.597 18.18 636.047 18.034 635.591 17.742C635.135 17.45 634.785 17.046 634.541 16.53C634.297 16.014 634.175 15.422 634.175 14.754C634.175 14.074 634.299 13.478 634.547 12.966C634.795 12.454 635.147 12.056 635.603 11.772C636.063 11.484 636.609 11.34 637.241 11.34C637.889 11.34 638.441 11.486 638.897 11.778C639.357 12.066 639.707 12.468 639.947 12.984C640.191 13.496 640.313 14.086 640.313 14.754C640.313 15.434 640.191 16.032 639.947 16.548C639.703 17.06 639.351 17.46 638.891 17.748C638.431 18.036 637.881 18.18 637.241 18.18ZM637.241 17.334C637.961 17.334 638.497 17.096 638.849 16.62C639.201 16.14 639.377 15.518 639.377 14.754C639.377 13.97 639.199 13.346 638.843 12.882C638.491 12.418 637.957 12.186 637.241 12.186C636.757 12.186 636.357 12.296 636.041 12.516C635.729 12.732 635.495 13.034 635.339 13.422C635.187 13.806 635.111 14.25 635.111 14.754C635.111 15.534 635.291 16.16 635.651 16.632C636.011 17.1 636.541 17.334 637.241 17.334ZM649.365 18L649.371 13.746C649.371 13.246 649.231 12.854 648.951 12.57C648.675 12.282 648.323 12.138 647.895 12.138C647.651 12.138 647.413 12.194 647.181 12.306C646.949 12.418 646.757 12.598 646.605 12.846C646.457 13.094 646.383 13.418 646.383 13.818L645.861 13.668C645.849 13.204 645.939 12.798 646.131 12.45C646.327 12.102 646.595 11.832 646.935 11.64C647.279 11.444 647.667 11.346 648.099 11.346C648.751 11.346 649.273 11.548 649.665 11.952C650.057 12.352 650.253 12.894 650.253 13.578L650.247 18H649.365ZM641.631 18V11.52H642.423V13.116H642.519V18H641.631ZM645.507 18L645.513 13.806C645.513 13.29 645.375 12.884 645.099 12.588C644.827 12.288 644.467 12.138 644.019 12.138C643.571 12.138 643.209 12.292 642.933 12.6C642.657 12.904 642.519 13.31 642.519 13.818L641.991 13.53C641.991 13.114 642.089 12.742 642.285 12.414C642.481 12.082 642.749 11.822 643.089 11.634C643.429 11.442 643.815 11.346 644.247 11.346C644.659 11.346 645.025 11.434 645.345 11.61C645.669 11.786 645.923 12.042 646.107 12.378C646.291 12.714 646.383 13.122 646.383 13.602L646.377 18H645.507ZM659.537 18L659.543 13.746C659.543 13.246 659.403 12.854 659.123 12.57C658.847 12.282 658.495 12.138 658.067 12.138C657.823 12.138 657.585 12.194 657.353 12.306C657.121 12.418 656.929 12.598 656.777 12.846C656.629 13.094 656.555 13.418 656.555 13.818L656.033 13.668C656.021 13.204 656.111 12.798 656.303 12.45C656.499 12.102 656.767 11.832 657.107 11.64C657.451 11.444 657.839 11.346 658.271 11.346C658.923 11.346 659.445 11.548 659.837 11.952C660.229 12.352 660.425 12.894 660.425 13.578L660.419 18H659.537ZM651.803 18V11.52H652.595V13.116H652.691V18H651.803ZM655.679 18L655.685 13.806C655.685 13.29 655.547 12.884 655.271 12.588C654.999 12.288 654.639 12.138 654.191 12.138C653.743 12.138 653.381 12.292 653.105 12.6C652.829 12.904 652.691 13.31 652.691 13.818L652.163 13.53C652.163 13.114 652.261 12.742 652.457 12.414C652.653 12.082 652.921 11.822 653.261 11.634C653.601 11.442 653.987 11.346 654.419 11.346C654.831 11.346 655.197 11.434 655.517 11.61C655.841 11.786 656.095 12.042 656.279 12.378C656.463 12.714 656.555 13.122 656.555 13.602L656.549 18H655.679ZM664.687 18.18C664.055 18.18 663.507 18.04 663.043 17.76C662.583 17.48 662.225 17.086 661.969 16.578C661.713 16.07 661.585 15.474 661.585 14.79C661.585 14.082 661.711 13.47 661.963 12.954C662.215 12.438 662.569 12.04 663.025 11.76C663.485 11.48 664.027 11.34 664.651 11.34C665.291 11.34 665.837 11.488 666.289 11.784C666.741 12.076 667.083 12.496 667.315 13.044C667.547 13.592 667.653 14.246 667.633 15.006H666.733V14.694C666.717 13.854 666.535 13.22 666.187 12.792C665.843 12.364 665.339 12.15 664.675 12.15C663.979 12.15 663.445 12.376 663.073 12.828C662.705 13.28 662.521 13.924 662.521 14.76C662.521 15.576 662.705 16.21 663.073 16.662C663.445 17.11 663.971 17.334 664.651 17.334C665.115 17.334 665.519 17.228 665.863 17.016C666.211 16.8 666.485 16.49 666.685 16.086L667.507 16.404C667.251 16.968 666.873 17.406 666.373 17.718C665.877 18.026 665.315 18.18 664.687 18.18ZM662.209 15.006V14.268H667.159V15.006H662.209ZM673.469 18V14.694C673.469 14.334 673.435 14.004 673.367 13.704C673.299 13.4 673.189 13.136 673.037 12.912C672.889 12.684 672.695 12.508 672.455 12.384C672.219 12.26 671.931 12.198 671.591 12.198C671.279 12.198 671.003 12.252 670.763 12.36C670.527 12.468 670.327 12.624 670.163 12.828C670.003 13.028 669.881 13.272 669.797 13.56C669.713 13.848 669.671 14.176 669.671 14.544L669.047 14.406C669.047 13.742 669.163 13.184 669.395 12.732C669.627 12.28 669.947 11.938 670.355 11.706C670.763 11.474 671.231 11.358 671.759 11.358C672.147 11.358 672.485 11.418 672.773 11.538C673.065 11.658 673.311 11.82 673.511 12.024C673.715 12.228 673.879 12.462 674.003 12.726C674.127 12.986 674.217 13.264 674.273 13.56C674.329 13.852 674.357 14.144 674.357 14.436V18H673.469ZM668.783 18V11.52H669.581V13.116H669.671V18H668.783ZM678.393 18.18C677.789 18.18 677.273 18.03 676.845 17.73C676.417 17.426 676.089 17.016 675.861 16.5C675.633 15.984 675.519 15.402 675.519 14.754C675.519 14.11 675.631 13.53 675.855 13.014C676.083 12.498 676.409 12.09 676.833 11.79C677.257 11.49 677.765 11.34 678.357 11.34C678.965 11.34 679.477 11.488 679.893 11.784C680.309 12.08 680.623 12.486 680.835 13.002C681.051 13.514 681.159 14.098 681.159 14.754C681.159 15.398 681.053 15.98 680.841 16.5C680.629 17.016 680.317 17.426 679.905 17.73C679.493 18.03 678.989 18.18 678.393 18.18ZM678.483 17.358C678.943 17.358 679.323 17.246 679.623 17.022C679.923 16.798 680.147 16.49 680.295 16.098C680.443 15.702 680.517 15.254 680.517 14.754C680.517 14.246 680.443 13.798 680.295 13.41C680.147 13.018 679.923 12.712 679.623 12.492C679.327 12.272 678.953 12.162 678.501 12.162C678.037 12.162 677.653 12.276 677.349 12.504C677.045 12.732 676.819 13.042 676.671 13.434C676.527 13.826 676.455 14.266 676.455 14.754C676.455 15.246 676.529 15.69 676.677 16.086C676.829 16.478 677.055 16.788 677.355 17.016C677.655 17.244 678.031 17.358 678.483 17.358ZM680.517 18V13.122H680.421V9.36H681.309V18H680.517ZM685.734 18.18C685.102 18.18 684.554 18.04 684.09 17.76C683.63 17.48 683.272 17.086 683.016 16.578C682.76 16.07 682.632 15.474 682.632 14.79C682.632 14.082 682.758 13.47 683.01 12.954C683.262 12.438 683.616 12.04 684.072 11.76C684.532 11.48 685.074 11.34 685.698 11.34C686.338 11.34 686.884 11.488 687.336 11.784C687.788 12.076 688.13 12.496 688.362 13.044C688.594 13.592 688.7 14.246 688.68 15.006H687.78V14.694C687.764 13.854 687.582 13.22 687.234 12.792C686.89 12.364 686.386 12.15 685.722 12.15C685.026 12.15 684.492 12.376 684.12 12.828C683.752 13.28 683.568 13.924 683.568 14.76C683.568 15.576 683.752 16.21 684.12 16.662C684.492 17.11 685.018 17.334 685.698 17.334C686.162 17.334 686.566 17.228 686.91 17.016C687.258 16.8 687.532 16.49 687.732 16.086L688.554 16.404C688.298 16.968 687.92 17.406 687.42 17.718C686.924 18.026 686.362 18.18 685.734 18.18ZM683.256 15.006V14.268H688.206V15.006H683.256ZM692.526 18.18C691.922 18.18 691.406 18.03 690.978 17.73C690.55 17.426 690.222 17.016 689.994 16.5C689.766 15.984 689.652 15.402 689.652 14.754C689.652 14.11 689.764 13.53 689.988 13.014C690.216 12.498 690.542 12.09 690.966 11.79C691.39 11.49 691.898 11.34 692.49 11.34C693.098 11.34 693.61 11.488 694.026 11.784C694.442 12.08 694.756 12.486 694.968 13.002C695.184 13.514 695.292 14.098 695.292 14.754C695.292 15.398 695.186 15.98 694.974 16.5C694.762 17.016 694.45 17.426 694.038 17.73C693.626 18.03 693.122 18.18 692.526 18.18ZM692.616 17.358C693.076 17.358 693.456 17.246 693.756 17.022C694.056 16.798 694.28 16.49 694.428 16.098C694.576 15.702 694.65 15.254 694.65 14.754C694.65 14.246 694.576 13.798 694.428 13.41C694.28 13.018 694.056 12.712 693.756 12.492C693.46 12.272 693.086 12.162 692.634 12.162C692.17 12.162 691.786 12.276 691.482 12.504C691.178 12.732 690.952 13.042 690.804 13.434C690.66 13.826 690.588 14.266 690.588 14.754C690.588 15.246 690.662 15.69 690.81 16.086C690.962 16.478 691.188 16.788 691.488 17.016C691.788 17.244 692.164 17.358 692.616 17.358ZM694.65 18V13.122H694.554V9.36H695.442V18H694.65Z" fill="white"/>
<defs>
<linearGradient id="paint0_linear_21425_23320" x1="353.5" y1="0" x2="353.5" y2="28" gradientUnits="userSpaceOnUse">
<stop stop-color="#2E2AC9"/>
<stop offset="1" stop-color="#3A35FB"/>
</linearGradient>
<linearGradient id="paint1_linear_21425_23320" x1="339.906" y1="9.5" x2="339.906" y2="18" gradientUnits="userSpaceOnUse">
<stop stop-color="#ECECF5"/>
<stop offset="1" stop-color="#9D9DDE"/>
</linearGradient>
</defs>
</svg>
