<svg width="24" height="24" viewBox="0 0 24 24" fill="none" xmlns="http://www.w3.org/2000/svg">
<path d="M13.0034 3H11.0034V13H13.0034V3ZM17.8334 5.17L16.4134 6.59C18.0534 7.91 19.0034 9.9 19.0034 12C19.0034 13.8565 18.2659 15.637 16.9531 16.9497C15.6404 18.2625 13.8599 19 12.0034 19C8.14339 19 5.00339 15.88 5.00339 12C5.00339 9.91 5.95339 7.91 7.58339 6.58L6.17339 5.17C2.38339 8.39 1.92339 14.07 5.14339 17.86C8.36339 21.64 14.0434 22.1 17.8334 18.88C19.8534 17.17 21.0034 14.65 21.0034 12C21.0034 9.37 19.8434 6.87 17.8334 5.17Z" fill="white"/>
</svg>
