<svg width="78" height="20" viewBox="0 0 78 20" fill="none" xmlns="http://www.w3.org/2000/svg">
<path fill-rule="evenodd" clip-rule="evenodd" d="M67.9631 20H70.4282V16.4912L68.8435 15.2632V4.91228L70.4282 3.68421V0H67.9631L64.2656 3.15789V16.8421L67.9631 20ZM74.3017 20H71.8367V16.4912L73.4214 15.2632V4.91228L71.8367 3.68421V0H74.3017L77.9993 3.15789V16.8421L74.3017 20Z" fill="white"/>
<path fill-rule="evenodd" clip-rule="evenodd" d="M3.69752 20H6.16253V16.4912L4.57788 15.2632V4.91228L6.16253 3.68421V0H3.69752L0 3.15789V16.8421L3.69752 20ZM7.74718 20H10.2122L13.9097 16.8421V13.6842H9.33183V15.2632L7.74718 16.4912V20ZM13.9097 3.15789V6.49123H9.33183V4.91228L7.74718 3.68421V0H10.2122L13.9097 3.15789Z" fill="white"/>
<path fill-rule="evenodd" clip-rule="evenodd" d="M51.7639 20H54.2289V16.4912L52.6443 15.2632V4.91228L54.2289 3.68421V0H51.7639L48.0664 3.15789V16.8421L51.7639 20ZM55.6375 20H58.1025L61.8 16.8421V9.82456H55.6375V13.5088H57.2222V15.2632L55.6375 16.4912V20ZM61.8 3.15789V6.49123H57.2222V4.91228L55.6375 3.68421V0H58.1025L61.8 3.15789Z" fill="white"/>
<path fill-rule="evenodd" clip-rule="evenodd" d="M19.8967 0H22.3617L22.3617 3.50877L20.7771 4.73684V5.4386V6.31579V7.01754L22.3617 8.24561L22.3617 11.7544H19.8967L16.1992 8.59649V6.31579V5.4386V3.1579L19.8967 0ZM26.2353 20H23.7703V16.4912L25.355 15.2632V14.5614V13.6842V12.9825L23.7703 11.7544V8.24561H26.2353L29.9329 11.4035V13.6842V14.5614V16.8421L26.2353 20ZM29.9329 6.49123V3.15789L26.2353 0H23.7703V3.50877L25.355 4.73684V6.49123H29.9329ZM19.8967 20H22.3617L22.3617 16.4912L20.7771 15.2632V13.6842H16.1992V16.8421L19.8967 20Z" fill="white"/>
<path fill-rule="evenodd" clip-rule="evenodd" d="M39.7938 0H42.2588L45.9563 3.15789V5.4386V6.31579V8.59649L44.1192 10.1586L43.9879 10.2774L37.5165 16.1404H38.2091V20H32.2227V15.4956V15.4612L32.2426 15.4432L41.3784 7.16626V6.31579V5.4386V4.73684L39.7938 3.50877V0ZM32.2227 6.49123V3.15789L35.9202 0H38.3852V3.50877L36.8005 4.73684V6.49123H32.2227ZM39.7938 16.1404H45.9563V20H39.7938V16.1404Z" fill="#FF6800"/>
</svg>
