<svg width="120" height="36" viewBox="0 0 120 36" fill="none" xmlns="http://www.w3.org/2000/svg">
<path d="M48.3632 25.6942L49.3106 22.4839H44.7771C44.6472 22.4839 44.5693 22.3678 44.6152 22.2135L46.8215 14.7448C46.8597 14.5981 47.0049 14.4744 47.1363 14.4744H51.0937L52.1724 12.7845L52.6263 11.2412H45.5793C44.7236 11.2412 43.9444 11.883 43.6602 12.8379L40.3445 24.1036C40.0588 25.0601 40.4667 25.6927 41.3163 25.6927L48.3632 25.6942ZM50.5604 22.4839L49.6131 25.6927H56.683C57.5234 25.6927 58.3026 25.0448 58.5777 24.1036L59.5815 20.6932C59.9131 19.5823 59.9055 19.0032 59.2423 18.3707L56.3973 15.6463C56.3438 15.6005 56.3361 15.5164 56.3591 15.4232L56.5577 14.7448C56.6051 14.5981 56.7441 14.4744 56.8831 14.4744H60.8375L61.9178 12.7692L62.3655 11.2412H55.317C54.469 11.2412 53.6821 11.883 53.4055 12.8379L52.4735 15.9855C52.1404 17.1055 52.1648 17.6617 52.8111 18.308L55.6638 21.0095C55.7188 21.0553 55.7341 21.1409 55.7036 21.2341L55.4102 22.2135C55.372 22.3678 55.2253 22.4839 55.0939 22.4839H50.5604ZM60.6847 22.4839L59.7358 25.6927H63.0362L63.9836 22.4839H60.6847Z" fill="url(#paint0_linear_21457_23984)"/>
<path d="M69.3138 11.2412L65.0508 25.6942H73.1918C74.0398 25.6942 74.8114 25.0448 75.0956 24.1051L78.4113 12.8379C78.6894 11.8906 78.2967 11.2412 77.4563 11.2412H69.3138ZM72.2979 14.4744H73.9863C74.1177 14.4744 74.1941 14.5966 74.1483 14.7448L71.951 22.2135C71.9052 22.3678 71.757 22.4839 71.6271 22.4839H69.9387C69.8073 22.4839 69.737 22.3678 69.7768 22.2135L71.9816 14.7448C72.0274 14.5981 72.165 14.4744 72.2979 14.4744ZM85.1358 25.6942L86.0755 22.4839H81.5268C81.3954 22.4839 81.319 22.3678 81.3648 22.2135L81.9668 20.1614C82.0127 20.0148 82.1593 19.891 82.2908 19.891H86.1687L87.116 16.6823H83.2304C83.099 16.6823 83.0318 16.557 83.0777 16.4103L83.562 14.7448C83.6079 14.5981 83.7545 14.4744 83.8859 14.4744H87.8418L88.9359 12.7845L89.3912 11.2412H80.8957L76.6388 25.6927L85.1358 25.6942ZM92.4838 11.2412L86.8456 24.1189L86.3765 25.6927H90.1002L91.1728 22.9148C91.2186 22.7849 91.3561 22.6765 91.4814 22.6765H93.3241C93.4464 22.6765 93.5167 22.7834 93.4846 22.924L92.8994 25.6942H96.6383L97.1013 24.1204L99.0525 11.2412H92.4838ZM92.5831 19.1729L94.2715 14.7127C94.3265 14.5752 94.4655 14.4744 94.5878 14.4744H95.0431C95.1653 14.4744 95.2433 14.5752 95.2112 14.7127L94.2868 19.1744C94.2687 19.2521 94.2258 19.3219 94.1645 19.373C94.1105 19.4315 94.0348 19.4652 93.9552 19.4662H92.7298C92.6615 19.4662 92.6126 19.4357 92.5831 19.3745C92.5525 19.3185 92.5525 19.2513 92.5831 19.1729ZM98.2732 25.6942H106.193L107.14 22.4839H103.154C103.024 22.4839 102.955 22.3678 103.001 22.2135L106.231 11.2412H102.53L98.2732 25.6942ZM108.19 22.4839L107.248 25.6927H114.311C115.159 25.6927 115.93 25.0448 116.208 24.1036L117.217 20.6932C117.542 19.5823 117.533 19.0032 116.879 18.3707L114.033 15.6463C113.979 15.6005 113.964 15.5164 113.994 15.4232L114.196 14.7448C114.234 14.5981 114.379 14.4744 114.511 14.4744H118.467L119.555 12.7692L120.001 11.2412H112.954C112.098 11.2412 111.319 11.883 111.033 12.8379L110.109 15.9855C109.777 17.1055 109.793 17.6617 110.448 18.308L113.293 21.0095C113.347 21.0553 113.362 21.1409 113.339 21.2341L113.046 22.2135C113 22.3678 112.862 22.4839 112.731 22.4839H108.19Z" fill="url(#paint1_linear_21457_23984)"/>
<path fill-rule="evenodd" clip-rule="evenodd" d="M11.5664 0.576401C19.8571 -1.17006 25.8024 1.2487 29.9401 5.18778L29.1425 5.9701L27.2112 7.85407C23.1071 3.56356 16.8226 0.713918 11.5664 0.576401ZM32.805 8.54471C35.7005 12.7573 36.3453 17.3244 34.9809 22.5653L26.8139 14.6886L31.517 16.0073C31.517 15.1638 31.5475 15.992 31.3642 15.1791C31.064 13.8396 30.5628 12.5532 29.8775 11.3638L32.1159 9.21854L32.805 8.54471Z" fill="url(#paint2_linear_21457_23984)"/>
<path fill-rule="evenodd" clip-rule="evenodd" d="M24.0121 35.2232C16.9652 36.6794 11.2017 35.1774 7.0961 32.068L10.4515 29.8601C14.4211 33.1696 19.4756 35.0857 24.0121 35.2232ZM3.9867 29.0503C0.154579 24.2509 -1.07237 17.6318 0.996485 11.6865L8.6592 19.4394L3.95309 18.1223C3.95309 20.9108 4.84236 23.3785 6.4513 25.6307C5.53803 26.7014 4.71327 27.8445 3.98517 29.0487" fill="url(#paint3_linear_21457_23984)"/>
<path fill-rule="evenodd" clip-rule="evenodd" d="M3.92503 2.13878L13.3021 11.2867L15.5406 8.97334L16.9188 10.3516L15.4321 11.9605L11.4029 16.1135V16.1288L9.21177 18.3046L7.83202 17.0028C7.83202 17.0028 10.315 14.3655 10.2538 14.3518L0.844663 5.31082C0.247203 4.73382 0.226741 3.78302 0.798824 3.18085L1.77977 2.16934C2.07009 1.87903 2.42305 1.71095 2.8524 1.71095C3.26495 1.70942 3.61791 1.84847 3.92503 2.13878ZM31.5536 2.13878L29.0859 4.52851L26.0514 7.50192L22.175 11.2867L19.9228 8.97334L18.543 10.3516L20.3521 12.3135L24.1216 16.1746L26.2516 18.3046L27.6298 17.0028C27.6298 17.0028 25.1484 14.3655 25.2248 14.3518L28.8094 10.9032L32.0578 7.77695L34.6172 5.3093C35.2146 4.7323 35.2351 3.78149 34.663 3.17932L33.6836 2.16934C33.4084 1.87869 33.0265 1.7131 32.6262 1.71095C32.2137 1.71095 31.8454 1.84847 31.5536 2.13878ZM20.045 12.6359L17.8402 14.7017L17.7332 14.7169L17.6262 14.7017L15.4504 12.6496L12.5702 17.2763L13.1814 17.9058L8.23388 22.2116C1.41306 28.8766 1.91882 33.9799 1.91882 33.9799C6.19405 31.1593 10.454 28.3418 14.714 25.5212L22.8977 17.2763L20.045 12.6359ZM12.5687 25.1987L11.603 25.8894C11.1672 26.194 10.5669 26.0876 10.2622 25.6518C9.95761 25.2159 10.064 24.6156 10.4998 24.311L11.4502 23.6372C11.8933 23.3316 12.4923 23.4385 12.7979 23.8664C13.105 24.2942 12.9965 24.8932 12.5687 25.1987ZM23.3255 18.7935L27.2341 22.2101C34.0518 28.8765 33.5476 33.9799 33.5476 33.9799C29.2876 31.1593 25.0124 28.3418 20.7525 25.5212L18.6989 23.4523L23.3255 18.7935ZM22.806 25.2751L23.7549 25.949C24.1865 26.2578 24.7868 26.1583 25.0957 25.7267C25.4045 25.295 25.305 24.6947 24.8734 24.3859L23.9077 23.6983C23.4762 23.3949 22.8806 23.4973 22.5753 23.9275C22.2729 24.3644 22.3762 24.9628 22.806 25.2751Z" fill="url(#paint4_linear_21457_23984)"/>
<defs>
<linearGradient id="paint0_linear_21457_23984" x1="52.119" y1="14.1993" x2="52.119" y2="24.785" gradientUnits="userSpaceOnUse">
<stop stop-color="white"/>
<stop offset="1" stop-color="#D6D6D6"/>
</linearGradient>
<linearGradient id="paint1_linear_21457_23984" x1="97.8714" y1="25.7614" x2="97.8714" y2="11.2412" gradientUnits="userSpaceOnUse">
<stop stop-color="#006FBF"/>
<stop offset="1" stop-color="#00FFFF"/>
</linearGradient>
<linearGradient id="paint2_linear_21457_23984" x1="20.7724" y1="2.58109" x2="30.9027" y2="23.0756" gradientUnits="userSpaceOnUse">
<stop stop-color="white"/>
<stop offset="1" stop-color="#D6D6D6"/>
</linearGradient>
<linearGradient id="paint3_linear_21457_23984" x1="9.1726" y1="14.443" x2="20.4367" y2="35.7076" gradientUnits="userSpaceOnUse">
<stop stop-color="white"/>
<stop offset="1" stop-color="#D6D6D6"/>
</linearGradient>
<linearGradient id="paint4_linear_21457_23984" x1="17.7393" y1="34.1633" x2="19.2306" y2="3.78898" gradientUnits="userSpaceOnUse">
<stop stop-color="#006FBF"/>
<stop offset="1" stop-color="#00FFFF"/>
</linearGradient>
</defs>
</svg>
