<svg width="108" height="18" viewBox="0 0 108 18" fill="none" xmlns="http://www.w3.org/2000/svg">
  <g clip-path="url(#clip0_1217_3887)">
    <path d="M32.175 10.95C32.1 12.3 31.725 13.275 31.05 13.95C30.375 14.625 29.4 15 28.125 15C26.775 15 25.8 14.55 25.05 13.725C24.375 12.825 24 11.625 24 9.97499V8.02499C24 6.45 24.375 5.175 25.125 4.275C25.875 3.375 26.925 3 28.2 3C29.475 3 30.45 3.375 31.125 4.05C31.8 4.8 32.175 5.775 32.25 7.12499H29.85C29.85 6.3 29.7 5.7 29.475 5.4C29.25 5.1 28.8 4.95 28.2 4.95C27.6 4.95 27.15 5.175 26.85 5.625C26.625 6.075 26.475 6.82499 26.4 7.79999V9.97499C26.4 11.1 26.55 11.925 26.775 12.375C27 12.825 27.45 13.05 28.125 13.05C28.725 13.05 29.175 12.9 29.4 12.6C29.625 12.3 29.775 11.775 29.775 10.95H32.175Z" fill="white"/>
    <path d="M38.6258 11.775C38.6258 11.325 38.4758 10.95 38.2508 10.725C38.0258 10.5 37.5758 10.2 36.9008 9.97499C35.7008 9.52499 34.8758 8.99999 34.3508 8.39999C33.8258 7.79999 33.6008 7.12499 33.6008 6.3C33.6008 5.325 33.9758 4.5 34.6508 3.9C35.3258 3.3 36.2258 3 37.3508 3C38.1008 3 38.7008 3.15 39.3008 3.45C39.8258 3.75 40.2758 4.2 40.5758 4.725C40.8758 5.25 41.0258 5.925 41.0258 6.59999H38.7008C38.7008 6.075 38.5508 5.625 38.3258 5.325C38.1008 5.025 37.7258 4.875 37.3508 4.875C36.9008 4.875 36.6008 5.025 36.3758 5.25C36.1508 5.475 36.0008 5.85 36.0008 6.225C36.0008 6.525 36.1508 6.82499 36.3758 7.12499C36.6008 7.34999 37.1258 7.64999 37.7258 7.94999C38.8508 8.39999 39.6758 8.84999 40.2008 9.44999C40.7258 10.05 40.9508 10.8 40.9508 11.775C40.9508 12.825 40.6508 13.575 39.9758 14.175C39.3008 14.775 38.4758 15 37.3508 15C36.6008 15 35.9258 14.85 35.2508 14.55C34.5758 14.25 34.1258 13.8 33.8258 13.2C33.4508 12.6 33.3008 11.925 33.3008 11.175H35.7008C35.7008 11.85 35.8508 12.3 36.0758 12.675C36.3008 12.975 36.7508 13.125 37.3508 13.125C38.1758 13.125 38.6258 12.675 38.6258 11.775Z" fill="white"/>
    <path d="M50.5492 13.5C50.0992 14.025 49.4992 14.325 48.8992 14.625C48.2242 14.85 47.5492 15 46.7242 15C45.3742 15 44.3242 14.55 43.5742 13.725C42.8242 12.9 42.4492 11.7 42.4492 10.05V8.02499C42.4492 6.37499 42.8242 5.175 43.4992 4.275C44.0992 3.45 45.1492 3 46.4992 3C47.7742 3 48.7492 3.3 49.3492 3.975C49.9492 4.65 50.3992 5.55 50.4742 6.89999H48.1492C48.0742 6.15 47.9242 5.625 47.6992 5.4C47.4742 5.1 47.0992 5.025 46.5742 5.025C45.8992 5.025 45.4492 5.25 45.1492 5.7C44.8492 6.15 44.6992 6.89999 44.6992 7.94999V10.05C44.6992 11.1 44.8492 11.925 45.1492 12.375C45.4492 12.825 45.9742 13.125 46.7242 13.125C47.1742 13.125 47.5492 13.05 47.8492 12.825L48.0742 12.675V10.5H46.4242V8.69999H50.4742L50.5492 13.5Z" fill="white"/>
    <path d="M60.4508 10.05C60.4508 11.625 60.0758 12.825 59.3258 13.725C58.5758 14.625 57.5258 15 56.2508 15C54.9758 15 53.9258 14.55 53.1758 13.725C52.4258 12.9 52.0508 11.625 52.0508 10.125V8.09999C52.0508 6.525 52.4258 5.25 53.1758 4.35C53.9258 3.45 54.9758 3 56.2508 3C57.5258 3 58.5758 3.45 59.3258 4.35C60.0758 5.25 60.4508 6.45 60.4508 8.09999V10.05ZM58.0508 8.09999C58.0508 7.04999 57.9008 6.225 57.6008 5.775C57.3008 5.25 56.8508 5.025 56.1758 5.025C55.5758 5.025 55.0508 5.25 54.7508 5.775C54.4508 6.3 54.3008 7.04999 54.3008 8.02499V10.125C54.3008 11.175 54.4508 11.925 54.7508 12.375C55.0508 12.825 55.5008 13.125 56.1758 13.125C56.7758 13.125 57.2258 12.9 57.5258 12.45C57.8258 12 57.9758 11.25 57.9758 10.275V8.09999H58.0508Z" fill="white"/>
    <path d="M61.1992 13.7252C61.1992 13.3502 61.3492 13.0502 61.5742 12.8252C61.7992 12.6002 62.0992 12.4502 62.5492 12.4502C62.9242 12.4502 63.2242 12.6002 63.5242 12.8252C63.7492 13.0502 63.8992 13.3502 63.8992 13.7252C63.8992 14.1002 63.7492 14.4002 63.5242 14.6252C63.2992 14.8502 62.9242 15.0002 62.5492 15.0002C62.1742 15.0002 61.8742 14.8502 61.5742 14.6252C61.3492 14.4002 61.1992 14.1002 61.1992 13.7252Z" fill="white"/>
    <path d="M73.8742 10.95C73.7992 12.3 73.4242 13.275 72.7492 13.95C72.0742 14.7 71.0992 15 69.8242 15C68.4742 15 67.4992 14.55 66.7492 13.725C66.0742 12.825 65.6992 11.625 65.6992 9.97499V8.02499C65.6992 6.45 66.0742 5.175 66.8242 4.275C67.5742 3.375 68.5492 3 69.8242 3C71.0992 3 72.0742 3.375 72.7492 4.05C73.4242 4.8 73.7992 5.775 73.8742 7.12499H71.4742C71.4742 6.3 71.3242 5.7 71.0992 5.4C70.8742 5.1 70.4992 4.95 69.8242 4.95C69.2242 4.95 68.7742 5.175 68.4742 5.625C68.2492 6.075 68.0992 6.82499 68.0242 7.79999V9.97499C68.0242 11.1 68.1742 11.925 68.3992 12.375C68.6242 12.825 69.0742 13.05 69.7492 13.05C70.3492 13.05 70.7992 12.9 71.0242 12.6C71.2492 12.3 71.3992 11.775 71.3992 10.95H73.8742Z" fill="white"/>
    <path d="M83.5484 10.05C83.5484 11.625 83.1734 12.825 82.4234 13.725C81.6734 14.625 80.6234 15 79.3484 15C77.9984 15 77.0234 14.55 76.2734 13.725C75.5234 12.9 75.1484 11.625 75.1484 10.125V8.09999C75.1484 6.525 75.5234 5.25 76.2734 4.35C77.0234 3.45 77.9984 3 79.3484 3C80.6234 3 81.6734 3.45 82.4234 4.35C83.1734 5.25 83.5484 6.45 83.5484 8.09999V10.05ZM81.1484 8.09999C81.1484 7.04999 80.9984 6.225 80.6984 5.775C80.3984 5.25 79.9484 5.025 79.2734 5.025C78.6734 5.025 78.1484 5.25 77.8484 5.775C77.5484 6.3 77.3984 7.04999 77.3984 8.02499V10.125C77.3984 11.175 77.5484 11.925 77.8484 12.375C78.1484 12.825 78.5984 13.125 79.2734 13.125C79.8734 13.125 80.3234 12.9 80.6234 12.45C80.9234 12 81.0734 11.25 81.0734 10.275V8.09999H81.1484Z" fill="white"/>
    <path d="M88.3484 3.15039L90.5234 11.6254L92.6984 3.15039H95.7734V14.8504H93.3734V11.7004L93.5984 6.82539L91.2734 14.8504H89.6984L87.3734 6.82539L87.5984 11.7004V14.8504H85.2734V3.15039H88.3484Z" fill="white"/>
    <path d="M0.667969 8.91699C0.667969 4.41699 4.41797 0.666992 9.0013 0.666992C13.5846 0.666992 17.3346 4.16699 17.3346 9.08366C17.3346 13.5837 13.7513 17.3337 9.08464 17.3337C4.33464 17.3337 0.751302 13.667 0.667969 8.91699ZM12.5846 13.5837C12.5846 13.667 12.5013 13.667 12.5013 13.667C12.418 13.7503 12.418 13.7503 12.3346 13.7503C10.5013 14.5837 8.58464 14.667 6.66797 13.917C5.2513 13.3337 5.5013 13.3337 5.58464 12.167C5.58464 12.0837 5.58464 12.0003 5.58464 11.917C5.7513 10.5837 6.16797 9.33366 7.08464 8.25033C7.33464 7.91699 7.58464 7.91699 7.83464 8.25033C8.0013 8.50033 8.2513 8.75033 8.5013 9.08366C8.66797 8.91699 8.83464 8.83366 9.0013 8.66699C9.91797 7.83366 10.418 6.75033 10.7513 5.58366C11.168 4.00033 11.2513 4.08366 9.83464 3.41699C7.91797 2.50033 5.91797 2.58366 3.91797 3.00033C3.7513 3.00033 3.66797 3.08366 3.5013 3.16699C3.7513 3.41699 4.0013 3.66699 4.41797 4.00033C4.16797 4.08366 4.0013 4.16699 3.91797 4.33366C1.7513 6.41699 1.16797 9.75033 2.41797 12.417C3.7513 15.0837 6.83464 16.667 9.83464 16.2503C13.3346 15.7503 15.668 13.0003 16.168 10.5837C16.668 7.91699 15.918 5.50033 14.3346 3.33366C14.2513 3.25033 14.2513 3.25033 14.0846 3.16699C14.8346 6.83366 15.168 10.2503 11.418 12.5837C11.8346 13.0003 12.2513 13.2503 12.5846 13.5837Z" fill="white"/>
    <path d="M12.6644 13.5874C12.3215 13.2427 11.8929 12.9841 11.4642 12.6394C15.2361 10.1403 14.9789 6.60704 14.2074 2.90142C14.3788 2.98759 14.4646 2.98759 14.4646 3.07377C16.0076 5.31438 16.8648 7.81352 16.3505 10.5712C15.8361 13.0703 13.4359 15.9142 9.8355 16.4312C6.74947 16.8621 3.57771 15.2248 2.20614 12.4671C0.834564 9.70941 1.52035 6.17615 3.74915 4.1079C3.9206 3.93554 4.09205 3.76319 4.26349 3.67701C3.9206 3.3323 3.66343 3.07377 3.40626 2.81524C3.57771 2.72906 3.66343 2.64288 3.74915 2.64288C5.80651 2.212 7.86387 2.12582 9.8355 3.07377C11.3785 3.76319 11.2071 3.67701 10.8642 5.2282C10.607 6.43468 10.007 7.55498 9.064 8.41676C8.89255 8.58911 8.7211 8.76147 8.54966 8.84764C8.29249 8.58911 8.03532 8.2444 7.86387 7.98587C7.6067 7.64116 7.34953 7.64116 7.09236 7.98587C6.14941 9.10617 5.72079 10.3988 5.54934 11.7777C5.54934 11.8638 5.54934 11.95 5.54934 12.0362C5.3779 13.2427 5.20645 13.2427 6.66374 13.8459C8.63538 14.7077 10.607 14.5353 12.4929 13.6736C12.5786 13.6736 12.6644 13.5874 12.6644 13.5874C12.6644 13.6736 12.6644 13.6736 12.6644 13.5874Z" fill="black"/>
  </g>
  <defs>
    <clipPath id="clip0_1217_3887">
      <rect width="108" height="18" fill="white"/>
    </clipPath>
  </defs>
</svg>
