<svg width="105" height="24" viewBox="29 5 56 14" fill="none" xmlns="http://www.w3.org/2000/svg">
<path fill-rule="evenodd" clip-rule="evenodd" d="M38.8 6.55386C38.8 6.55386 35.7703 5.2002 32.7427 5.2002C29.7152 5.2002 26.8 6.55386 26.8 6.55386V9.51177H27.7449V7.20129C28.0976 7.06455 28.488 6.9281 28.9073 6.79993C30.2102 6.4017 31.5215 6.16365 32.7487 6.16365C33.9702 6.16445 35.3033 6.40308 36.6417 6.80184C37.0783 6.93191 37.486 7.0705 37.8551 7.20939V9.51174H38.8V6.55386ZM38.8 13.0285V16.1164L32.8081 18.8002L26.8 16.1164V13.0285H27.7449V15.4866L32.8076 17.7481L37.8552 15.4873V13.0285H38.8ZM30.132 8.81247C32.3882 8.32241 33.4493 9.0673 33.7616 9.30253C33.5744 11.0276 32.5664 11.6481 32.5664 11.6156C32.3702 11.2236 32.0759 11.0276 32.0759 11.0276C30.9969 12.0077 31.113 13.7131 31.113 13.7131C32.9768 14.8892 34.6444 13.8111 34.6444 13.8111C34.3321 13.7131 33.9578 13.321 33.9578 13.321C33.9578 13.321 34.6444 13.1927 35.233 11.9906C35.8216 10.7885 35.233 8.81247 35.233 8.81247C35.4292 9.0085 36.2941 10.1846 36.2941 11.7528C36.2941 13.1974 35.286 14.1296 34.8226 14.458C34.1783 14.9146 32.6243 15.2395 31.3701 14.7754C30.1159 14.3113 29.3472 13.1974 29.3472 11.8509C29.3472 10.0413 30.6225 9.20452 30.6225 9.20452C30.5244 9.0085 30.132 8.81247 30.132 8.81247Z" fill="white"/>
<path d="M42.436 9.38546V14.4004H43.4645V11.124H43.5061L44.8039 14.3759H45.5043L46.8021 11.1363H46.8437V14.4004H47.8722V9.38546H46.5646L45.1835 12.7549H45.1247L43.7436 9.38546H42.436Z" fill="white"/>
<path d="M49.5918 14.4714C50.1477 14.4714 50.5077 14.229 50.6913 13.8789H50.7207V14.4004H51.71V11.8636C51.71 10.9673 50.9509 10.5902 50.1134 10.5902C49.2123 10.5902 48.6197 11.0212 48.4752 11.7068L49.44 11.7852C49.511 11.5354 49.7339 11.3518 50.1085 11.3518C50.4636 11.3518 50.6668 11.5305 50.6668 11.8391V11.8538C50.6668 12.0962 50.4097 12.128 49.7559 12.1917C49.0115 12.2603 48.343 12.51 48.343 13.3499C48.343 14.0943 48.8744 14.4714 49.5918 14.4714ZM49.8906 13.7515C49.5698 13.7515 49.3396 13.6021 49.3396 13.3156C49.3396 13.0218 49.5821 12.8773 49.9494 12.8259C50.1771 12.7941 50.5493 12.7402 50.6742 12.6569V13.0561C50.6742 13.4503 50.3485 13.7515 49.8906 13.7515Z" fill="white"/>
<path d="M52.3124 14.4004H53.3556V12.2725C53.3556 11.8097 53.6935 11.4914 54.1539 11.4914C54.2983 11.4914 54.4967 11.5158 54.5946 11.5477V10.6221C54.5016 10.6 54.3718 10.5853 54.2665 10.5853C53.8453 10.5853 53.5 10.8302 53.3629 11.2955H53.3237V10.6392H52.3124V14.4004Z" fill="white"/>
<path d="M54.9271 14.4004H55.9702V13.2055L56.2518 12.8847L57.2779 14.4004H58.4998L57.033 12.2676L58.4287 10.6392H57.2313L56.0266 12.0668H55.9702V9.38546H54.9271V14.4004Z" fill="white"/>
<path d="M60.2929 14.4739C61.2234 14.4739 61.8503 14.0209 61.9972 13.323L61.0324 13.2593C60.9271 13.5458 60.6577 13.6952 60.31 13.6952C59.7884 13.6952 59.4579 13.3499 59.4579 12.7892V12.7867H62.0192V12.5002C62.0192 11.222 61.2454 10.5902 60.2513 10.5902C59.1444 10.5902 58.427 11.3763 58.427 12.537C58.427 13.7295 59.1346 14.4739 60.2929 14.4739ZM59.4579 12.1403C59.4799 11.7117 59.8056 11.3689 60.2684 11.3689C60.7214 11.3689 61.0348 11.6921 61.0373 12.1403H59.4579Z" fill="white"/>
<path d="M64.4937 10.6392H63.786V9.73807H62.7429V10.6392H62.2286V11.4228H62.7429V13.3818C62.738 14.1188 63.24 14.4837 63.9966 14.4519C64.266 14.4421 64.457 14.3882 64.5623 14.3539L64.3982 13.5777C64.3468 13.5875 64.2366 13.6119 64.1386 13.6119C63.9305 13.6119 63.786 13.5336 63.786 13.2446V11.4228H64.4937V10.6392Z" fill="white"/>
<path d="M65.5761 14.4641C65.8895 14.4641 66.1613 14.2021 66.1638 13.8764C66.1613 13.5556 65.8895 13.2936 65.5761 13.2936C65.2529 13.2936 64.9859 13.5556 64.9884 13.8764C64.9859 14.2021 65.2529 14.4641 65.5761 14.4641Z" fill="white"/>
<path d="M71.2578 11.1412C71.1182 9.98295 70.2416 9.31689 69.0809 9.31689C67.7561 9.31689 66.7448 10.2523 66.7448 11.8929C66.7448 13.5287 67.739 14.469 69.0809 14.469C70.3664 14.469 71.1427 13.6144 71.2578 12.6912L70.1852 12.6863C70.0848 13.2226 69.6637 13.5311 69.098 13.5311C68.3365 13.5311 67.8198 12.9655 67.8198 11.8929C67.8198 10.8498 68.3291 10.2548 69.1053 10.2548C69.6857 10.2548 70.1044 10.5902 70.1852 11.1412H71.2578Z" fill="white"/>
<path d="M74.5318 10.8278H75.548C75.5333 9.93397 74.7987 9.31689 73.682 9.31689C72.5826 9.31689 71.7769 9.92418 71.7818 10.8351C71.7794 11.5746 72.301 11.9982 73.1482 12.2015L73.6943 12.3386C74.2404 12.4708 74.544 12.6276 74.5464 12.9655C74.544 13.3328 74.1963 13.5826 73.6576 13.5826C73.1066 13.5826 72.7099 13.3279 72.6756 12.8259H71.6496C71.6765 13.9107 72.4528 14.4714 73.6698 14.4714C74.8942 14.4714 75.6141 13.8862 75.6165 12.9679C75.6141 12.1329 74.9848 11.6897 74.113 11.4938L73.6625 11.3861C73.2266 11.2857 72.8617 11.124 72.8691 10.7641C72.8691 10.4409 73.1556 10.2033 73.6747 10.2033C74.1816 10.2033 74.4926 10.4335 74.5318 10.8278Z" fill="white"/>
<path d="M79.4482 11.0065H80.5256C80.3885 10.0148 79.5143 9.31689 78.3806 9.31689C77.0558 9.31689 76.0347 10.2719 76.0347 11.8978C76.0347 13.4846 76.9897 14.469 78.4026 14.469C79.6686 14.469 80.5722 13.6683 80.5722 12.3484V11.7166H78.4736V12.5149H79.5511C79.5364 13.1369 79.1127 13.5311 78.4075 13.5311C77.6117 13.5311 77.1097 12.9361 77.1097 11.888C77.1097 10.8449 77.6313 10.2548 78.3977 10.2548C78.9438 10.2548 79.3135 10.5364 79.4482 11.0065Z" fill="white"/>
<path d="M85.7702 11.8929C85.7702 10.2523 84.7516 9.31689 83.4219 9.31689C82.0849 9.31689 81.0736 10.2523 81.0736 11.8929C81.0736 13.5262 82.0849 14.469 83.4219 14.469C84.7516 14.469 85.7702 13.5336 85.7702 11.8929ZM84.6952 11.8929C84.6952 12.9557 84.1908 13.5311 83.4219 13.5311C82.6506 13.5311 82.1486 12.9557 82.1486 11.8929C82.1486 10.8302 82.6506 10.2548 83.4219 10.2548C84.1908 10.2548 84.6952 10.8302 84.6952 11.8929Z" fill="white"/>
</svg>
