<svg width="83" height="20" viewBox="0 0 83 20" fill="none" xmlns="http://www.w3.org/2000/svg">
<g clip-path="url(#clip0_18262_22468)">
<path d="M11.3863 0.140374C12.4126 0.140374 13.4301 0.140374 14.4564 0.140374C14.7722 0.140374 14.781 0.184233 14.6231 0.456163C13.9214 1.68423 13.2196 2.92108 12.5178 4.15792C12.0617 4.96493 11.5968 5.76318 11.1494 6.5702C10.9038 7.00002 10.9126 7.00879 11.4038 7.00879C12.9828 7.00879 14.5617 7.01757 16.1407 7.00002C16.6982 7.00002 16.5354 6.9737 16.7635 7.35967C17.0003 7.82458 17.2547 8.28072 17.5354 8.71932C17.6653 8.92233 17.641 8.88134 17.5178 9.09651C16.5091 10.8597 15.5178 12.6228 14.5178 14.386C13.7021 15.8334 12.8863 17.2895 12.0705 18.7369C11.9038 19.0263 11.7196 19.307 11.5705 19.5965C11.4652 19.7983 11.3775 19.7281 11.2985 19.6053C11.1494 19.3772 11.0091 19.1404 10.8775 18.8948C10.3073 17.8684 9.73714 16.8421 9.16697 15.8246C8.88627 15.3158 8.60557 14.8158 8.28978 14.3246C8.07052 13.9474 7.93894 13.9035 8.281 13.4298C8.92136 12.3948 9.49153 11.3246 10.088 10.2632C10.2021 10.0614 10.167 10 9.89504 10C8.781 10 7.67574 10 6.56171 10C5.74596 10 5.9214 10.0877 5.47399 9.33336C5.06171 8.58774 4.64065 7.84213 4.21083 7.10529C4.14943 7.00879 4.14065 6.94739 4.20206 6.84213C4.82486 5.75441 5.44767 4.65792 6.07048 3.5702C6.61434 2.61406 7.14943 1.64915 7.69328 0.693005C7.74592 0.587742 7.80732 0.491251 7.85995 0.385988C7.95644 0.201777 8.09679 0.131602 8.31609 0.140374C9.33364 0.149145 10.36 0.140374 11.3863 0.140374Z" fill="white"/>
<path d="M3.36023 13.9382C2.39532 13.9382 1.43041 13.9382 0.465494 13.9382C0.123389 13.9382 0.0970732 13.9031 0.26374 13.5961C0.676021 12.8504 1.0883 12.1048 1.50935 11.368C2.07076 10.3768 2.64093 9.38553 3.21111 8.39431C3.35146 8.14869 3.369 8.14869 3.50058 8.38553C4.21111 9.63115 4.91286 10.8768 5.61462 12.1224C5.90409 12.6399 6.20234 13.1487 6.49181 13.6662C6.62339 13.9119 6.60584 13.9382 6.33391 13.9382C5.34269 13.9382 4.35146 13.9382 3.36023 13.9382Z" fill="#FF6C47"/>
<path fill-rule="evenodd" clip-rule="evenodd" d="M51.1419 14.5096C51.5673 14.6192 51.9286 14.7122 52.4491 14.7195C52.8318 14.7248 53.1491 14.6738 53.4451 14.6262L53.4452 14.6262C53.5088 14.616 53.5713 14.6059 53.6333 14.5966C54.607 14.4475 55.4228 14.0352 55.914 13.123C56.5368 11.9651 56.2211 10.6668 55.0719 9.99138C54.5544 9.68437 53.993 9.50893 53.414 9.35981C53.1995 9.3026 52.9865 9.24977 52.7743 9.19716L52.7743 9.19715C52.4658 9.12067 52.1592 9.04464 51.8526 8.9563C51.607 8.88612 51.493 8.69314 51.493 8.42121C51.493 8.14051 51.6246 7.94753 51.8702 7.84226C52.5719 7.53524 53.3702 7.85981 53.6246 8.56156C53.6947 8.74577 53.7825 8.80717 53.9667 8.78963C54.493 8.74577 55.0105 8.71946 55.5368 8.69314C55.9316 8.66682 55.9754 8.62296 55.8702 8.25454C55.5807 7.25454 54.914 6.65805 53.8965 6.44753C53.1772 6.2984 52.4579 6.28086 51.7298 6.37735C50.9754 6.47384 50.3088 6.72823 49.7737 7.31595C48.9842 8.18437 49.1158 9.65805 50.0982 10.3072C50.7386 10.737 51.4491 10.9738 52.1772 11.1668C52.2465 11.1846 52.3161 11.202 52.3858 11.2194L52.3862 11.2195L52.3865 11.2196L52.3869 11.2197L52.3872 11.2198L52.3875 11.2199C52.6968 11.2973 53.0086 11.3754 53.3088 11.4826C53.7123 11.6317 53.8526 11.9037 53.8614 12.3247C53.8702 12.737 53.5807 13.0002 53.3088 13.0791C52.8965 13.2019 52.4667 13.2195 52.0632 13.0528C51.6772 12.8949 51.414 12.6317 51.3263 12.2019C51.3203 12.1749 51.3161 12.145 51.3117 12.1142V12.1141C51.2907 11.9648 51.2665 11.7926 51.0193 11.8072C50.3789 11.851 49.7386 11.8861 49.0982 11.9212C49.0018 11.9212 48.9403 11.9563 48.9579 12.0791C49.1158 13.123 49.7649 14.1668 50.8263 14.43C50.9371 14.4568 51.0413 14.4837 51.1419 14.5096ZM28.6333 14.2019V10.5615C28.6333 9.3159 28.6333 8.07906 28.6421 6.85099C28.6421 6.49134 28.6333 6.48257 28.2824 6.48257H26.6158C26.4213 6.48689 26.3226 6.48908 26.2726 6.53952C26.221 6.59144 26.221 6.69448 26.221 6.90362C26.2123 7.63169 26.2123 8.36853 26.221 9.0966C26.221 9.30713 26.1509 9.3773 25.9403 9.3773C25.3811 9.36414 24.8219 9.36579 24.2627 9.36743C24.0763 9.36798 23.8899 9.36853 23.7035 9.36853L23.7028 9.36851C23.3702 9.35976 23.3614 9.35953 23.3614 9.02643V6.96502C23.3614 6.93093 23.3615 6.89924 23.3617 6.86977V6.86975C23.3626 6.67318 23.3631 6.57587 23.3147 6.52793C23.2672 6.48094 23.1728 6.48139 22.9858 6.48229C22.9581 6.48242 22.9284 6.48257 22.8965 6.48257H21.5368C21.4626 6.48257 21.3975 6.48161 21.3404 6.48078C21.1346 6.47776 21.0327 6.47627 20.983 6.52646C20.9344 6.57562 20.9358 6.67437 20.9387 6.86987C20.9394 6.92328 20.9403 6.98392 20.9403 7.05274V13.8861C20.9403 13.9361 20.9413 13.9851 20.9423 14.0337V14.0338V14.0338V14.0338V14.0338V14.0338V14.0339V14.0339V14.0339C20.9442 14.1304 20.9462 14.2256 20.9403 14.3247C20.9228 14.5177 21.0105 14.5791 21.1947 14.5791C21.5926 14.5732 21.9943 14.5752 22.3948 14.5771H22.3948H22.3949H22.3949H22.395H22.395H22.3951H22.3951H22.3952H22.3953H22.3955H22.3956H22.3958H22.3959H22.3961H22.3962H22.3964C22.5958 14.5781 22.7949 14.5791 22.993 14.5791C23.3438 14.5791 23.3526 14.5703 23.3526 14.2194V11.6317C23.3614 11.2545 23.3614 11.2545 23.7474 11.2545H25.8088C26.1947 11.2545 26.2035 11.2545 26.2035 11.6229V14.2545L26.2035 14.2553C26.2123 14.5615 26.2125 14.5703 26.5193 14.5703H28.2737L28.2743 14.5703C28.6246 14.5615 28.6333 14.5613 28.6333 14.2019ZM57.4403 10.4914V6.85103C57.4403 6.47404 57.4491 6.47384 57.8257 6.46508L57.8263 6.46507H59.2736C59.6596 6.46507 59.6596 6.47384 59.6596 6.84226V10.0879C59.6596 10.2545 59.6596 10.5352 59.7298 10.5528C59.8716 10.5979 59.9423 10.4868 60.0151 10.3724C60.0414 10.3311 60.0679 10.2894 60.0982 10.2545C60.4754 9.80717 60.8526 9.36858 61.2386 8.93875C61.3263 8.84226 61.4754 8.74577 61.5982 8.74577C62.1116 8.7326 62.63 8.73426 63.1459 8.7359H63.1461H63.1463H63.1465H63.1467H63.1469H63.1471H63.1473C63.3184 8.73645 63.4893 8.737 63.6596 8.737C63.6918 8.737 63.7274 8.74687 63.7622 8.75654C63.7842 8.76265 63.8059 8.76868 63.8263 8.77208C63.8175 8.79255 63.8107 8.81497 63.8039 8.83739C63.7902 8.88222 63.7766 8.92705 63.7473 8.95629C63.4204 9.28904 63.0896 9.6179 62.7575 9.94804L62.7575 9.94807L62.7575 9.9481L62.7575 9.94813L62.7574 9.94816L62.7573 9.94827L62.7567 9.9489C62.59 10.1146 62.4231 10.2806 62.2561 10.4475C61.9666 10.737 61.9666 10.7809 62.1684 11.1142L62.1697 11.1164C62.7921 12.1771 63.4144 13.2377 64.028 14.2984C64.1596 14.5177 64.1508 14.5528 63.914 14.5528C63.6434 14.5565 63.3745 14.5555 63.1058 14.5544H63.1057H63.1057H63.1056H63.1055H63.1054H63.1053H63.1053C62.7469 14.553 62.3889 14.5515 62.028 14.5616C61.8087 14.5703 61.721 14.4388 61.6421 14.2809C61.4186 13.8208 61.1902 13.3657 60.9606 12.9081L60.9603 12.9075L60.9591 12.905C60.8827 12.7529 60.8063 12.6005 60.7298 12.4475C60.5719 12.1405 60.5017 12.1317 60.2561 12.3598L60.221 12.3949C59.6421 12.9388 59.6421 12.9388 59.6333 13.7896C59.6322 13.8982 59.6331 13.9916 59.6339 14.0719C59.6364 14.3171 59.6376 14.4405 59.5765 14.5021C59.5148 14.5644 59.3892 14.5635 59.1364 14.5617H59.1363H59.1362H59.1361H59.1359H59.1358C59.0594 14.5612 58.9714 14.5605 58.8701 14.5616H57.8614C57.4228 14.5616 57.414 14.5528 57.414 14.123C57.4403 12.9124 57.4403 11.7019 57.4403 10.4914ZM36.4113 12.5992C36.4127 12.4989 36.4141 12.3987 36.4141 12.2984C36.4043 12.0649 36.4055 11.8302 36.4067 11.5951C36.4088 11.2032 36.4108 10.8105 36.3615 10.4212C36.2562 9.57913 35.8439 8.93001 34.8176 8.72825C33.879 8.54404 32.9317 8.53527 31.9931 8.69317C31.2387 8.81597 30.6246 9.15808 30.3264 9.92124C30.1948 10.2546 30.2387 10.3335 30.5896 10.3686C30.7808 10.3899 30.9734 10.4082 31.1663 10.4267C31.4513 10.4539 31.7369 10.4811 32.0194 10.5177C32.186 10.5353 32.2475 10.4739 32.3264 10.3511C32.6246 9.87738 33.5632 9.65808 34.0369 9.94755C34.2562 10.0791 34.2738 10.2897 34.2825 10.5177C34.298 10.7259 34.1508 10.7579 34.0196 10.7864L34.0196 10.7864L34.0039 10.7898C33.9913 10.7926 33.9788 10.7954 33.9668 10.7984C33.458 10.9388 32.9317 11.0791 32.4141 11.2019C32.2902 11.2314 32.1655 11.2578 32.0408 11.2842C31.6094 11.3756 31.1792 11.4666 30.7913 11.6844C30.4931 11.8511 30.2387 12.0704 30.1159 12.3949C29.7475 13.3774 30.2913 14.2721 31.1334 14.5177C32.2124 14.8247 33.2299 14.737 34.1246 13.9826C34.3176 13.8247 34.379 13.8511 34.4668 14.1054L34.4724 14.123C34.5408 14.3377 34.6151 14.5704 34.9053 14.5704H36.4404C36.6068 14.5704 36.5917 14.4915 36.5673 14.3636C36.566 14.3566 36.5646 14.3495 36.5632 14.3423C36.4931 14.0177 36.4404 13.6844 36.4229 13.3511C36.4041 13.1004 36.4077 12.8498 36.4113 12.5992ZM34.265 11.9388V12.0879C34.2299 13.0353 33.6334 13.5791 32.8001 13.5002C32.4492 13.4651 32.2299 13.2809 32.1773 12.9914C32.1246 12.6932 32.2475 12.4125 32.572 12.2897C32.9287 12.1559 33.2901 12.0453 33.6527 11.9342L33.6527 11.9342L33.6527 11.9342L33.6527 11.9342L33.6528 11.9342L33.6528 11.9342L33.6528 11.9342C33.7895 11.8923 33.9264 11.8504 34.0632 11.8072C34.1948 11.7633 34.2562 11.7984 34.265 11.9388ZM68.8264 11.6229V9.12293C68.8264 8.74593 68.8352 8.74573 69.2205 8.73698L69.2211 8.73696C69.3612 8.73696 69.5022 8.73599 69.6435 8.73502C69.9271 8.73307 70.2121 8.73111 70.4931 8.73696C70.8089 8.74573 70.8089 8.74573 70.8264 9.05275C70.8323 9.17557 70.8459 9.29839 70.8596 9.42121C70.8664 9.4826 70.8732 9.54399 70.879 9.60538C70.8946 9.59413 70.9101 9.58295 70.9256 9.57183L70.9285 9.56972L70.9286 9.56965L70.9289 9.56946C71.0685 9.46879 71.2026 9.37214 71.344 9.25451C72.029 8.68434 73.3703 8.40363 74.1071 8.89486C74.6685 9.27205 74.9141 9.82468 74.9317 10.4475C74.9636 11.3784 74.9584 12.3139 74.9531 13.2507V13.2509V13.251V13.2511V13.2512V13.2518C74.9512 13.6034 74.9492 13.9553 74.9492 14.3071C74.9492 14.4826 74.8966 14.5703 74.7036 14.5703C74.151 14.5615 73.5896 14.5615 73.0369 14.5703C72.844 14.5703 72.7826 14.5001 72.7826 14.3159C72.7884 13.9244 72.7865 13.5368 72.7845 13.1479L72.7845 13.1457C72.7835 12.9515 72.7826 12.757 72.7826 12.5615C72.7826 12.0791 72.7826 11.5966 72.7738 11.1142C72.765 10.6229 72.5457 10.3422 72.1685 10.2896C71.7562 10.237 71.2913 10.2984 71.1159 10.8422C71.0457 11.044 71.0019 11.2633 71.0019 11.4826C70.9887 12.1276 70.9903 12.7776 70.992 13.4251C70.9925 13.6405 70.9931 13.8557 70.9931 14.0703C70.9931 14.5703 70.9931 14.5703 70.4755 14.5703H69.2036C68.844 14.5703 68.8352 14.5615 68.8352 14.2106C68.8264 13.3422 68.8264 12.4826 68.8264 11.6229ZM77.0193 14.2896C77.6685 14.6493 78.379 14.6668 79.0983 14.6668C79.1784 14.6668 79.2586 14.6696 79.3393 14.6724C79.4617 14.6766 79.5854 14.6809 79.7123 14.6756C80.2913 14.623 80.8614 14.5002 81.3527 14.1581C81.993 13.7019 82.4492 12.7633 81.993 11.9914C81.7035 11.5002 81.2825 11.1756 80.7386 11.044C80.4187 10.9668 80.0919 10.9139 79.7668 10.8612L79.7667 10.8612C79.5748 10.8301 79.3836 10.7991 79.1948 10.7633C79.1658 10.7587 79.1366 10.7541 79.1075 10.7495L79.107 10.7494C78.863 10.711 78.6158 10.6722 78.3965 10.5704C78.0983 10.4388 78.0983 9.98263 78.3702 9.81596C78.8088 9.54403 79.5544 9.69316 79.8439 10.1318C79.9228 10.237 79.993 10.2984 80.1246 10.2809C80.6597 10.2195 81.1948 10.1581 81.7299 10.1142C81.9579 10.0967 81.9228 9.9914 81.8527 9.85982C81.5106 9.20193 80.9843 8.78088 80.2386 8.66684C79.5281 8.56158 78.8176 8.54403 78.1071 8.65807C77.5983 8.73702 77.1509 8.93 76.7474 9.28088C76.0457 9.90368 76.1158 11.0967 76.9842 11.6932C77.348 11.9437 77.7638 12.0304 78.1838 12.118C78.2196 12.1255 78.2554 12.1329 78.2913 12.1405C78.5175 12.1866 78.7438 12.2287 78.9691 12.2706L78.9692 12.2706L78.9692 12.2706L78.9693 12.2706L78.9693 12.2707L78.9694 12.2707L78.9695 12.2707L78.9696 12.2707L78.9697 12.2707C79.2159 12.3165 79.4609 12.3621 79.7035 12.4125C79.9842 12.4651 80.2123 12.7107 80.2211 12.93C80.2211 13.1142 80.0369 13.3511 79.8 13.4388C79.2299 13.6405 78.4228 13.544 78.2123 12.9475C78.1685 12.8072 78.072 12.7896 77.9404 12.7984C77.379 12.8598 76.8088 12.9212 76.2474 12.9651C76.0983 12.9826 76.0544 13.0177 76.0983 13.1756C76.2474 13.6844 76.572 14.044 77.0193 14.2896ZM37.9492 10.4826V6.89486C37.9492 6.48258 37.9492 6.4738 38.344 6.4738H39.7036C40.0896 6.4738 40.0983 6.48258 40.0983 6.89486V10.7457V14.0264C40.0983 14.2897 40.0983 14.4234 40.0315 14.4914C39.9624 14.5615 39.8221 14.5615 39.5369 14.5615H38.265C37.958 14.5615 37.9492 14.5527 37.9492 14.2457V10.4826ZM65.1422 9.07909V11.6668V14.2107C65.1422 14.5528 65.151 14.5615 65.4668 14.5615C65.9668 14.5703 66.458 14.5703 66.958 14.5615C67.2562 14.5615 67.2826 14.5352 67.2826 14.237C67.2869 13.3686 67.2869 12.5001 67.2869 11.6317C67.2869 10.7633 67.2869 9.89488 67.2913 9.02646C67.2913 8.77208 67.1861 8.73699 66.9755 8.73699C66.8086 8.73699 66.6426 8.73601 66.4769 8.73503H66.4769H66.4768C66.1464 8.73309 65.8173 8.73115 65.4843 8.73699C65.151 8.73699 65.1422 8.74576 65.1422 9.07909ZM66.1859 7.91242H65.3525C65.2034 7.91242 65.142 7.85102 65.142 7.70189C65.142 7.6142 65.1414 7.52651 65.1409 7.43882C65.1393 7.17563 65.1376 6.91245 65.1508 6.64926C65.1508 6.58786 65.2648 6.47382 65.3262 6.47382C65.9227 6.45628 66.5192 6.46505 67.1156 6.47382H67.1157C67.1683 6.47382 67.2648 6.57032 67.2648 6.63172C67.278 6.9013 67.2763 7.17581 67.2747 7.45155V7.45166C67.2741 7.54375 67.2736 7.63598 67.2736 7.72821C67.2736 7.89488 67.1771 7.91242 67.0455 7.91242H66.1859ZM42.8704 14.2282C43.4318 14.5703 44.0546 14.6843 44.7125 14.6931C44.7997 14.6837 44.8868 14.6762 44.9736 14.6687C45.2101 14.6483 45.4441 14.6281 45.6687 14.5703C46.3178 14.3949 46.8967 14.1054 47.3441 13.5615C47.8792 12.9124 48.081 12.1843 48.0195 11.3686C47.9406 10.3422 47.4669 9.56154 46.5809 9.02645C46.1336 8.76329 45.6424 8.64926 45.1336 8.59662C44.3002 8.5089 43.4932 8.61417 42.7827 9.06154C41.7564 9.71066 41.3002 10.658 41.3704 11.8686C41.4318 12.9387 41.9845 13.6931 42.8704 14.2282ZM45.8474 11.4839C45.8491 11.5272 45.8507 11.5707 45.8529 11.6142C45.8284 11.7448 45.8172 11.8811 45.806 12.0169C45.7932 12.173 45.7805 12.3284 45.7476 12.4738C45.616 12.9212 45.3002 13.1843 44.8266 13.2194C44.3617 13.2545 43.9757 13.0879 43.7739 12.6668C43.4494 12.0001 43.4669 11.3072 43.7652 10.6405C43.9581 10.2107 44.4318 10.0001 44.888 10.0703C45.3529 10.1405 45.7301 10.5615 45.8178 11.0966C45.8376 11.222 45.8425 11.3523 45.8474 11.4839Z" fill="white"/>
</g>
<defs>
<clipPath id="clip0_18262_22468">
<rect width="82.2807" height="20" fill="white"/>
</clipPath>
</defs>
</svg>
