<svg width="100" height="30" viewBox="0 0 2832 647" fill="none" xmlns="http://www.w3.org/2000/svg">
<path d="M921.859 479V193.453H999.008V416.695H1108.97V479H921.859ZM1154.67 479V193.453H1232.21V479H1154.67ZM1480.84 392.281C1480.84 407.776 1476.94 422.49 1469.12 436.422C1461.31 450.224 1449.14 461.422 1432.6 470.016C1416.2 478.609 1394.97 482.906 1368.93 482.906C1355.91 482.906 1344.45 482.32 1334.55 481.148C1324.79 479.977 1315.67 478.089 1307.21 475.484C1298.75 472.75 1289.96 469.234 1280.84 464.938V396.188C1296.34 404 1311.96 409.99 1327.72 414.156C1343.47 418.193 1357.73 420.211 1370.49 420.211C1378.17 420.211 1384.42 419.299 1389.24 417.477C1394.19 415.654 1397.84 413.18 1400.18 410.055C1402.52 406.799 1403.7 403.089 1403.7 398.922C1403.7 393.974 1401.94 389.807 1398.42 386.422C1395.04 382.906 1389.57 379.26 1382.02 375.484C1374.46 371.708 1364.5 367.021 1352.13 361.422C1341.59 356.474 1332.02 351.396 1323.42 346.188C1314.96 340.979 1307.67 335.055 1301.55 328.414C1295.56 321.643 1290.93 313.766 1287.68 304.781C1284.42 295.797 1282.8 285.185 1282.8 272.945C1282.8 254.586 1287.29 239.221 1296.27 226.852C1305.39 214.352 1318.02 204.977 1334.16 198.727C1350.44 192.477 1369.19 189.352 1390.41 189.352C1409.03 189.352 1425.77 191.435 1440.61 195.602C1455.58 199.768 1468.99 204.521 1480.84 209.859L1457.21 269.43C1444.97 263.831 1432.93 259.404 1421.08 256.148C1409.23 252.763 1398.23 251.07 1388.07 251.07C1381.43 251.07 1375.96 251.917 1371.66 253.609C1367.5 255.172 1364.37 257.32 1362.29 260.055C1360.34 262.789 1359.36 265.914 1359.36 269.43C1359.36 273.857 1361.05 277.828 1364.44 281.344C1367.95 284.859 1373.75 288.701 1381.82 292.867C1390.02 296.904 1401.16 302.177 1415.22 308.688C1429.15 314.938 1441 321.708 1450.77 329C1460.53 336.161 1467.95 344.82 1473.03 354.977C1478.24 365.003 1480.84 377.438 1480.84 392.281ZM1502.52 402.242V341.305H1612.88V402.242H1502.52ZM1839.05 392.281C1839.05 407.776 1835.14 422.49 1827.33 436.422C1819.52 450.224 1807.34 461.422 1790.8 470.016C1774.4 478.609 1753.17 482.906 1727.13 482.906C1714.11 482.906 1702.65 482.32 1692.76 481.148C1682.99 479.977 1673.88 478.089 1665.41 475.484C1656.95 472.75 1648.16 469.234 1639.05 464.938V396.188C1654.54 404 1670.17 409.99 1685.92 414.156C1701.68 418.193 1715.93 420.211 1728.7 420.211C1736.38 420.211 1742.63 419.299 1747.45 417.477C1752.39 415.654 1756.04 413.18 1758.38 410.055C1760.73 406.799 1761.9 403.089 1761.9 398.922C1761.9 393.974 1760.14 389.807 1756.62 386.422C1753.24 382.906 1747.77 379.26 1740.22 375.484C1732.67 371.708 1722.71 367.021 1710.34 361.422C1699.79 356.474 1690.22 351.396 1681.62 346.188C1673.16 340.979 1665.87 335.055 1659.75 328.414C1653.76 321.643 1649.14 313.766 1645.88 304.781C1642.63 295.797 1641 285.185 1641 272.945C1641 254.586 1645.49 239.221 1654.48 226.852C1663.59 214.352 1676.22 204.977 1692.37 198.727C1708.64 192.477 1727.39 189.352 1748.62 189.352C1767.24 189.352 1783.97 191.435 1798.81 195.602C1813.79 199.768 1827.2 204.521 1839.05 209.859L1815.41 269.43C1803.17 263.831 1791.13 259.404 1779.28 256.148C1767.43 252.763 1756.43 251.07 1746.27 251.07C1739.63 251.07 1734.16 251.917 1729.87 253.609C1725.7 255.172 1722.58 257.32 1720.49 260.055C1718.54 262.789 1717.56 265.914 1717.56 269.43C1717.56 273.857 1719.26 277.828 1722.64 281.344C1726.16 284.859 1731.95 288.701 1740.02 292.867C1748.23 296.904 1759.36 302.177 1773.42 308.688C1787.35 314.938 1799.2 321.708 1808.97 329C1818.73 336.161 1826.16 344.82 1831.23 354.977C1836.44 365.003 1839.05 377.438 1839.05 392.281ZM2127.13 479H2040.02L1983.58 369.82L1960.73 383.492V479H1883.19V193.453H1960.73V317.477C1963.98 311.227 1967.69 304.977 1971.86 298.727C1976.16 292.477 1980.32 286.552 1984.36 280.953L2044.32 193.453H2128.7L2038.66 321.383L2127.13 479ZM2158.19 479V193.453H2235.73V479H2158.19ZM2569.52 479H2468.34L2364.05 277.828H2362.29C2362.94 283.948 2363.53 291.305 2364.05 299.898C2364.57 308.492 2365.02 317.281 2365.41 326.266C2365.8 335.12 2366 343.128 2366 350.289V479H2297.64V193.453H2398.42L2502.33 391.891H2503.5C2503.11 385.641 2502.72 378.414 2502.33 370.211C2501.94 361.878 2501.55 353.479 2501.16 345.016C2500.9 336.552 2500.77 329.065 2500.77 322.555V193.453H2569.52V479ZM2817.95 392.281C2817.95 407.776 2814.05 422.49 2806.23 436.422C2798.42 450.224 2786.25 461.422 2769.71 470.016C2753.3 478.609 2732.08 482.906 2706.04 482.906C2693.02 482.906 2681.56 482.32 2671.66 481.148C2661.9 479.977 2652.78 478.089 2644.32 475.484C2635.86 472.75 2627.07 469.234 2617.95 464.938V396.188C2633.45 404 2649.07 409.99 2664.83 414.156C2680.58 418.193 2694.84 420.211 2707.6 420.211C2715.28 420.211 2721.53 419.299 2726.35 417.477C2731.3 415.654 2734.95 413.18 2737.29 410.055C2739.63 406.799 2740.8 403.089 2740.8 398.922C2740.8 393.974 2739.05 389.807 2735.53 386.422C2732.15 382.906 2726.68 379.26 2719.12 375.484C2711.57 371.708 2701.61 367.021 2689.24 361.422C2678.7 356.474 2669.12 351.396 2660.53 346.188C2652.07 340.979 2644.78 335.055 2638.66 328.414C2632.67 321.643 2628.04 313.766 2624.79 304.781C2621.53 295.797 2619.91 285.185 2619.91 272.945C2619.91 254.586 2624.4 239.221 2633.38 226.852C2642.5 214.352 2655.13 204.977 2671.27 198.727C2687.55 192.477 2706.3 189.352 2727.52 189.352C2746.14 189.352 2762.88 191.435 2777.72 195.602C2792.69 199.768 2806.1 204.521 2817.95 209.859L2794.32 269.43C2782.08 263.831 2770.04 259.404 2758.19 256.148C2746.34 252.763 2735.34 251.07 2725.18 251.07C2718.54 251.07 2713.07 251.917 2708.77 253.609C2704.61 255.172 2701.48 257.32 2699.4 260.055C2697.45 262.789 2696.47 265.914 2696.47 269.43C2696.47 273.857 2698.16 277.828 2701.55 281.344C2705.06 284.859 2710.86 288.701 2718.93 292.867C2727.13 296.904 2738.27 302.177 2752.33 308.688C2766.26 314.938 2778.11 321.708 2787.88 329C2797.64 336.161 2805.06 344.82 2810.14 354.977C2815.35 365.003 2817.95 377.438 2817.95 392.281Z" fill="white"/>
<path d="M309.459 187.182L213.092 0L0 557.478L119.44 499.831L219.2 523.568L291.135 613.09L368.5 647L440.436 613.09L515.764 523.568L613.488 499.831L737 557.478L521.872 0L424.827 187.182H309.459Z" fill="black"/>
<path d="M633.875 346.029L505.435 505.417L428.67 596.516L367.75 554.071L306.797 596.472L230.064 505.417L101.624 346.029L215.403 48.8303L297.894 207.356H437.605L520.096 48.8303L633.875 346.029Z" fill="#FF7200"/>
<path d="M268.059 207.356H183.058L219.082 113.249L268.059 207.356Z" fill="#FF6700"/>
<path d="M552.412 207.356H467.411L516.381 113.249L552.412 207.356Z" fill="#FF6700"/>
<path d="M230.057 505.417L120.962 478.704L35.9678 517.502L101.618 346.029L230.057 505.417Z" fill="#E7E7E7"/>
<path d="M699.504 517.502L614.516 478.704L505.421 505.417L633.861 346.029L699.504 517.502Z" fill="#E7E7E7"/>
<path d="M428.667 596.52L368.012 624.696L306.794 596.476L367.746 554.075L428.667 596.52Z" fill="black"/>
<path d="M308.871 233.546L367.747 381.277L426.623 233.546H308.871Z" fill="#FF6700"/>
<path d="M224.107 343.12H267.26L309.125 389.811V423.997L244.717 378.327L224.107 343.12Z" fill="black"/>
<path d="M468.219 343.12L426.354 389.811V423.997L490.762 378.32L511.372 343.12H468.219Z" fill="black"/>
</svg>
