<svg width="95" height="20" viewBox="0 0 95 20" fill="none" xmlns="http://www.w3.org/2000/svg">
  <path d="M5.27344 10.7631H8.9039V12.5031H5.27344V14.5654H10.8051V9.00157H7.13164V7.36893H10.8051V5.43555H5.27344V10.7631Z" fill="white"/>
  <path d="M14.3377 5.43555H12.3398V14.5654H14.3377V5.43555Z" fill="white"/>
  <path d="M19.6607 5.43555V9.00157H17.9314V5.43555H16.0625V14.5654H17.8992V10.6342H19.7037V14.5654H21.5619V5.43555H19.6607Z" fill="white"/>
  <path d="M3.71347 9.00098H0.0078125V10.9988H3.71347V9.00098Z" fill="#009BC2"/>
  <path d="M26.8385 9.00098H23.1328V10.9988H26.8385V9.00098Z" fill="#009BC2"/>
  <path d="M14.3377 0H12.3398V3.70565H14.3377V0Z" fill="#009BC2"/>
  <path d="M14.3377 16.2949H12.3398V20.0006H14.3377V16.2949Z" fill="#009BC2"/>
  <path d="M21.187 1.83691H16.1172V3.70585H21.187C22.2503 3.70585 23.1203 4.57588 23.1203 5.63924V7.29335H24.9893V5.63924C24.9785 3.54474 23.2814 1.83691 21.187 1.83691Z" fill="#FFFBFA"/>
  <path d="M1.84375 5.27404V7.29335H3.71269V5.27404C3.71269 4.41476 4.41085 3.70585 5.28088 3.70585H10.7158V1.83691H5.28088C3.39046 1.83691 1.84375 3.38362 1.84375 5.27404Z" fill="#FFFBFA"/>
  <path d="M23.1203 14.3397C23.1203 15.403 22.2503 16.273 21.187 16.273H16.1172V18.142H21.187C23.2814 18.142 24.9893 16.4342 24.9893 14.3397V12.6855H23.1203V14.3397Z" fill="#FFFBFA"/>
  <path d="M3.71269 14.3397V12.6855H1.84375V14.3397C1.84375 16.4342 3.55157 18.142 5.64607 18.142H10.7158V16.273H5.64607C4.58271 16.273 3.71269 15.4138 3.71269 14.3397Z" fill="#FFFBFA"/>
  <path d="M32.8398 15V5H34.5696L38.4162 12.0571H37.4997L41.2818 5H42.9986L43.0245 15H41.0624L41.0495 8.32857H41.4109L38.3904 13.9429H37.4481L34.363 8.32857H34.8019V15H32.8398Z" fill="white"/>
  <path d="M44.6261 15L48.6535 5H50.7188L54.7591 15H52.5647L49.2602 6.17143H50.0863L46.7689 15H44.6261ZM46.6398 12.8571L47.1948 11.1H51.8418L52.4098 12.8571H46.6398Z" fill="white"/>
  <path d="M56.3419 15V5H60.2532C61.0621 5 61.7591 5.14762 62.3443 5.44286C62.9295 5.72857 63.3813 6.14286 63.6997 6.68571C64.0181 7.22857 64.1773 7.87619 64.1773 8.62857C64.1773 9.37143 64.0181 10.0143 63.6997 10.5571C63.3813 11.0905 62.9295 11.5 62.3443 11.7857C61.7591 12.0714 61.0621 12.2143 60.2532 12.2143H57.5037L58.4331 11.2V15H56.3419ZM62.0861 15L59.8272 11.3714H62.0603L64.3451 15H62.0861ZM58.4331 11.4571L57.5037 10.3714H60.137C60.7824 10.3714 61.2643 10.219 61.5827 9.91429C61.9011 9.6 62.0603 9.17143 62.0603 8.62857C62.0603 8.07619 61.9011 7.64762 61.5827 7.34286C61.2643 7.0381 60.7824 6.88571 60.137 6.88571H57.5037L58.4331 5.78571V11.4571Z" fill="white"/>
  <path d="M68.3512 12.7143L68.235 10.0429L72.5593 5H74.8827L70.9844 9.64286L69.8227 11.0143L68.3512 12.7143ZM66.4795 15V5H68.5577V15H66.4795ZM72.6625 15L69.4484 10.6429L70.8166 9L75.1022 15H72.6625Z" fill="white"/>
  <path d="M78.6033 9.02857H82.9534V10.8286H78.6033V9.02857ZM78.7582 13.1429H83.6763V15H76.68V5H83.5085V6.85714H78.7582V13.1429Z" fill="white"/>
  <path d="M87.8573 15V6.88571H84.9658V5H92.8398V6.88571H89.9484V15H87.8573Z" fill="white"/>
</svg>
