<svg width="90" height="24" viewBox="0 0 324 79" fill="none" xmlns="http://www.w3.org/2000/svg">
  <path d="M95.042 59.2307C88.9278 59.2307 83.1586 57.3009 78.8688 53.4909L84.1941 47.108C87.6457 49.8294 91.3932 51.2643 95.3872 51.2643C98.0006 51.2643 99.3812 50.3737 99.3812 48.8892V48.7903C99.3812 47.3059 98.2471 46.5637 93.5135 45.4256C86.1665 43.7433 80.496 41.6651 80.496 34.5894V34.4904C80.496 28.058 85.5748 23.4068 93.8586 23.4068C99.7264 23.4068 104.312 24.9902 108.06 28.0085L103.277 34.7873C100.121 32.5112 96.6692 31.3732 93.6121 31.3732C91.2946 31.3732 90.1605 32.3133 90.1605 33.5998V33.6988C90.1605 35.2821 91.3439 35.9749 96.1762 37.0634C104.066 38.7952 108.996 41.3682 108.996 47.8502V47.9491C108.996 55.0248 103.425 59.2307 95.042 59.2307Z" fill="white"/>
  <path d="M113.648 58.6369V24.0006H123.214V38.053L135.098 24.0006H146.439L133.372 38.8447L146.883 58.6369H135.443L126.715 45.772L123.214 49.6315V58.6369H113.648Z" fill="white"/>
  <path d="M149.913 58.6369V24.0006H159.479V58.6369H149.913Z" fill="white"/>
  <path d="M165.798 58.6369V24.0006H174.723L188.924 42.3084V24.0006H198.391V58.6369H190.058L175.265 39.6364V58.6369H165.798Z" fill="white"/>
  <path d="M221.919 59.3296C211.269 59.3296 203.379 51.3633 203.379 41.4177V41.3187C203.379 31.3732 211.367 23.3079 222.018 23.3079C232.669 23.3079 240.558 31.2742 240.558 41.2198V41.3187C240.558 51.2643 232.57 59.3296 221.919 59.3296ZM222.018 50.6705C227.245 50.6705 230.746 46.4152 230.746 41.4177V41.3187C230.746 36.2717 227.195 31.9669 221.919 31.9669C216.643 31.9669 213.142 36.2223 213.142 41.2198V41.3187C213.142 46.3163 216.742 50.6705 222.018 50.6705Z" fill="white"/>
  <path d="M261.024 59.2801C251.261 59.2801 245.097 54.2826 245.097 43.4464V24.0006H254.762V43.2485C254.762 48.246 257.276 50.6211 261.122 50.6211C265.018 50.6211 267.533 48.345 267.533 43.4959V24.0006H277.197V43.199C277.197 54.3321 270.836 59.2801 261.024 59.2801Z" fill="white"/>
  <path d="M291.29 58.6369V32.4123H280.985V24.0006H311.211V32.4123H300.856V58.6369H291.29Z" fill="white"/>
  <path opacity="0.4" d="M49.6164 15.2079C35.8187 7.23395 18.1579 11.9823 10.1822 25.8105C2.20636 39.6386 6.92858 57.3225 20.7263 65.2965C34.524 73.2705 52.1847 68.5222 60.1605 54.694C68.1363 40.8659 63.4396 23.1967 49.6164 15.2079ZM27.8897 52.8768C20.9398 48.8603 18.5571 39.9376 22.5745 32.9723C26.592 26.007 35.503 23.6111 42.4529 27.6277C49.4029 31.6442 51.7855 40.5669 47.7681 47.5322C43.7507 54.4975 34.8652 56.9081 27.8897 52.8768Z" fill="url(#paint0_linear_2334_38906)"/>
  <path d="M41.6879 44.0177L18.4363 30.58C16.2389 29.3101 16.273 26.1203 18.5414 24.9046L51.4766 7.20013C54.3469 5.64948 57.4463 8.84056 55.8068 11.683L41.6879 44.0177Z" fill="url(#paint1_linear_2334_38906)"/>
  <path d="M28.6831 36.5023L51.9348 49.9399C54.1322 51.2099 54.098 54.3996 51.8297 55.6153L18.8945 73.3198C16.0241 74.8705 12.9248 71.6794 14.5642 68.837L28.6831 36.5023Z" fill="url(#paint2_linear_2334_38906)"/>
  <path d="M41.6887 44.0185L27.2912 39.6244L28.6831 36.5023L41.6887 44.0185Z" fill="#A3B94B" fill-opacity="0.5"/>
  <defs>
    <linearGradient id="paint0_linear_2334_38906" x1="38.4739" y1="75.3094" x2="30.1472" y2="11.7646" gradientUnits="userSpaceOnUse">
      <stop stop-color="#9BDADE"/>
      <stop offset="1" stop-color="#C2E89C"/>
    </linearGradient>
    <linearGradient id="paint1_linear_2334_38906" x1="9.24549" y1="22.3525" x2="60.0217" y2="25.2166" gradientUnits="userSpaceOnUse">
      <stop stop-color="#C2DFAC"/>
      <stop offset="1" stop-color="#FFF06D"/>
    </linearGradient>
    <linearGradient id="paint2_linear_2334_38906" x1="15.8978" y1="56.4593" x2="53.4767" y2="61.3358" gradientUnits="userSpaceOnUse">
      <stop stop-color="#ACDFB1"/>
      <stop offset="1" stop-color="#FFF06D"/>
    </linearGradient>
  </defs>
</svg>
