<svg width="96" height="20" viewBox="0 0 96 20" fill="none" xmlns="http://www.w3.org/2000/svg">
  <g clip-path="url(#clip0_19684_22799)">
    <path d="M4.9 10C3.3 8.4 1.6 6.8 0 5.1C0.1 5.1 0.1 5.1 0.2 5.1C1.3 5.1 2.3 5.1 3.4 5.1C3.5 5.1 3.6 5.1 3.6 5C5.1 2.5 7.3 0.9 10.2 0.2C11 0.0999999 11.9 -1.52737e-07 12.8 0.0999998C14.4 0.2 15.9 0.6 17.2 1.4C19.6 2.8 21.2 4.9 21.9 7.7C22.1 8.4 22.2 9.1 22.2 9.8V9.9C22.2 9.8 22.1 9.8 22.1 9.8C20.5 8.2 19 6.5 17.4 5C16.2 3.7 14.6 3 12.9 2.8C9.2 2.4 5.7 5 5 8.7C4.9 9.1 4.9 9.5 4.9 9.9V10Z" fill="#615DFC"/>
    <path d="M19.4992 10.1C21.0992 11.7 22.6992 13.3 24.2992 14.9H24.1992C23.1992 14.9 22.0992 14.9 21.0992 14.9C20.9992 14.9 20.8992 14.9 20.7992 15C19.3992 17.3 17.4992 18.8 14.8992 19.6C14.2992 19.8 13.6992 19.9 13.0992 19.9C12.4992 20 11.8992 20 11.3992 19.9C9.79922 19.8 8.29922 19.3 6.99922 18.5C5.49922 17.6 4.29922 16.4 3.49922 14.8C2.99922 13.8 2.59922 12.8 2.39922 11.7C2.29922 11.2 2.29922 10.7 2.19922 10.1L2.29922 10.2C3.79922 11.8 5.39922 13.4 6.89922 14.9C7.99922 16 9.29922 16.7 10.7992 17C11.3992 17.1 11.9992 17.2 12.6992 17.1C14.0992 17 15.3992 16.5 16.4992 15.7C17.9992 14.5 18.9992 13 19.3992 11.1C19.4992 11 19.4992 10.6 19.4992 10.1Z" fill="#615DFC"/>
    <path d="M12.2992 13.9C12.3992 13.8 12.3992 13.8 12.4992 13.7C12.8992 13.2 12.6992 12.4 11.9992 12.2C11.8992 12.2 11.7992 12.1 11.7992 12C11.5992 11.7 11.3992 11.5 10.9992 11.5C10.8992 11.5 10.7992 11.4 10.7992 11.4C10.5992 11.1 10.2992 11 9.99922 11C9.89922 11 9.89922 11 9.79922 10.9C9.59922 10.7 9.39922 10.5 9.09922 10.5C8.89922 10.5 8.69922 10.5 8.59922 10.6C8.49922 10.6 8.39922 10.7 8.29922 10.8H8.19922V10.7C8.29922 10.4 8.39922 10.1 8.49922 9.9C8.69922 9.3 8.99922 8.6 9.19922 8C9.19922 7.9 9.29922 7.9 9.39922 7.9C9.89922 7.8 10.3992 7.7 10.9992 7.7H11.0992C10.9992 7.7 10.9992 7.8 10.9992 7.8C10.6992 8 10.4992 8.2 10.1992 8.4C9.89922 8.4 9.79922 8.5 9.69922 8.7C9.59922 8.8 9.59922 8.9 9.49922 9C9.39922 9.2 9.49922 9.3 9.59922 9.5C9.79922 9.8 10.0992 10 10.4992 10C10.6992 10 10.9992 10 11.1992 9.9C11.4992 9.8 11.7992 9.6 12.0992 9.5C12.4992 9.3 12.3992 9.3 12.6992 9.6C13.1992 10 13.6992 10.4 14.2992 10.8C14.5992 11.1 14.9992 11.3 15.3992 11.6C15.4992 11.7 15.5992 11.7 15.6992 11.8C15.8992 12 15.7992 12.2 15.6992 12.3C15.5992 12.4 15.4992 12.4 15.3992 12.3C15.2992 12.3 15.2992 12.2 15.1992 12.2C15.0992 12.2 15.0992 12.2 14.9992 12.2C14.8992 12.2 14.8992 12.3 14.9992 12.3C14.9992 12.4 15.0992 12.5 14.9992 12.6C14.9992 12.8 14.7992 12.9 14.5992 12.9C14.4992 12.9 14.3992 12.8 14.2992 12.7C14.2992 12.7 14.2992 12.7 14.1992 12.6H14.0992C13.9992 12.6 13.9992 12.7 14.0992 12.7V12.8C14.1992 12.9 14.1992 13.1 14.0992 13.2C13.9992 13.4 13.7992 13.4 13.6992 13.4C13.5992 13.4 13.4992 13.3 13.3992 13.2C13.3992 13.2 13.3992 13.2 13.2992 13.1C13.1992 13.1 13.1992 13.1 13.0992 13.1C13.0992 13.1 13.0992 13.2 13.0992 13.3C13.0992 13.4 13.1992 13.4 13.1992 13.5C13.2992 13.8 13.0992 14 12.7992 14C12.4992 14.1 12.3992 14 12.2992 13.9Z" fill="#615DFC"/>
    <path d="M15.8984 10.9C15.7984 10.9 15.6984 11 15.5984 11.1C15.4984 11 15.2984 10.9 15.1984 10.8C14.4984 10.3 13.6984 9.69999 12.9984 9.19999C12.9984 8.99999 12.8984 8.99999 12.7984 8.89999C12.5984 8.79999 12.3984 8.79999 12.1984 8.89999C12.0984 8.89999 11.8984 8.99999 11.7984 9.09999C11.4984 9.19999 11.2984 9.29999 10.9984 9.39999C10.7984 9.49999 10.5984 9.49999 10.4984 9.49999C10.3984 9.49999 10.1984 9.39999 10.0984 9.29999C9.99844 9.19999 9.99844 9.19999 10.0984 9.09999C10.1984 8.99999 10.1984 8.89999 10.2984 8.79999C10.4984 8.59999 10.7984 8.39999 10.9984 8.19999C11.1984 8.09999 11.3984 7.89999 11.5984 7.79999C11.6984 7.69999 11.7984 7.69999 11.8984 7.59999C12.0984 7.49999 12.2984 7.49999 12.4984 7.59999C13.2984 7.89999 14.0984 8.09999 14.8984 8.39999C14.9984 8.39999 14.9984 8.39999 14.9984 8.49999C15.2984 9.29999 15.5984 10.1 15.8984 10.9C15.8984 10.9 15.8984 10.8 15.8984 10.9Z" fill="#8986FD"/>
    <path d="M10.7008 13.1C10.5008 13.1 10.4008 13.2 10.2008 13.2C10.0008 13.2 9.90078 13.2 9.80078 13.1C9.60078 13 9.60078 12.8 9.70078 12.7C9.60078 12.7 9.50078 12.8 9.40078 12.8C9.10078 12.8 8.80078 12.7 8.70078 12.5C8.60078 12.4 8.60078 12.3 8.80078 12.1H8.70078C8.60078 12.1 8.50078 12.1 8.40078 12C8.30078 12 8.20078 11.9 8.20078 11.9C8.00078 11.7 8.00078 11.5 8.20078 11.4C8.40078 11 8.60078 11 8.80078 10.9C8.90078 10.9 9.00078 10.9 9.20078 10.9C9.40078 11 9.50078 11.1 9.50078 11.3C9.50078 11.4 9.50078 11.4 9.50078 11.5C9.60078 11.5 9.80078 11.4 9.90078 11.4C10.2008 11.3 10.4008 11.5 10.5008 11.7C10.6008 11.8 10.5008 12 10.4008 12.1H10.5008C10.6008 12.1 10.7008 12 10.8008 12C11.0008 12 11.2008 12.1 11.3008 12.3C11.4008 12.4 11.3008 12.5 11.3008 12.7C11.4008 12.7 11.5008 12.7 11.5008 12.6C11.7008 12.6 11.8008 12.6 12.0008 12.7C12.1008 12.8 12.2008 12.9 12.1008 13.1C12.1008 13.2 12.0008 13.2 12.0008 13.3C11.8008 13.5 11.5008 13.6 11.2008 13.6C10.8008 13.7 10.6008 13.5 10.7008 13.1Z" fill="#8986FD"/>
    <path d="M7.60078 7C8.00078 7.1 8.30078 7.2 8.70078 7.3C8.30078 8.4 7.90078 9.5 7.50078 10.6C7.30078 10.5 7.00078 10.4 6.80078 10.4C7.00078 9.3 7.30078 8.1 7.60078 7Z" fill="#615DFC"/>
    <path d="M16.6984 11.1C16.2984 10 15.8984 8.9 15.3984 7.8C15.7984 7.7 16.0984 7.6 16.3984 7.5C16.6984 8.6 16.9984 9.7 17.2984 10.8C17.1984 10.9 16.9984 11 16.6984 11.1Z" fill="#8986FD"/>
    <path d="M78.0031 15.9C78.0031 13.5 78.0031 11.2 78.0031 8.80001C77.0031 8.80001 76.1031 8.80001 75.2031 8.80001C75.2031 8.10001 75.2031 7.30001 75.2031 6.60001C75.4031 6.50001 82.9031 6.50001 83.3031 6.60001C83.3031 7.30001 83.3031 8.00001 83.3031 8.80001C82.4031 8.80001 81.5031 8.80001 80.5031 8.80001C80.5031 9.40001 80.5031 10 80.5031 10.6C80.5031 11.2 80.5031 11.8 80.5031 12.3C80.5031 12.9 80.5031 13.5 80.5031 14.1C80.5031 14.7 80.5031 15.3 80.5031 15.9C79.7031 15.9 78.8031 15.9 78.0031 15.9Z" fill="white"/>
    <path d="M35.3023 6.60001C35.4023 6.60001 35.5023 6.60001 35.6023 6.60001C36.7023 6.60001 37.8023 6.60001 38.9023 6.60001C39.6023 6.60001 40.2023 6.70001 40.8023 7.00001C41.9023 7.50001 42.4023 8.30001 42.4023 9.50001C42.4023 10.4 42.2023 11.2 41.5023 11.8C41.2023 12 40.9023 12.2 40.5023 12.4C40.4023 12.4 40.3023 12.5 40.2023 12.5C41.0023 13.7 41.9023 14.8 42.7023 16C42.5023 16 42.4023 16 42.3023 16C41.9023 16 41.5023 16 41.0023 16C40.8023 16 40.7023 15.9 40.6023 15.8C39.9023 14.9 39.3023 13.9 38.6023 13C38.5023 12.8 38.3023 12.7 38.1023 12.7C37.4023 12.7 36.6023 12.7 35.9023 12.7C35.7023 12.7 35.6023 12.7 35.6023 12.5C35.4023 12.1 35.2023 11.7 34.9023 11.2C35.1023 11.2 35.2023 11.2 35.3023 11.2C36.4023 11.2 37.6023 11.2 38.7023 11.2C39.0023 11.2 39.4023 11.2 39.7023 11C40.6023 10.7 40.8023 10 40.7023 9.20001C40.6023 8.80001 40.3023 8.50001 40.0023 8.30001C39.6023 8.10001 39.2023 8.00001 38.7023 8.00001C37.9023 8.00001 37.1023 8.00001 36.3023 8.00001C36.1023 8.00001 36.0023 7.90001 35.9023 7.70001C35.7023 7.40001 35.5023 7.00001 35.3023 6.60001Z" fill="white"/>
    <path d="M44.7007 15.5C44.4007 15 44.0007 14.6 43.7007 14.2C43.6007 14.1 43.7007 14 43.7007 13.9C44.1007 13 44.5007 12 44.9007 11.1C45.5007 9.70001 46.1007 8.30001 46.7007 6.90001C46.8007 6.70001 46.9007 6.60001 47.1007 6.60001C47.4007 6.60001 47.7007 6.60001 48.1007 6.60001C48.3007 6.60001 48.4007 6.70001 48.5007 6.90001C49.3007 8.70001 50.0007 10.4 50.8007 12.2C51.3007 13.4 51.9007 14.6 52.4007 15.8C52.4007 15.9 52.5007 16 52.5007 16.1C51.9007 16.1 51.4007 16.1 50.8007 16.1C49.8007 13.6 48.7007 11.2 47.7007 8.70001C47.7007 8.70001 47.7007 8.70001 47.6007 8.70001C46.7007 10.8 45.7007 13.2 44.7007 15.5Z" fill="white"/>
    <path d="M51 6.60001C51.2 6.60001 51.2 6.60001 51.3 6.60001C52.6 6.60001 53.9 6.60001 55.1 6.60001C56 6.60001 56.9 6.80001 57.8 7.20001C59.3 8.00001 60.1 9.30001 60.2 11C60.3 12.5 59.8 13.7 58.7 14.7C57.9 15.4 56.9 15.8 55.8 15.9C55.5 15.9 55.3 15.9 55 16C54.8 15.5 54.6 15 54.4 14.5C54.6 14.5 54.9 14.5 55.1 14.5C55.5 14.5 55.9 14.4 56.3 14.3C57.5 14 58.4 12.9 58.5 11.7C58.5 11.2 58.5 10.7 58.3 10.2C57.9 9.00001 57 8.40001 55.8 8.20001C55.5 8.20001 55.3 8.20001 55 8.10001C54 8.10001 52.9 8.10001 51.9 8.10001C51.7 8.10001 51.6 8.00001 51.5 7.90001C51.4 7.40001 51.2 7.00001 51 6.60001Z" fill="white"/>
    <path d="M31.7016 15.9C31.1016 15.9 30.6016 15.9 30.0016 15.9C30.0016 13.3 30.0016 10.7 30.0016 8.10001C29.9016 8.10001 29.8016 8.10001 29.7016 8.10001C28.9016 8.10001 28.0016 8.10001 27.1016 8.10001C26.9016 8.10001 26.8016 8.00001 26.7016 7.80001C26.5016 7.40001 26.3016 7.00001 26.1016 6.60001C26.2016 6.60001 26.3016 6.60001 26.3016 6.60001C28.5016 6.60001 30.6016 6.60001 32.8016 6.60001C33.0016 6.60001 33.1016 6.70001 33.2016 6.80001C33.4016 7.20001 33.6016 7.60001 33.8016 8.10001C33.0016 8.10001 32.3016 8.10001 31.6016 8.10001C31.7016 10.7 31.7016 13.3 31.7016 15.9Z" fill="white"/>
    <path d="M73.1016 6.60001C73.1016 9.70001 73.1016 12.8 73.1016 15.9C72.3016 15.9 71.4016 15.9 70.6016 15.9C70.6016 12.8 70.6016 9.70001 70.6016 6.60001C71.4016 6.60001 72.3016 6.60001 73.1016 6.60001Z" fill="white"/>
    <path d="M90.5006 7.1C90.3006 7.3 90.1006 7.5 89.9006 7.7C89.8006 7.6 89.7006 7.6 89.7006 7.5C89.1006 7.1 88.5006 7 87.8006 7.4C87.1006 7.8 86.6006 8.7 86.8006 9.5C86.9006 10.2 87.5006 10.7 88.2006 10.7C88.6006 10.7 88.9006 10.6 89.3006 10.4C89.4006 10.3 89.5006 10.3 89.5006 10.1C89.5006 9.9 89.6006 9.6 89.6006 9.3C89.4006 9.3 89.2006 9.3 89.0006 9.3C88.8006 9.3 88.6006 9.3 88.4006 9.3C88.4006 9 88.5006 8.8 88.5006 8.6C89.2006 8.6 89.9006 8.6 90.6006 8.6C90.6006 8.7 90.6006 8.8 90.6006 8.9C90.5006 9.4 90.5006 9.9 90.4006 10.4C90.4006 10.6 90.3006 10.8 90.1006 10.9C89.4006 11.4 88.6006 11.6 87.8006 11.4C86.7006 11.2 85.9006 10.3 86.0006 9.2C86.0006 7.8 87.0006 6.6 88.4006 6.4C89.1006 6.3 89.8006 6.3 90.4006 6.8C90.3006 6.9 90.3006 7 90.5006 7.1Z" fill="white"/>
    <path d="M96.0022 7.1C95.8022 7.3 95.6022 7.5 95.3022 7.7C95.3022 7.7 95.2022 7.7 95.2022 7.6C94.5022 7 93.5022 7.1 92.9022 7.7C92.4022 8.1 92.2022 8.7 92.2022 9.3C92.2022 10.1 92.8022 10.7 93.7022 10.7C94.1022 10.7 94.4022 10.6 94.7022 10.4C94.8022 10.3 94.9022 10.3 94.9022 10.1C95.0022 10 95.0022 9.7 95.0022 9.5C94.6022 9.5 94.2022 9.5 93.7022 9.5C93.7022 9.2 93.8022 9 93.8022 8.8C94.5022 8.8 95.2022 8.8 95.9022 8.8C95.8022 9.3 95.8022 9.8 95.7022 10.3V10.4C95.7022 10.8 95.5022 11 95.2022 11.2C94.4022 11.6 93.6022 11.8 92.7022 11.6C91.8022 11.4 91.2022 10.6 91.2022 9.7C91.1022 8.2 92.1022 6.9 93.6022 6.6C94.5022 6.3 95.3022 6.5 96.0022 7.1Z" fill="white"/>
    <path d="M68.6008 6.60001C68.6008 7.10001 68.6008 7.50001 68.6008 8.00001C68.5008 8.00001 68.4008 8.00001 68.3008 8.00001C66.1008 8.00001 63.9008 8.00001 61.7008 8.00001C61.5008 8.00001 61.4008 7.90001 61.3008 7.80001C61.0008 7.40001 60.7008 7.00001 60.3008 6.60001C63.1008 6.60001 65.8008 6.60001 68.6008 6.60001Z" fill="white"/>
    <path d="M60.4023 15.9C60.5023 15.8 60.5023 15.8 60.6023 15.7C60.9023 15.4 61.1023 15 61.4023 14.7C61.5023 14.5 61.6023 14.5 61.8023 14.5C63.1023 14.5 64.3023 14.5 65.6023 14.5C66.5023 14.5 67.3023 14.5 68.2023 14.5C68.3023 14.5 68.4023 14.5 68.5023 14.5C68.5023 15 68.5023 15.5 68.5023 15.9C68.4023 15.9 60.8023 15.9 60.4023 15.9Z" fill="white"/>
    <path d="M66.7023 10.5C66.4023 11 66.2023 11.5 66.0023 11.9C64.8023 11.9 63.6023 11.9 62.4023 11.9C62.4023 11.4 62.4023 10.9 62.4023 10.5C63.8023 10.5 65.2023 10.5 66.7023 10.5Z" fill="white"/>
    <path d="M83.9016 15.9C83.2016 15.9 82.6016 15.3 82.6016 14.6C82.6016 13.9 83.2016 13.3 83.9016 13.3C84.6016 13.3 85.2016 13.9 85.2016 14.6C85.2016 15.3 84.6016 15.9 83.9016 15.9Z" fill="white"/>
  </g>
  <defs>
    <clipPath id="clip0_19684_22799">
      <rect width="96" height="20" fill="white"/>
    </clipPath>
  </defs>
</svg>
