<svg width="335" height="271" viewBox="0 0 335 271" fill="none" xmlns="http://www.w3.org/2000/svg">
<g clip-path="url(#clip0_23283_26216)">
<path d="M57.1236 52.7098L3.93361 146.83C-3.84639 160.59 0.263607 178.03 13.3736 186.87L94.8536 241.83C101.824 246.53 110.444 248.13 118.644 246.23L229.154 220.63C242.874 217.45 252.594 205.24 252.624 191.16L252.784 98.2798C252.804 84.0298 242.904 71.6898 228.994 68.6298L90.0336 38.0298C77.0336 35.1698 63.6836 41.1198 57.1336 52.7198L57.1236 52.7098Z" fill="url(#paint0_radial_23283_26216)"/>
<path d="M175.638 245.35L233.418 232.05C235.358 231.6 237.258 232.96 237.448 234.95L240.578 266.76C240.818 269.16 238.498 270.99 236.218 270.21L175.428 249.41C173.418 248.72 173.568 245.82 175.638 245.35Z" fill="url(#paint1_radial_23283_26216)"/>
<path d="M35.101 68.3001L46.141 49.2101C47.751 46.4201 46.161 42.8701 43.001 42.2301L23.571 38.2401C21.161 37.7401 18.841 39.4201 18.551 41.8701L15.911 64.6301C15.641 66.9701 17.341 69.0701 19.681 69.2901L31.061 70.3901C32.701 70.5501 34.281 69.7401 35.101 68.3101V68.3001Z" fill="url(#paint2_radial_23283_26216)"/>
<path d="M124.079 218.71L182.289 185.1L124.079 151.49L65.8594 185.1L124.079 218.71Z" fill="#053054"/>
<path d="M124.078 180.42L188.828 143.04V114.32L124.078 151.71V180.42Z" fill="url(#paint3_linear_23283_26216)"/>
<path d="M124.078 151.71L188.828 114.32L124.078 76.9399L59.3281 114.32L124.078 151.71Z" fill="url(#paint4_linear_23283_26216)"/>
<path d="M124.081 142.78L173.371 114.32L124.081 85.8599L74.7812 114.32L124.081 142.78Z" fill="white"/>
<path d="M59.3203 143.04L124.08 180.42V151.71L59.3203 114.32V143.04Z" fill="url(#paint5_linear_23283_26216)"/>
<path d="M124.078 134.25L188.828 96.8699V68.1499L124.078 105.54V134.25Z" fill="url(#paint6_linear_23283_26216)"/>
<path d="M124.078 105.53L188.828 68.15L124.078 30.77L59.3281 68.15L124.078 105.53Z" fill="url(#paint7_linear_23283_26216)"/>
<path d="M124.078 104.1L187.578 67.4302L188.828 68.1502L124.078 105.53L59.3281 68.1502L60.5681 67.4302L124.078 104.1Z" fill="#A9EBFF"/>
<path d="M124.078 150.27L187.578 113.6L188.828 114.32L124.078 151.71L59.3281 114.32L60.5681 113.6L124.078 150.27Z" fill="#A9EBFF"/>
<path d="M124.083 45.0698L169.453 71.2698L124.083 97.4598L78.7031 71.2698L124.083 45.0698Z" fill="white"/>
<path d="M124.077 45.0698L78.6969 71.2698L73.2969 68.1498L124.077 38.8398L174.847 68.1498L169.447 71.2698L124.077 45.0698Z" fill="#2573BA"/>
<path d="M59.3203 96.8699L124.08 134.25V105.54L59.3203 68.1499V96.8699Z" fill="url(#paint8_linear_23283_26216)"/>
<path d="M101.484 106.85C101.484 109.21 103.144 112.08 105.184 113.26C107.224 114.44 108.884 113.48 108.884 111.12C108.884 108.76 107.224 105.89 105.184 104.71C103.144 103.53 101.484 104.49 101.484 106.85Z" fill="white"/>
<path d="M88 99.0598C88 101.42 89.66 104.29 91.7 105.47C93.74 106.65 95.4 105.69 95.4 103.33C95.4 100.97 93.74 98.0998 91.7 96.9198C89.66 95.7398 88 96.6998 88 99.0598Z" fill="white"/>
<path d="M74.5234 91.28C74.5234 93.64 76.1834 96.51 78.2234 97.69C80.2634 98.87 81.9234 97.91 81.9234 95.55C81.9234 93.19 80.2634 90.32 78.2234 89.14C76.1834 87.96 74.5234 88.92 74.5234 91.28Z" fill="white"/>
<path d="M103.362 104.23C103.182 104.63 103.082 105.11 103.082 105.69C103.082 108.05 104.742 110.92 106.782 112.1C107.452 112.49 108.062 112.62 108.612 112.58C108.062 113.82 106.732 114.16 105.192 113.26C103.152 112.08 101.492 109.21 101.492 106.85C101.492 105.26 102.252 104.33 103.372 104.24L103.362 104.23Z" fill="#A9EBFF"/>
<path d="M89.8856 96.4502C89.7056 96.8502 89.6056 97.3302 89.6056 97.9102C89.6056 100.27 91.2656 103.14 93.3056 104.32C93.9756 104.71 94.5856 104.84 95.1356 104.8C94.5856 106.04 93.2656 106.38 91.7156 105.48C89.6756 104.3 88.0156 101.43 88.0156 99.0702C88.0156 97.4802 88.7756 96.5502 89.8956 96.4602L89.8856 96.4502Z" fill="#A9EBFF"/>
<path d="M76.3934 88.6699C76.2134 89.0699 76.1134 89.5499 76.1134 90.1299C76.1134 92.4899 77.7734 95.3599 79.8134 96.5399C80.4834 96.9299 81.0934 97.0599 81.6434 97.0199C81.0934 98.2599 79.7634 98.5999 78.2234 97.6999C76.1834 96.5199 74.5234 93.6499 74.5234 91.2899C74.5234 89.6999 75.2834 88.7699 76.4034 88.6799L76.3934 88.6699Z" fill="#A9EBFF"/>
<path d="M101.484 153.02C101.484 155.38 103.144 158.25 105.184 159.43C107.224 160.61 108.884 159.65 108.884 157.29C108.884 154.93 107.224 152.06 105.184 150.88C103.144 149.7 101.484 150.66 101.484 153.02Z" fill="white"/>
<path d="M88 145.24C88 147.6 89.66 150.47 91.7 151.65C93.74 152.83 95.4 151.87 95.4 149.51C95.4 147.15 93.74 144.28 91.7 143.1C89.66 141.92 88 142.88 88 145.24Z" fill="white"/>
<path d="M74.5234 137.45C74.5234 139.81 76.1834 142.68 78.2234 143.86C80.2634 145.04 81.9234 144.08 81.9234 141.72C81.9234 139.36 80.2634 136.49 78.2234 135.31C76.1834 134.13 74.5234 135.09 74.5234 137.45Z" fill="white"/>
<path d="M103.362 150.4C103.182 150.8 103.082 151.28 103.082 151.86C103.082 154.22 104.742 157.09 106.782 158.27C107.452 158.66 108.062 158.79 108.612 158.75C108.062 159.99 106.732 160.33 105.192 159.43C103.152 158.25 101.492 155.38 101.492 153.02C101.492 151.43 102.252 150.5 103.372 150.41L103.362 150.4Z" fill="#A9EBFF"/>
<path d="M89.8856 142.62C89.7056 143.02 89.6056 143.5 89.6056 144.08C89.6056 146.44 91.2656 149.31 93.3056 150.49C93.9756 150.88 94.5856 151.01 95.1356 150.97C94.5856 152.21 93.2656 152.55 91.7156 151.65C89.6756 150.47 88.0156 147.6 88.0156 145.24C88.0156 143.65 88.7756 142.72 89.8956 142.63L89.8856 142.62Z" fill="#A9EBFF"/>
<path d="M76.3934 134.84C76.2134 135.24 76.1134 135.72 76.1134 136.3C76.1134 138.66 77.7734 141.53 79.8134 142.71C80.4834 143.1 81.0934 143.23 81.6434 143.19C81.0934 144.43 79.7634 144.77 78.2234 143.87C76.1834 142.69 74.5234 139.82 74.5234 137.46C74.5234 135.87 75.2834 134.94 76.4034 134.85L76.3934 134.84Z" fill="#A9EBFF"/>
<path d="M124.078 86.4799L188.828 49.0999V37.3799L124.078 74.7699V86.4799Z" fill="url(#paint9_linear_23283_26216)"/>
<path d="M124.078 74.77L188.828 37.38L124.078 0L59.3281 37.38L124.078 74.77Z" fill="url(#paint10_linear_23283_26216)"/>
<path d="M124.078 73.3302L187.578 36.6602L188.828 37.3802L124.078 74.7702L59.3281 37.3802L60.5681 36.6702L124.078 73.3302Z" fill="#A9EBFF"/>
<path d="M59.3203 49.0999L124.08 86.4799V74.7699L59.3203 37.3799V49.0999Z" fill="url(#paint11_linear_23283_26216)"/>
<path opacity="0.5" d="M188.828 96.8701V114.32L124.078 151.71V134.25L188.828 96.8701Z" fill="white"/>
<path opacity="0.5" d="M59.3203 96.8701L59.3303 114.32L124.08 151.71V134.25L59.3203 96.8701Z" fill="white"/>
<path d="M124.079 58.1901L86.7891 36.6601L124.079 15.1401L161.359 36.6601L124.079 58.1901Z" fill="white"/>
<path d="M124.079 19.6501L157.449 38.9201L161.359 36.6701L124.079 15.1401L86.7891 36.6601L90.6991 38.9201L124.079 19.6501Z" fill="#A9EBFF"/>
<path d="M145.94 111.76L166.97 99.6199C168.83 98.5499 170.34 95.6599 170.34 93.1799C170.34 90.6999 168.83 89.5599 166.97 90.6299L145.94 102.77C144.08 103.84 142.57 106.73 142.57 109.21C142.57 111.69 144.08 112.83 145.94 111.76Z" fill="white"/>
<path d="M163.378 97.3399C165.238 96.2699 166.748 93.3799 166.748 90.8999C166.748 90.8499 166.748 90.8099 166.748 90.7599L166.968 90.6299C168.828 89.5599 170.338 90.6999 170.338 93.1799C170.338 95.6599 168.828 98.5399 166.968 99.6199L145.938 111.76C144.108 112.81 142.628 111.73 142.578 109.35L163.378 97.3399Z" fill="#A9EBFF"/>
<path d="M193.198 217.69L198.558 214.59L173.718 200.25L169.638 202.6L164.798 199.81L148.898 208.99L153.738 211.78L149.658 214.14L174.508 228.48L179.868 225.38L188.108 230.14L207.138 225.73L193.198 217.69Z" fill="#053054"/>
<path d="M254.803 174.05V171.84L253.292 170.96L235.062 182.81L254.803 174.05Z" fill="white"/>
<mask id="mask0_23283_26216" style="mask-type:luminance" maskUnits="userSpaceOnUse" x="105" y="68" width="153" height="121">
<path d="M205.201 68.16C198.851 69.14 106.751 72.86 105.811 76.41C104.871 79.96 152.071 162.44 152.071 162.44L235.061 188.72V182.81L254.801 171.84L257.281 132.94C257.281 132.94 211.551 67.19 205.191 68.17L205.201 68.16Z" fill="white"/>
</mask>
<g mask="url(#mask0_23283_26216)">
<path d="M144.057 110.61C144.057 108.17 145.547 105.33 147.377 104.27L168.067 92.3199C168.937 91.8199 169.727 91.8098 170.317 92.1998L193.167 105.41L167.967 126.44L145.167 113.26C144.477 112.84 144.047 111.91 144.047 110.6L144.057 110.61Z" fill="url(#paint12_linear_23283_26216)"/>
<path d="M170.148 126.28L190.838 114.33C192.668 113.27 194.158 110.44 194.158 107.99C194.158 105.55 192.668 104.43 190.838 105.48L170.148 117.43C168.318 118.49 166.828 121.32 166.828 123.77C166.828 126.21 168.318 127.34 170.148 126.28Z" fill="url(#paint13_linear_23283_26216)"/>
<path d="M188.328 147.9L222.058 128.42V113.46L188.328 132.93V147.9Z" fill="url(#paint14_linear_23283_26216)"/>
<path d="M188.326 132.93L222.056 113.46L188.326 93.98L154.586 113.46L188.326 132.93Z" fill="url(#paint15_linear_23283_26216)"/>
<path d="M154.586 128.42L188.326 147.9V132.93L154.586 113.46V128.42Z" fill="url(#paint16_linear_23283_26216)"/>
<path d="M188.326 132.18L221.406 113.08L222.056 113.46L188.326 132.93L154.586 113.46L155.236 113.08L188.326 132.18Z" fill="#A9EBFF"/>
<path d="M194.82 135.59L214.4 124.15L230.89 137.36L232.29 148.76V159.15L290.84 194.82L307.12 204.44L304.64 211.88L293.32 216.38L277.65 211.73L256.72 197.77L222.06 178.54L212.36 171.09L211.74 155.27L210.5 145.66L194.82 135.59Z" fill="white"/>
<path d="M292.488 219.01C295.708 219.01 298.918 218.16 301.858 216.47C307.728 213.08 311.228 207.02 311.228 200.25V130.27C311.228 128.86 310.078 127.71 308.668 127.71C307.258 127.71 306.108 128.86 306.108 130.27V200.25C306.108 205.17 303.558 209.58 299.298 212.04C295.038 214.5 289.948 214.5 285.678 212.04L219.398 173.77C216.418 172.05 214.568 168.85 214.568 165.41V153.69C214.568 148.43 211.738 143.53 207.178 140.9L197.658 135.4C196.438 134.69 194.868 135.11 194.158 136.34C193.448 137.56 193.868 139.13 195.098 139.84L204.618 145.34C207.598 147.06 209.448 150.26 209.448 153.7V165.42C209.448 170.68 212.278 175.58 216.838 178.21L283.118 216.48C286.048 218.17 289.268 219.02 292.488 219.02V219.01Z" fill="white"/>
<path d="M213.448 125.09C214.158 123.87 215.718 123.45 216.948 124.15L226.468 129.65C231.028 132.28 233.858 137.18 233.858 142.44V154.16C233.858 157.6 235.708 160.8 238.688 162.52L308.638 202.91C310.388 203.92 312.278 204.51 314.198 204.69C314.018 206.38 314.088 208.11 313.948 209.81C311.238 209.59 308.558 208.77 306.078 207.34L236.128 166.95C231.568 164.32 228.738 159.42 228.738 154.16V142.44C228.738 139 226.888 135.8 223.908 134.08L214.388 128.58C213.168 127.87 212.748 126.31 213.448 125.08V125.09Z" fill="white"/>
<path d="M292.488 219.01C295.708 219.01 298.918 218.16 301.858 216.47C307.728 213.08 311.228 207.02 311.228 200.25V130.27C311.228 128.86 310.078 127.71 308.668 127.71C307.258 127.71 306.108 128.86 306.108 130.27V200.25C306.108 205.17 303.558 209.58 299.298 212.04C295.038 214.5 289.948 214.5 285.678 212.04L219.398 173.77C216.418 172.05 214.568 168.85 214.568 165.41V153.69C214.568 148.43 211.738 143.53 207.178 140.9L197.658 135.4C196.438 134.69 194.868 135.11 194.158 136.34C193.448 137.56 193.868 139.13 195.098 139.84L204.618 145.34C207.598 147.06 209.448 150.26 209.448 153.7V165.42C209.448 170.68 212.278 175.58 216.838 178.21L283.118 216.48C286.048 218.17 289.268 219.02 292.488 219.02V219.01Z" fill="url(#paint17_linear_23283_26216)"/>
<path opacity="0.2" d="M181.203 140.72L184.643 142.71V135.79L181.203 133.8V140.72Z" fill="white"/>
<path opacity="0.2" d="M175.469 137.41L178.919 139.4V132.48L175.469 130.49V137.41Z" fill="white"/>
<path opacity="0.2" d="M169.734 134.1L173.174 136.09V129.17L169.734 127.18V134.1Z" fill="white"/>
<path d="M163.992 130.79L167.442 132.77V125.86L163.992 123.87V130.79Z" fill="white"/>
<path d="M158.266 127.47L161.706 129.46V122.55L158.266 120.56V127.47Z" fill="white"/>
</g>
<path d="M235.062 188.72L254.792 177.81L254.803 171.84L235.062 182.81V188.72Z" fill="#7BDAFF"/>
<path d="M242.263 181.98C242.263 182.69 241.763 183.56 241.143 183.92C240.523 184.28 240.023 183.99 240.023 183.27C240.023 182.55 240.523 181.69 241.143 181.33C241.763 180.97 242.263 181.26 242.263 181.98Z" fill="#3A9BD5"/>
<path d="M246.334 179.63C246.334 180.34 245.834 181.21 245.214 181.57C244.594 181.93 244.094 181.64 244.094 180.92C244.094 180.2 244.594 179.34 245.214 178.98C245.834 178.62 246.334 178.91 246.334 179.63Z" fill="#3A9BD5"/>
<path d="M250.412 177.28C250.412 177.99 249.912 178.86 249.292 179.22C248.672 179.58 248.172 179.29 248.172 178.57C248.172 177.85 248.672 176.99 249.292 176.63C249.912 176.27 250.412 176.56 250.412 177.28Z" fill="#3A9BD5"/>
</g>
<defs>
<radialGradient id="paint0_radial_23283_26216" cx="0" cy="0" r="1" gradientUnits="userSpaceOnUse" gradientTransform="translate(148.814 12.8698) scale(230.85 230.85)">
<stop stop-color="#366491"/>
<stop offset="1" stop-color="#113F6D"/>
</radialGradient>
<radialGradient id="paint1_radial_23283_26216" cx="0" cy="0" r="1" gradientUnits="userSpaceOnUse" gradientTransform="translate(233.048 213.48) scale(61.03 61.03)">
<stop stop-color="#FCB454"/>
<stop offset="1" stop-color="#FF962E"/>
</radialGradient>
<radialGradient id="paint2_radial_23283_26216" cx="0" cy="0" r="1" gradientUnits="userSpaceOnUse" gradientTransform="translate(30.081 30.7801) scale(40.54 40.54)">
<stop stop-color="#366491"/>
<stop offset="1" stop-color="#113F6D"/>
</radialGradient>
<linearGradient id="paint3_linear_23283_26216" x1="194.538" y1="121.12" x2="113.288" y2="177.13" gradientUnits="userSpaceOnUse">
<stop stop-color="#3A9BD5"/>
<stop offset="1" stop-color="#2573BA"/>
</linearGradient>
<linearGradient id="paint4_linear_23283_26216" x1="172.628" y1="93.4699" x2="81.2081" y2="132.74" gradientUnits="userSpaceOnUse">
<stop stop-color="#7BDAFF"/>
<stop offset="1" stop-color="#59BDEF"/>
</linearGradient>
<linearGradient id="paint5_linear_23283_26216" x1="132.38" y1="135.11" x2="45.6503" y2="161.26" gradientUnits="userSpaceOnUse">
<stop stop-color="#2573BA"/>
<stop offset="1" stop-color="#0063AD"/>
</linearGradient>
<linearGradient id="paint6_linear_23283_26216" x1="194.538" y1="74.9499" x2="113.288" y2="130.96" gradientUnits="userSpaceOnUse">
<stop stop-color="#3A9BD5"/>
<stop offset="1" stop-color="#2573BA"/>
</linearGradient>
<linearGradient id="paint7_linear_23283_26216" x1="172.628" y1="47.29" x2="81.2081" y2="86.57" gradientUnits="userSpaceOnUse">
<stop stop-color="#7BDAFF"/>
<stop offset="1" stop-color="#59BDEF"/>
</linearGradient>
<linearGradient id="paint8_linear_23283_26216" x1="132.38" y1="88.9399" x2="45.6503" y2="115.08" gradientUnits="userSpaceOnUse">
<stop stop-color="#2573BA"/>
<stop offset="1" stop-color="#0063AD"/>
</linearGradient>
<linearGradient id="paint9_linear_23283_26216" x1="190.488" y1="38.4699" x2="117.878" y2="88.5299" gradientUnits="userSpaceOnUse">
<stop stop-color="#3A9BD5"/>
<stop offset="1" stop-color="#2573BA"/>
</linearGradient>
<linearGradient id="paint10_linear_23283_26216" x1="172.628" y1="16.53" x2="81.2081" y2="55.8" gradientUnits="userSpaceOnUse">
<stop stop-color="#7BDAFF"/>
<stop offset="1" stop-color="#59BDEF"/>
</linearGradient>
<linearGradient id="paint11_linear_23283_26216" x1="129.02" y1="50.6799" x2="49.4503" y2="74.6699" gradientUnits="userSpaceOnUse">
<stop stop-color="#2573BA"/>
<stop offset="1" stop-color="#0063AD"/>
</linearGradient>
<linearGradient id="paint12_linear_23283_26216" x1="180.727" y1="99.6999" x2="153.797" y2="117.99" gradientUnits="userSpaceOnUse">
<stop stop-color="#3A9BD5"/>
<stop offset="0.24" stop-color="#3495D1"/>
<stop offset="0.54" stop-color="#2587C6"/>
<stop offset="0.87" stop-color="#0C6EB5"/>
<stop offset="1" stop-color="#0063AD"/>
</linearGradient>
<linearGradient id="paint13_linear_23283_26216" x1="781.7" y1="-240.297" x2="768.951" y2="-213.479" gradientUnits="userSpaceOnUse">
<stop stop-color="#2573BA"/>
<stop offset="1" stop-color="#0063AD"/>
</linearGradient>
<linearGradient id="paint14_linear_23283_26216" x1="225.038" y1="117" x2="182.708" y2="146.18" gradientUnits="userSpaceOnUse">
<stop stop-color="#3A9BD5"/>
<stop offset="1" stop-color="#2573BA"/>
</linearGradient>
<linearGradient id="paint15_linear_23283_26216" x1="213.616" y1="102.59" x2="165.986" y2="123.05" gradientUnits="userSpaceOnUse">
<stop stop-color="#7BDAFF"/>
<stop offset="1" stop-color="#59BDEF"/>
</linearGradient>
<linearGradient id="paint16_linear_23283_26216" x1="192.646" y1="124.29" x2="147.466" y2="137.91" gradientUnits="userSpaceOnUse">
<stop stop-color="#2573BA"/>
<stop offset="1" stop-color="#0063AD"/>
</linearGradient>
<linearGradient id="paint17_linear_23283_26216" x1="311.228" y1="173.35" x2="193.828" y2="173.35" gradientUnits="userSpaceOnUse">
<stop stop-color="#7BDAFF"/>
<stop offset="1" stop-color="#59BDEF"/>
</linearGradient>
<clipPath id="clip0_23283_26216">
<rect width="334.18" height="270.39" fill="white"/>
</clipPath>
</defs>
</svg>
